<svg width="260" height="161" viewBox="0 0 260 161" fill="none" xmlns="http://www.w3.org/2000/svg">
<path fill-rule="evenodd" clip-rule="evenodd" d="M124.724 26.0784H18.0784V134.417H124.724V26.0784ZM13 21V139.495H129.802V21H13Z" fill="#0F0E0E"/>
<path d="M28.9208 110.718C27.7473 110.718 26.9298 109.553 27.329 108.449L48.3188 50.4203C48.5613 49.75 49.1977 49.3033 49.9106 49.3033H58.7895C59.5024 49.3033 60.1388 49.75 60.3813 50.4203L81.3711 108.449C81.7703 109.553 80.9528 110.718 79.7793 110.718H71.4505C70.7138 110.718 70.0616 110.241 69.8378 109.539L53.4674 58.203C53.2988 57.6742 53.6934 57.1342 54.2484 57.1342V57.1342C54.8023 57.1342 55.1967 57.672 55.0303 58.2002L38.8596 109.533C38.6375 110.238 37.984 110.718 37.245 110.718H28.9208ZM40.3867 97.778C39.4518 97.778 38.6939 97.0201 38.6939 96.0852V90.1393C38.6939 89.2044 39.4518 88.4465 40.3867 88.4465H68.3549C69.2898 88.4465 70.0477 89.2044 70.0477 90.1393V96.0852C70.0477 97.0201 69.2898 97.778 68.3549 97.778H40.3867Z" fill="#7E7E7E"/>
<path d="M98.3655 110.718C97.4306 110.718 96.6727 109.96 96.6727 109.025V61.9036L88.6223 67.6995C87.8327 68.2679 86.7276 68.0554 86.2052 67.2347L82.4259 61.2977C81.9401 60.5346 82.1401 59.5245 82.88 59.0041L96.2345 49.6115C96.5197 49.411 96.8598 49.3033 97.2084 49.3033H105.182C106.117 49.3033 106.875 50.0612 106.875 50.9961V109.025C106.875 109.96 106.117 110.718 105.182 110.718H98.3655Z" fill="#7E7E7E"/>
<path d="M200.597 84.8641H207.338L214.458 102.234H214.761L221.881 84.8641H228.622V110.718H223.32V93.8901H223.105L216.415 110.591H212.804L206.114 93.827H205.899V110.718H200.597V84.8641Z" fill="#0F0E0E"/>
<path d="M170.191 84.8641H175.644V101.124H175.859L187.031 84.8641H191.815V110.718H186.349V94.4456H186.16L174.925 110.718H170.191V84.8641Z" fill="#0F0E0E"/>
<path d="M145.638 84.8641L150.852 93.6755H151.054L156.293 84.8641H162.466L154.576 97.7909L162.643 110.718H156.356L151.054 101.894H150.852L145.55 110.718H139.289L147.381 97.7909L139.44 84.8641H145.638Z" fill="#0F0E0E"/>
<path d="M242 62.2422C242 65.0615 241.466 67.46 240.397 69.4378C239.336 71.4155 237.889 72.9261 236.054 73.9697C234.228 75.0048 232.174 75.5224 229.894 75.5224C227.596 75.5224 225.534 75.0006 223.708 73.9571C221.882 72.9135 220.439 71.4029 219.378 69.4251C218.318 67.4474 217.788 65.0531 217.788 62.2422C217.788 59.4229 218.318 57.0244 219.378 55.0467C220.439 53.069 221.882 51.5625 223.708 50.5274C225.534 49.4838 227.596 48.962 229.894 48.962C232.174 48.962 234.228 49.4838 236.054 50.5274C237.889 51.5625 239.336 53.069 240.397 55.0467C241.466 57.0244 242 59.4229 242 62.2422ZM236.458 62.2422C236.458 60.416 236.185 58.8759 235.638 57.6219C235.099 56.368 234.337 55.417 233.353 54.769C232.368 54.1209 231.215 53.7969 229.894 53.7969C228.572 53.7969 227.42 54.1209 226.435 54.769C225.45 55.417 224.684 56.368 224.137 57.6219C223.599 58.8759 223.329 60.416 223.329 62.2422C223.329 64.0685 223.599 65.6086 224.137 66.8625C224.684 68.1165 225.45 69.0675 226.435 69.7155C227.42 70.3635 228.572 70.6875 229.894 70.6875C231.215 70.6875 232.368 70.3635 233.353 69.7155C234.337 69.0675 235.099 68.1165 235.638 66.8625C236.185 65.6086 236.458 64.0685 236.458 62.2422Z" fill="#0F0E0E"/>
<path d="M192.738 75.169V49.3156H202.938C204.898 49.3156 206.569 49.6901 207.949 50.4391C209.329 51.1797 210.381 52.2106 211.105 53.5319C211.837 54.8448 212.203 56.3596 212.203 58.0764C212.203 59.7933 211.833 61.3081 211.092 62.621C210.352 63.9339 209.279 64.9564 207.873 65.6886C206.476 66.4207 204.785 66.7868 202.799 66.7868H196.297V62.4064H201.915C202.967 62.4064 203.834 62.2254 204.516 61.8636C205.206 61.4933 205.719 60.9841 206.056 60.3361C206.401 59.6797 206.573 58.9264 206.573 58.0764C206.573 57.218 206.401 56.469 206.056 55.8294C205.719 55.1814 205.206 54.6806 204.516 54.3272C203.825 53.9653 202.95 53.7844 201.89 53.7844H198.204V75.169H192.738Z" fill="#0F0E0E"/>
<path d="M186.749 49.3156V53.8222H175.059V75.169H169.593V49.3156H186.749Z" fill="#0F0E0E"/>
<path d="M144.969 75.169H139.112L148.037 49.3156H155.081L163.993 75.169H158.136L151.66 55.2235H151.458L144.969 75.169ZM144.603 65.0069H158.439V69.2737H144.603V65.0069Z" fill="#0F0E0E"/>
</svg>
