<svg width="340" height="161" viewBox="0 0 340 161" fill="none" xmlns="http://www.w3.org/2000/svg">
<path d="M112.938 104.262C109.6 104.262 106.645 103.653 104.074 102.435C101.503 101.217 99.4508 99.4582 97.9171 97.1578C96.4286 94.8122 95.6167 92.0156 95.4814 88.7678C95.4363 88.0461 95.4137 87.144 95.4137 86.0614C95.4137 84.9337 95.4363 84.009 95.4814 83.2873C95.6167 79.9945 96.4286 77.1978 97.9171 74.8974C99.4057 72.5518 101.436 70.7701 104.007 69.5522C106.623 68.3343 109.6 67.7253 112.938 67.7253C116.05 67.7253 118.712 68.1764 120.922 69.0785C123.132 69.9356 124.936 71.0182 126.335 72.3263C127.733 73.6344 128.77 74.9876 129.447 76.3859C130.169 77.7391 130.552 78.9345 130.597 79.9719C130.642 80.423 130.485 80.829 130.124 81.1898C129.763 81.5056 129.357 81.6635 128.906 81.6635H120.313C119.817 81.6635 119.433 81.5507 119.163 81.3251C118.892 81.0996 118.644 80.7613 118.418 80.3102C117.877 78.9119 117.178 77.9196 116.321 77.3332C115.509 76.7468 114.449 76.4536 113.141 76.4536C111.337 76.4536 109.938 77.04 108.946 78.2127C107.999 79.3855 107.48 81.1898 107.39 83.6256C107.345 85.4299 107.345 87.0312 107.39 88.4295C107.48 90.9104 107.999 92.7147 108.946 93.8424C109.938 94.9701 111.337 95.5339 113.141 95.5339C114.539 95.5339 115.644 95.2407 116.456 94.6543C117.268 94.0679 117.922 93.0756 118.418 91.6772C118.644 91.2262 118.892 90.8879 119.163 90.6623C119.433 90.4368 119.817 90.324 120.313 90.324H128.906C129.357 90.324 129.763 90.5045 130.124 90.8653C130.485 91.1811 130.642 91.5645 130.597 92.0155C130.552 92.7824 130.327 93.6845 129.921 94.722C129.515 95.7143 128.883 96.7744 128.026 97.902C127.169 99.0297 126.041 100.09 124.643 101.082C123.29 102.029 121.644 102.796 119.704 103.383C117.764 103.969 115.509 104.262 112.938 104.262Z" fill="#111614"/>
<path d="M152.915 104.262C147.592 104.262 143.352 102.819 140.195 99.9319C137.037 97.045 135.391 92.7598 135.255 87.0763C135.255 86.7606 135.255 86.3546 135.255 85.8584C135.255 85.3622 135.255 84.9788 135.255 84.7082C135.391 81.1447 136.18 78.1 137.623 75.574C139.112 73.0029 141.142 71.0633 143.713 69.7552C146.329 68.4019 149.374 67.7253 152.847 67.7253C156.817 67.7253 160.087 68.5147 162.658 70.0935C165.274 71.6722 167.236 73.8148 168.544 76.5212C169.853 79.2277 170.507 82.3175 170.507 85.7908V87.4146C170.507 87.9108 170.326 88.3168 169.965 88.6325C169.65 88.9483 169.266 89.1061 168.815 89.1061H147.164C147.164 89.1512 147.164 89.2189 147.164 89.3091C147.164 89.3993 147.164 89.4895 147.164 89.5798C147.209 90.8879 147.434 92.0832 147.84 93.1658C148.246 94.2484 148.878 95.1054 149.735 95.7369C150.592 96.3684 151.629 96.6841 152.847 96.6841C153.749 96.6841 154.494 96.5488 155.08 96.2782C155.711 95.9624 156.23 95.6241 156.636 95.2633C157.042 94.8573 157.358 94.519 157.583 94.2484C157.989 93.7973 158.305 93.5266 158.531 93.4364C158.801 93.3011 159.207 93.2334 159.749 93.2334H168.138C168.59 93.2334 168.95 93.3688 169.221 93.6394C169.537 93.8649 169.672 94.2033 169.627 94.6543C169.582 95.4211 169.198 96.3458 168.477 97.4284C167.755 98.511 166.695 99.5936 165.297 100.676C163.944 101.714 162.229 102.571 160.154 103.247C158.08 103.924 155.666 104.262 152.915 104.262ZM147.164 82.4077H158.598V82.2724C158.598 80.829 158.373 79.566 157.922 78.4834C157.516 77.4008 156.862 76.5663 155.96 75.9799C155.102 75.3936 154.065 75.1004 152.847 75.1004C151.629 75.1004 150.592 75.3936 149.735 75.9799C148.923 76.5663 148.291 77.4008 147.84 78.4834C147.389 79.566 147.164 80.829 147.164 82.2724V82.4077Z" fill="#111614"/>
<path d="M181.893 116.441C181.487 116.441 181.149 116.306 180.878 116.035C180.608 115.764 180.472 115.426 180.472 115.02C180.472 114.93 180.472 114.795 180.472 114.614C180.517 114.479 180.585 114.321 180.675 114.141L185.953 101.42L172.962 70.7024C172.827 70.3867 172.759 70.116 172.759 69.8905C172.849 69.4845 173.03 69.1462 173.3 68.8756C173.571 68.5598 173.909 68.4019 174.315 68.4019H182.028C182.615 68.4019 183.043 68.5598 183.314 68.8756C183.63 69.1462 183.833 69.462 183.923 69.8228L191.704 89.5121L199.62 69.8228C199.801 69.462 200.026 69.1462 200.297 68.8756C200.613 68.5598 201.064 68.4019 201.65 68.4019H209.228C209.634 68.4019 209.972 68.5598 210.243 68.8756C210.559 69.1462 210.717 69.462 210.717 69.8228C210.717 70.0483 210.649 70.3415 210.514 70.7024L191.366 115.02C191.23 115.381 191.005 115.697 190.689 115.967C190.373 116.283 189.922 116.441 189.336 116.441H181.893Z" fill="#111614"/>
<path d="M218.341 103.586C217.89 103.586 217.506 103.45 217.19 103.18C216.92 102.864 216.784 102.48 216.784 102.029V57.1026C216.784 56.6515 216.92 56.2907 217.19 56.02C217.506 55.7043 217.89 55.5464 218.341 55.5464H221.521C222.017 55.5464 222.4 55.7043 222.671 56.02C222.942 56.2907 223.077 56.6515 223.077 57.1026V102.029C223.077 102.48 222.942 102.864 222.671 103.18C222.4 103.45 222.017 103.586 221.521 103.586H218.341Z" fill="#111614"/>
<path d="M246.043 104.262C242.615 104.262 239.751 103.608 237.451 102.3C235.15 100.992 233.391 99.1876 232.173 96.8871C230.955 94.5416 230.279 91.8802 230.143 88.9032C230.098 88.1363 230.076 87.1665 230.076 85.9937C230.076 84.7758 230.098 83.806 230.143 83.0843C230.279 80.0621 230.955 77.4008 232.173 75.1004C233.436 72.7999 235.218 70.9956 237.518 69.6875C239.819 68.3794 242.66 67.7253 246.043 67.7253C249.427 67.7253 252.268 68.3794 254.569 69.6875C256.869 70.9956 258.628 72.7999 259.846 75.1004C261.109 77.4008 261.808 80.0621 261.944 83.0843C261.989 83.806 262.011 84.7758 262.011 85.9937C262.011 87.1665 261.989 88.1363 261.944 88.9032C261.808 91.8802 261.132 94.5416 259.914 96.8871C258.696 99.1876 256.937 100.992 254.636 102.3C252.336 103.608 249.472 104.262 246.043 104.262ZM246.043 99.0523C248.84 99.0523 251.073 98.1727 252.742 96.4135C254.411 94.6092 255.313 91.993 255.448 88.5649C255.493 87.8882 255.516 87.0312 255.516 85.9937C255.516 84.9563 255.493 84.0992 255.448 83.4226C255.313 79.9945 254.411 77.4008 252.742 75.6416C251.073 73.8374 248.84 72.9352 246.043 72.9352C243.247 72.9352 240.991 73.8374 239.277 75.6416C237.608 77.4008 236.729 79.9945 236.639 83.4226C236.594 84.0992 236.571 84.9563 236.571 85.9937C236.571 87.0312 236.594 87.8882 236.639 88.5649C236.729 91.993 237.608 94.6092 239.277 96.4135C240.991 98.1727 243.247 99.0523 246.043 99.0523Z" fill="#111614"/>
<path d="M278.757 104.262C276.502 104.262 274.449 103.811 272.6 102.909C270.75 102.007 269.262 100.789 268.134 99.2553C267.006 97.7216 266.443 95.985 266.443 94.0454C266.443 90.933 267.706 88.4521 270.232 86.6027C272.758 84.7533 276.05 83.5354 280.11 82.949L290.192 81.5281V79.566C290.192 77.4008 289.56 75.7093 288.297 74.4914C287.079 73.2735 285.072 72.6646 282.275 72.6646C280.245 72.6646 278.599 73.0705 277.336 73.8825C276.118 74.6944 275.261 75.7319 274.765 76.9949C274.494 77.6715 274.021 78.0098 273.344 78.0098H270.299C269.803 78.0098 269.42 77.8744 269.149 77.6038C268.924 77.2881 268.811 76.9272 268.811 76.5212C268.811 75.8446 269.059 75.0101 269.555 74.0178C270.096 73.0254 270.908 72.0556 271.991 71.1084C273.073 70.1611 274.449 69.3717 276.118 68.7402C277.832 68.0636 279.907 67.7253 282.343 67.7253C285.049 67.7253 287.327 68.0862 289.177 68.8079C291.026 69.4845 292.469 70.4092 293.507 71.582C294.589 72.7548 295.356 74.0854 295.807 75.574C296.304 77.0625 296.552 78.5736 296.552 80.1073V102.029C296.552 102.48 296.394 102.864 296.078 103.18C295.807 103.45 295.447 103.586 294.995 103.586H291.883C291.387 103.586 291.003 103.45 290.733 103.18C290.462 102.864 290.327 102.48 290.327 102.029V99.1199C289.74 99.9319 288.951 100.744 287.959 101.556C286.966 102.323 285.726 102.977 284.237 103.518C282.749 104.014 280.922 104.262 278.757 104.262ZM280.178 99.1876C282.027 99.1876 283.719 98.8042 285.252 98.0374C286.786 97.2254 287.981 95.985 288.838 94.316C289.74 92.6471 290.192 90.5496 290.192 88.0236V86.1291L282.343 87.2793C279.14 87.7304 276.727 88.4972 275.103 89.5798C273.479 90.6172 272.667 91.9479 272.667 93.5717C272.667 94.8348 273.028 95.8948 273.75 96.7518C274.517 97.5637 275.464 98.1727 276.592 98.5786C277.765 98.9846 278.96 99.1876 280.178 99.1876Z" fill="#111614"/>
<path d="M306.297 103.586C305.846 103.586 305.462 103.45 305.147 103.18C304.876 102.864 304.741 102.48 304.741 102.029V69.9581C304.741 69.5071 304.876 69.1462 305.147 68.8756C305.462 68.5598 305.846 68.4019 306.297 68.4019H309.477C309.928 68.4019 310.289 68.5598 310.56 68.8756C310.875 69.1462 311.033 69.5071 311.033 69.9581V72.9352C312.206 71.4016 313.672 70.1611 315.431 69.2139C317.235 68.2215 319.536 67.7253 322.332 67.7253C325.264 67.7253 327.745 68.3794 329.775 69.6875C331.85 70.9505 333.406 72.7322 334.444 75.0327C335.481 77.2881 336 79.9268 336 82.949V102.029C336 102.48 335.865 102.864 335.594 103.18C335.323 103.45 334.963 103.586 334.511 103.586H331.128C330.677 103.586 330.294 103.45 329.978 103.18C329.708 102.864 329.572 102.48 329.572 102.029V83.2873C329.572 80.1298 328.805 77.6715 327.272 75.9123C325.738 74.108 323.483 73.2059 320.506 73.2059C317.709 73.2059 315.454 74.108 313.74 75.9123C312.071 77.6715 311.236 80.1298 311.236 83.2873V102.029C311.236 102.48 311.078 102.864 310.762 103.18C310.492 103.45 310.131 103.586 309.68 103.586H306.297Z" fill="#111614"/>
<path fill-rule="evenodd" clip-rule="evenodd" d="M57.6805 87.1599C54.3946 97.2435 47.7726 104.699 43.8703 108.439C48.1433 108.926 56.7475 109.122 63.6181 104.283C74.1179 96.8881 74.7365 85.4881 74.7365 85.4881C74.7365 85.4881 66.321 83.4035 57.6805 87.1599ZM36.5447 106.37C29.5037 103.465 16.2128 96.281 8.97417 81.4589C-1.38512 60.2467 7.65083 39 7.65083 39C7.65083 39 21.2874 41.9565 32.4018 54.3622C29.0436 59.8692 26.1893 66.8932 25.7705 75.1869C25.0635 89.189 31.8571 100.387 36.5447 106.37Z" fill="#BFBFBF"/>
<path d="M44.1877 45.8419C44.1877 45.8419 57.3281 57.3261 56.3381 76.9318C55.439 94.7372 41.0198 106.393 41.0198 106.393C41.0198 106.393 28.0453 93.7158 28.9626 75.5495C29.8981 57.0223 44.1877 45.8419 44.1877 45.8419Z" fill="#BFBFBF"/>
<path fill-rule="evenodd" clip-rule="evenodd" d="M34.4979 57.4779C36.6673 60.1581 38.6955 63.2527 40.4376 66.8199C47.1442 80.5527 44.7466 94.8087 42.7964 101.911C44.3659 98.1513 47.3674 92.8573 52.7411 89.0726C53.109 88.8135 53.4791 88.5687 53.8508 88.3375C49.4888 99.5493 41.0212 106.394 41.0212 106.394C41.0212 106.394 28.0466 93.717 28.9639 75.5506C29.3282 68.3373 31.7166 62.2377 34.4979 57.4779Z" fill="#7B7B7B"/>
</svg>
