<svg width="179" height="161" viewBox="0 0 179 161" fill="none" xmlns="http://www.w3.org/2000/svg">
<path fill-rule="evenodd" clip-rule="evenodd" d="M163 58.0645V104.129C161.397 105.381 159.672 106.739 157.846 108.177C138.337 123.545 107.291 148 89.5 148C71.7092 148 40.6628 123.545 21.1541 108.177L21.1534 108.177C19.3278 106.739 17.6032 105.38 16 104.129V58.0645C17.6034 56.7504 19.3282 55.3238 21.1541 53.8137C40.6628 37.6782 71.7092 12 89.5 12C107.291 12 138.337 37.6782 157.846 53.8137C159.672 55.3238 161.397 56.7504 163 58.0645ZM149.635 99.4476V99.4591C148.325 100.467 146.915 101.562 145.423 102.721L145.421 102.722L145.418 102.724C129.457 115.117 104.055 134.839 89.4989 134.839C74.9428 134.839 49.5412 115.117 33.5795 102.724L33.578 102.723L33.5755 102.721C32.0831 101.562 30.6733 100.467 29.3625 99.4591V99.4505C35.8149 94.627 44.1358 88.5126 52.8628 82.8856C53.6018 83.3489 54.3428 83.8077 55.085 84.261C61.1292 87.9526 67.301 91.311 73.1302 93.753C78.9214 96.179 84.5657 97.7832 89.5009 97.7832C94.4361 97.7832 100.08 96.179 105.871 93.753C111.701 91.311 117.872 87.9526 123.917 84.261C124.659 83.8077 125.4 83.3489 126.139 82.8856C134.864 88.5114 143.183 94.6245 149.635 99.4476ZM57.4502 80.0003L57.6554 79.8748C63.5827 76.2546 69.5217 73.0324 75.0377 70.7216C80.5917 68.395 85.527 67.0745 89.5009 67.0745C93.4747 67.0745 98.41 68.395 103.964 70.7216C109.48 73.0324 115.419 76.2546 121.346 79.8748L121.552 80.0003L121.346 80.1258C115.419 83.746 109.48 86.9682 103.964 89.279C98.41 91.6056 93.4747 92.9261 89.5009 92.9261C85.527 92.9261 80.5917 91.6056 75.0377 89.279C69.5217 86.9682 63.5827 83.746 57.6554 80.1258L57.4502 80.0003ZM123.917 75.7396C124.659 76.1929 125.4 76.6517 126.139 77.115C134.363 71.8121 142.227 66.0762 148.506 61.3959C147.524 60.599 146.493 59.7586 145.42 58.8834L145.418 58.8822C129.457 45.8697 104.055 25.1615 89.4989 25.1615C74.9428 25.1615 49.5412 45.8697 33.5795 58.8822L33.5794 58.8823C32.506 59.7573 31.4754 60.5976 30.4935 61.3944C36.7729 66.075 44.6374 71.8115 52.8628 77.115C53.6018 76.6517 54.3428 76.1929 55.085 75.7396C61.1292 72.048 67.301 68.6896 73.1302 66.2476C78.9214 63.8216 84.5657 62.2174 89.5009 62.2174C94.4361 62.2174 100.08 63.8216 105.871 66.2476C111.701 68.6896 117.872 72.048 123.917 75.7396ZM149.635 93.3728C144.131 89.2941 137.552 84.5401 130.634 80.0003C137.552 75.4605 144.131 70.7065 149.635 66.6278V93.3728ZM29.3625 93.3757V66.6249C34.8673 70.7043 41.4479 75.4594 48.3677 80.0003C41.4479 84.5412 34.8673 89.2963 29.3625 93.3757ZM96.2797 80C96.2797 83.6466 93.2705 86.6503 89.4989 86.6503C85.7274 86.6503 82.7181 83.6466 82.7181 80C82.7181 76.3535 85.7274 73.3498 89.4989 73.3498C93.2705 73.3498 96.2797 76.3535 96.2797 80ZM100.635 80C100.635 86.0574 95.6494 90.9678 89.4989 90.9678C83.3485 90.9678 78.3625 86.0574 78.3625 80C78.3625 73.9427 83.3485 69.0323 89.4989 69.0323C95.6494 69.0323 100.635 73.9427 100.635 80Z" fill="#39D289"/>
</svg>
