<svg width="340" height="161" viewBox="0 0 340 161" fill="none" xmlns="http://www.w3.org/2000/svg">
<path d="M306.682 34C308.47 40.8002 310.326 47.6005 311.9 54.4674C319.929 54.4807 327.971 54.4407 336 54.4807C329.181 59.0542 322.161 63.321 315.343 67.8945C317.051 74.4947 318.678 81.1216 320.198 87.7752C314.576 83.655 309.156 79.2815 303.454 75.2814C299.379 78.4282 294.551 80.5616 290.704 83.9884C285.796 93.6954 282.272 104.082 277.578 113.909C274.203 119.936 268.124 124.576 261.225 125.803C256.786 126.363 252.295 126.03 247.83 126.083C171.615 126.11 95.4008 126.07 19.1729 126.136C14.6137 126.083 9.00559 126.816 5.73752 122.923C2.83258 119.43 4.09677 114.589 5.72408 110.843C11.8164 96.7088 17.8011 82.5217 23.7993 68.3478C26.1528 63.0677 30.5237 58.7742 35.7822 56.3474C40.5968 53.7607 46.2319 54.5207 51.4769 54.4407C133.609 54.3874 215.741 54.5207 297.873 54.414C300.858 47.6271 303.615 40.7469 306.682 34ZM305.243 49.1738C303.844 52.614 302.365 56.0274 300.751 59.3742C297.267 59.2142 293.784 59.1609 290.314 59.1742C292.964 61.2809 295.627 63.3743 298.357 65.3744C296.824 68.8679 295.371 72.388 293.919 75.9081C297.241 73.7614 300.603 71.6546 303.951 69.5212C306.722 71.7213 309.546 73.828 312.357 75.9614C311.59 72.5213 310.783 69.0945 309.815 65.7211C313.204 63.6277 316.54 61.4543 319.835 59.2142C315.934 59.2142 312.034 59.2142 308.147 59.2409C307.26 55.8674 306.991 52.254 305.243 49.1738ZM33.3748 71.7213C28.3046 83.9217 23.0327 96.0288 17.9221 108.216C16.5235 110.669 17.438 113.336 18.6753 115.616C22.683 116.216 26.7446 116.283 30.7927 116.056C33.3883 109.469 36.2932 103.002 39.0771 96.4821C54.2877 96.4288 69.4983 96.6821 84.6955 96.3488C81.9519 102.936 79.1815 109.509 76.3303 116.056C79.9884 116.056 83.7406 116.549 87.3449 115.696C91.2451 114.216 94.4728 111.016 95.9925 107.162C101.197 94.5621 106.765 82.095 111.849 69.4545C113.341 66.1478 110.154 62.641 106.725 63.0677C86.4842 62.961 66.2437 63.0277 46.0033 63.0277C40.3817 62.6943 35.3518 66.6944 33.3748 71.7213ZM118.613 75.9081C144.516 76.0548 170.432 75.9881 196.334 75.9348C197.45 72.5346 200.207 68.8279 198.405 65.2011C197.141 62.5476 193.685 63.2143 191.304 62.9743C171.534 63.081 151.765 62.8676 132.008 63.081C124.827 63.1077 120.51 69.8279 118.613 75.9081ZM206.999 71.8813C203.516 80.0816 200.006 88.2552 196.657 96.5088C217.153 96.4821 237.662 96.5488 258.158 96.4688C257.298 98.7222 256.437 100.976 255.59 103.229C234.973 103.269 214.355 103.309 193.738 103.242C191.909 107.122 188.278 113.923 194.29 115.949C214.786 116.403 235.336 115.989 255.859 116.136C261.453 116.763 266.994 113.243 269.133 108.163C272.858 99.8022 276.301 91.3086 279.892 82.895C259.355 82.855 238.819 82.8283 218.283 82.895C219.197 80.5882 220.112 78.2815 221.013 75.9614C241.67 75.9881 262.314 75.9881 282.958 75.9748C283.98 73.4547 285.177 70.9879 285.755 68.3078C286.374 65.1077 283.119 62.601 280.107 63.0277C259.907 62.9743 239.693 63.0143 219.493 63.0277C213.885 62.7876 208.949 66.8545 206.999 71.8813ZM109.899 96.5488C135.761 96.4555 161.609 96.5221 187.458 96.5355C189.354 91.9886 191.304 87.4818 193.308 82.9883C167.433 82.655 141.557 82.9617 115.682 82.8683C113.718 87.4018 111.862 92.002 109.899 96.5488ZM107.047 103.282C105.729 106.616 102.986 110.283 104.788 113.963C106.227 116.443 109.441 116.043 111.876 116.163C131.672 116.056 151.455 116.243 171.252 116.083C178.34 116.109 182.737 109.363 184.593 103.349C158.745 103.109 132.896 103.296 107.047 103.282Z" fill="#151515"/>
<path d="M33.3748 71.7215C35.3518 66.6947 40.3816 62.6946 46.0032 63.0279C66.2437 63.0279 86.4842 62.9612 106.725 63.0679C110.154 62.6412 113.341 66.148 111.849 69.4548C106.765 82.0952 101.197 94.5623 95.9925 107.163C94.4728 111.016 91.245 114.216 87.3449 115.696C83.7406 116.55 79.9884 116.056 76.3303 116.056C79.1815 109.509 81.9519 102.936 84.6955 96.349C69.4983 96.6824 54.2877 96.429 39.0771 96.4824C36.2932 103.003 33.3883 109.469 30.7926 116.056C26.7445 116.283 22.683 116.216 18.6753 115.616C17.438 113.336 16.5234 110.67 17.9221 108.216C23.0327 96.029 28.3046 83.9219 33.3748 71.7215ZM44.6987 83.0686C59.9362 83.1219 75.1737 83.0819 90.4112 83.0953C91.3661 80.7218 92.3344 78.3618 93.3027 76.0017C78.2266 75.855 63.1505 76.2817 48.0878 75.815C46.8909 78.1884 45.7477 80.6018 44.6987 83.0686Z" fill="#EFF0F1"/>
<path d="M118.613 75.9079C120.51 69.8277 124.827 63.1075 132.008 63.0808C151.765 62.8675 171.534 63.0808 191.304 62.9741C193.685 63.2141 197.141 62.5474 198.405 65.2009C200.207 68.8277 197.45 72.5344 196.334 75.9346C170.432 75.9879 144.516 76.0546 118.613 75.9079Z" fill="#EFF0F1"/>
<path d="M206.999 71.8811C208.949 66.8542 213.885 62.7874 219.493 63.0274C239.693 63.0141 259.907 62.9741 280.107 63.0274C283.119 62.6007 286.374 65.1075 285.755 68.3076C285.177 70.9877 283.98 73.4544 282.958 75.9745C262.314 75.9879 241.67 75.9879 221.013 75.9612C220.112 78.2813 219.197 80.588 218.283 82.8948C238.819 82.8281 259.355 82.8548 279.892 82.8948C276.301 91.3084 272.858 99.802 269.133 108.162C266.994 113.242 261.453 116.763 255.859 116.136C235.336 115.989 214.786 116.403 194.29 115.949C188.278 113.922 191.91 107.122 193.739 103.242C214.356 103.309 234.973 103.269 255.59 103.229C256.437 100.975 257.298 98.722 258.158 96.4686C237.662 96.5486 217.153 96.4819 196.657 96.5086C200.006 88.255 203.516 80.0813 206.999 71.8811Z" fill="#EFF0F1"/>
<path d="M44.6987 83.0685C45.7477 80.6018 46.8909 78.1884 48.0878 75.8149C63.1505 76.2816 78.2266 75.8549 93.3027 76.0016C92.3344 78.3617 91.3661 80.7218 90.4112 83.0952C75.1737 83.0819 59.9362 83.1219 44.6987 83.0685Z" fill="#151515"/>
<path d="M109.899 96.5489C111.862 92.0021 113.718 87.4019 115.682 82.8685C141.557 82.9618 167.433 82.6551 193.308 82.9885C191.304 87.4819 189.354 91.9888 187.458 96.5356C161.609 96.5223 135.761 96.4556 109.899 96.5489Z" fill="#EFF0F1"/>
<path d="M107.047 103.283C132.896 103.296 158.745 103.109 184.593 103.349C182.737 109.363 178.34 116.11 171.252 116.083C151.455 116.243 131.672 116.056 111.876 116.163C109.441 116.043 106.227 116.443 104.788 113.963C102.986 110.283 105.729 106.616 107.047 103.283Z" fill="#EFF0F1"/>
<path d="M46.5143 40.7071C46.595 40.4271 46.7295 40.1737 46.8909 39.9604C47.0523 39.7337 47.2405 39.5471 47.4557 39.3871C47.6709 39.227 47.913 39.107 48.1685 39.0137C48.4375 38.9337 48.7065 38.8804 48.9889 38.8804H59.7076L57.4751 46.0673C57.3944 46.374 57.2196 46.6273 56.964 46.814C56.7085 47.0006 56.4126 47.094 56.0899 47.094H54.9064L55.4712 45.2406H47.375L47.1195 46.0673C47.0388 46.374 46.864 46.6273 46.6084 46.814C46.3529 47.0006 46.057 47.094 45.7343 47.094H44.5508L46.5143 40.7071ZM49.1772 41.1338C49.0158 41.1338 48.8678 41.1871 48.7468 41.2805C48.6258 41.3738 48.5316 41.4938 48.4778 41.6538L48.0609 43.0005H56.1571L56.7354 41.1338H49.1772V41.1338Z" fill="#606060"/>
<path d="M76.2766 38.8936L74.071 46.0805C73.9768 46.3871 73.802 46.6405 73.533 46.8272C73.2775 47.0138 72.9816 47.1072 72.6588 47.1072H71.4754L73.1027 41.827L66.0017 46.2938L61.6443 41.827L60.3263 46.0805C60.2456 46.3871 60.0708 46.6405 59.8152 46.8272C59.5597 47.0138 59.2638 47.1072 58.9411 47.1072H57.7576L59.9632 39.9203C60.0573 39.6136 60.2322 39.3602 60.5011 39.1736C60.7567 38.9869 61.0391 38.8936 61.3619 38.8936H62.4647L66.8893 43.4404L73.4927 39.2936C73.9096 39.0269 74.3669 38.8936 74.8645 38.8936H76.2766V38.8936Z" fill="#606060"/>
<path d="M88.367 38.8937L87.977 40.1204C87.8828 40.4271 87.7214 40.6804 87.4525 40.8538C87.1969 41.0404 86.9011 41.1204 86.5783 41.1204H78.4283L78.1997 41.8538H87.4256L87.0355 43.0805C86.9548 43.3872 86.78 43.6405 86.5245 43.8139C86.269 44.0005 85.9731 44.0805 85.6503 44.0805H77.5138L77.2852 44.8539H86.511L86.121 46.0673C86.0403 46.374 85.8655 46.6273 85.61 46.814C85.3544 47.0006 85.0586 47.094 84.7358 47.094H74.3264L76.4379 40.2404C76.5589 39.8404 76.7875 39.5071 77.1372 39.2537C77.4869 39.0004 77.8635 38.8804 78.2804 38.8804H88.367V38.8937Z" fill="#606060"/>
<path d="M88.3938 40.7071C88.5686 40.1604 88.878 39.7204 89.3352 39.3871C89.7925 39.0537 90.3035 38.8804 90.8684 38.8804H101.587L100.35 42.8538C100.269 43.1205 100.162 43.3605 100 43.5872C99.8387 43.8139 99.6505 44.0005 99.4218 44.1605C99.1932 44.3206 98.9646 44.4406 98.709 44.5339C98.4535 44.6272 98.1711 44.6672 97.8887 44.6672H96.8262L99.4084 47.0806H96.3689L94.002 44.6672H90.2632L90.9625 42.4272H98.2518L98.6418 41.1204H90.5456L88.7031 47.094H86.4437L88.3938 40.7071Z" fill="#606060"/>
<path d="M106.066 41.1338L104.922 44.8539H107.236L106.563 47.094H99.6505L100.336 44.8539H102.663L103.806 41.1204H101.48L102.179 38.8804H109.065L108.392 41.1204H106.066V41.1338Z" fill="#606060"/>
<path d="M109.993 44.8539H120.348L119.972 46.0673C119.878 46.374 119.703 46.6273 119.434 46.814C119.178 47.0006 118.896 47.094 118.573 47.094H108.984C108.742 47.094 108.513 47.0406 108.312 46.934C108.11 46.8273 107.935 46.6806 107.814 46.5073C107.68 46.334 107.599 46.134 107.559 45.9206C107.518 45.7073 107.532 45.4806 107.612 45.2406L108.998 40.7071C109.172 40.1604 109.482 39.7204 109.939 39.3871C110.396 39.0537 110.907 38.8804 111.472 38.8804H122.191L119.461 43.1872C119.326 43.4005 119.138 43.5605 118.923 43.6805C118.708 43.8005 118.466 43.8539 118.223 43.8539H116.65L118.371 41.1204H111.674C111.512 41.1204 111.365 41.1738 111.244 41.2671C111.109 41.3605 111.028 41.4805 110.988 41.6405L109.993 44.8539Z" fill="#606060"/>
<path d="M122.218 40.7071C122.298 40.4271 122.433 40.1737 122.594 39.9604C122.756 39.7337 122.944 39.5471 123.159 39.3871C123.374 39.227 123.616 39.107 123.872 39.0137C124.141 38.9337 124.41 38.8804 124.692 38.8804H135.411L133.178 46.0673C133.098 46.374 132.923 46.6273 132.667 46.814C132.412 47.0006 132.116 47.094 131.793 47.094H130.61L131.175 45.2406H123.078L122.823 46.0673C122.742 46.374 122.567 46.6273 122.312 46.814C122.056 47.0006 121.76 47.094 121.438 47.094H120.254L122.218 40.7071ZM124.881 41.1338C124.719 41.1338 124.571 41.1871 124.45 41.2805C124.329 41.3738 124.235 41.4938 124.181 41.6538L123.764 43.0138H131.86L132.439 41.1471H124.881V41.1338Z" fill="#606060"/>
<path d="M148.618 38.8936L146.089 47.1072H143.453L137.469 41.427L136.03 46.0805C135.949 46.3871 135.774 46.6405 135.519 46.8272C135.263 47.0138 134.967 47.1072 134.644 47.1072H133.461L135.976 38.8936H138.612C138.625 38.8936 138.625 38.8936 138.625 38.9069L144.597 44.5871L146.036 39.9203C146.13 39.6136 146.305 39.3602 146.574 39.1736C146.829 38.9869 147.111 38.8936 147.434 38.8936H148.618V38.8936Z" fill="#606060"/>
<path d="M165.63 38.8937L165.24 40.1204C165.16 40.4271 164.985 40.6804 164.729 40.8538C164.474 41.0271 164.178 41.1204 163.855 41.1204H155.705L155.477 41.8538H164.702L164.312 43.0805C164.232 43.3872 164.057 43.6405 163.801 43.8139C163.546 44.0005 163.25 44.0805 162.927 44.0805H154.777L154.562 44.8539H163.788L163.398 46.0673C163.317 46.374 163.142 46.6273 162.887 46.814C162.631 47.0006 162.335 47.094 162.013 47.094H151.603L153.715 40.2404C153.836 39.8404 154.064 39.5071 154.414 39.2537C154.764 39.0004 155.14 38.8804 155.557 38.8804H165.63V38.8937Z" fill="#606060"/>
<path d="M173 42.9869L174.87 47.0937H173.283C173 47.0937 172.745 47.0137 172.503 46.867C172.261 46.707 172.086 46.507 171.965 46.2537L170.983 44.1069H169.383L166.585 46.7203C166.303 46.9737 165.98 47.107 165.604 47.107H163.344L167.755 43.0002L165.872 38.9067H167.473C167.755 38.9067 168.011 38.9867 168.253 39.1334C168.495 39.2934 168.67 39.4934 168.791 39.7468L169.773 41.8802H171.373L174.144 39.3068C174.439 39.0401 174.762 38.9067 175.125 38.9067H177.398L173 42.9869Z" fill="#606060"/>
<path d="M177.129 40.7071C177.21 40.4271 177.331 40.1737 177.492 39.9604C177.654 39.7337 177.842 39.5471 178.057 39.3871C178.272 39.227 178.514 39.107 178.783 39.0137C179.039 38.9337 179.321 38.8804 179.604 38.8804H190.309L189.099 42.8538C188.924 43.4005 188.614 43.8405 188.157 44.1739C187.7 44.5072 187.189 44.6806 186.624 44.6806H178.972L179.671 42.4405H186.96L187.364 41.1338H179.268L177.425 47.1073H175.166L177.129 40.7071Z" fill="#606060"/>
<path d="M190.322 40.7071C190.497 40.1604 190.807 39.7204 191.264 39.3871C191.721 39.0537 192.232 38.8804 192.797 38.8804H203.516L202.292 42.8538C202.211 43.1205 202.104 43.3605 201.942 43.5872C201.781 43.8139 201.593 44.0005 201.364 44.1605C201.135 44.3206 200.907 44.4406 200.651 44.5339C200.396 44.6272 200.113 44.6672 199.831 44.6672H198.768L201.35 47.0806H198.311L195.944 44.6672H192.205L192.905 42.4272H200.167L200.557 41.1204H192.461L190.618 47.094H188.359L190.322 40.7071Z" fill="#606060"/>
<path d="M215.593 38.8937L215.203 40.1204C215.122 40.4271 214.947 40.6804 214.692 40.8538C214.436 41.0404 214.14 41.1204 213.818 41.1204H205.668L205.439 41.8538H214.665L214.275 43.0805C214.194 43.3872 214.019 43.6405 213.764 43.8139C213.508 44.0005 213.212 44.0805 212.89 44.0805H204.74L204.524 44.8539H213.764L213.374 46.0673C213.293 46.374 213.118 46.6273 212.863 46.814C212.607 47.0006 212.311 47.094 211.988 47.094H201.579L203.691 40.2404C203.812 39.8404 204.04 39.5071 204.39 39.2537C204.74 39.0004 205.116 38.8804 205.533 38.8804H215.593V38.8937Z" fill="#606060"/>
<path d="M215.647 40.7071C215.727 40.4271 215.848 40.1737 216.01 39.9604C216.171 39.7337 216.359 39.5471 216.575 39.3871C216.79 39.227 217.032 39.107 217.287 39.0137C217.543 38.9204 217.825 38.8804 218.108 38.8804H228.813L228.436 40.1071C228.342 40.4138 228.167 40.6671 227.898 40.8404C227.643 41.0271 227.36 41.1071 227.038 41.1071H218.296C218.135 41.1071 217.987 41.1604 217.866 41.2538C217.731 41.3471 217.65 41.4671 217.61 41.6271L217.529 41.8538H227.885L226.836 45.2806C226.675 45.8273 226.365 46.2673 225.921 46.5873C225.478 46.9073 224.953 47.0806 224.375 47.0806H213.656L214.046 45.8673C214.127 45.5606 214.302 45.3073 214.557 45.1206C214.813 44.9339 215.109 44.8406 215.431 44.8406H224.173C224.334 44.8406 224.482 44.7872 224.603 44.6939C224.724 44.6006 224.819 44.4806 224.872 44.3206L224.953 44.0805H214.584L215.647 40.7071Z" fill="#606060"/>
<path d="M228.867 40.7071C228.947 40.4271 229.068 40.1737 229.23 39.9604C229.391 39.7337 229.58 39.5471 229.795 39.3871C230.01 39.227 230.252 39.107 230.508 39.0137C230.763 38.9337 231.045 38.8804 231.328 38.8804H242.033L241.657 40.1071C241.562 40.4138 241.374 40.6671 241.119 40.8404C240.863 41.0271 240.581 41.1071 240.258 41.1071H231.516C231.355 41.1071 231.207 41.1604 231.086 41.2538C230.951 41.3471 230.871 41.4671 230.83 41.6271L230.75 41.8538H241.119L240.07 45.2806C239.908 45.8273 239.599 46.2673 239.155 46.5873C238.711 46.9073 238.187 47.0806 237.608 47.0806H226.89L227.28 45.8673C227.36 45.5606 227.535 45.3073 227.791 45.1206C228.046 44.9339 228.342 44.8406 228.665 44.8406H237.407C237.568 44.8406 237.703 44.7872 237.837 44.6939C237.958 44.6006 238.052 44.4806 238.106 44.3206L238.187 44.0805H227.831L228.867 40.7071Z" fill="#606060"/>
<path d="M246.996 40.7071C247.076 40.4271 247.197 40.1737 247.359 39.9604C247.52 39.7337 247.708 39.5471 247.924 39.3871C248.139 39.227 248.381 39.107 248.636 39.0137C248.892 38.9337 249.174 38.8804 249.457 38.8804H260.162L259.786 40.1071C259.691 40.4138 259.517 40.6671 259.248 40.8404C258.992 41.0271 258.71 41.1071 258.387 41.1071H249.645C249.484 41.1071 249.336 41.1604 249.215 41.2538C249.08 41.3471 249 41.4671 248.959 41.6271L248.879 41.8538H259.234L258.185 45.2806C258.024 45.8273 257.714 46.2673 257.271 46.5873C256.827 46.9073 256.302 47.0806 255.724 47.0806H245.005L245.395 45.8673C245.476 45.5606 245.651 45.3073 245.906 45.1206C246.162 44.9339 246.458 44.8406 246.781 44.8406H255.522C255.684 44.8406 255.832 44.7872 255.953 44.6939C256.074 44.6006 256.168 44.4806 256.222 44.3206L256.302 44.0805H245.947L246.996 40.7071Z" fill="#606060"/>
<path d="M273.396 38.8936L270.867 47.1072H268.608L269.522 44.1204H261.426L260.512 47.1072H258.252L260.781 38.8936H263.04L262.126 41.867H270.222L271.136 38.8936H273.396V38.8936Z" fill="#606060"/>
<path d="M284.639 38.8936C284.881 38.8936 285.11 38.9469 285.311 39.0536C285.513 39.1602 285.674 39.3069 285.809 39.4802C285.943 39.6536 286.024 39.8536 286.078 40.0803C286.132 40.3069 286.118 40.5336 286.038 40.7736L284.639 45.3071C284.477 45.8538 284.168 46.2938 283.724 46.6138C283.267 46.9472 282.756 47.1072 282.178 47.1072H273.436C273.194 47.1072 272.979 47.0538 272.777 46.9472C272.575 46.8405 272.4 46.6938 272.279 46.5205C272.145 46.3471 272.064 46.1471 272.01 45.9338C271.957 45.7205 271.97 45.4938 272.051 45.2538L273.449 40.7203C273.53 40.4403 273.651 40.1869 273.813 39.9736C273.974 39.7469 274.162 39.5602 274.377 39.4002C274.593 39.2402 274.835 39.1202 275.09 39.0269C275.346 38.9336 275.628 38.8936 275.911 38.8936H284.639V38.8936ZM283.55 41.4536C283.576 41.3736 283.563 41.2936 283.509 41.227C283.455 41.1603 283.388 41.1336 283.307 41.1336H276.072C275.911 41.1336 275.763 41.187 275.642 41.2803C275.521 41.3736 275.426 41.4936 275.373 41.6536L274.472 44.5604C274.445 44.6404 274.458 44.7071 274.512 44.7738C274.566 44.8404 274.633 44.8671 274.714 44.8671H281.949C282.11 44.8671 282.258 44.8138 282.379 44.7204C282.501 44.6271 282.595 44.5071 282.648 44.3471L283.55 41.4536Z" fill="#606060"/>
<path d="M286.697 40.7071C286.777 40.4271 286.898 40.1737 287.06 39.9604C287.221 39.7337 287.409 39.5471 287.625 39.3871C287.84 39.227 288.082 39.107 288.337 39.0137C288.593 38.9204 288.875 38.8804 289.158 38.8804H299.863L298.653 42.8538C298.478 43.4005 298.168 43.8405 297.711 44.1739C297.254 44.5072 296.743 44.6806 296.178 44.6806H288.526L289.225 42.4405H296.514L296.918 41.1338H288.821L286.979 47.1073H284.72L286.697 40.7071Z" fill="#606060"/>
</svg>
