<svg width="340" height="161" viewBox="0 0 340 161" fill="none" xmlns="http://www.w3.org/2000/svg">
<path d="M26.4817 108.801C24.0639 116.565 29.0287 124.68 37.1232 126.195C43.8459 127.453 50.4886 123.672 52.7452 117.304L54.9306 111.137C57.9705 102.559 66.9194 97.466 75.9759 99.1605L80.2673 99.9635C87.0428 101.231 93.7137 97.3264 95.8277 90.8553C98.3489 83.1373 93.4381 74.9847 85.357 73.4727L64.1684 69.5083C50.4769 66.9465 37.0248 74.944 32.9352 88.0769L26.4817 108.801Z" fill="#48F9A4"/>
<path d="M74.0099 51.6344C76.4277 43.87 71.463 35.755 63.3684 34.2405C56.6457 32.9827 50.003 36.763 47.7465 43.1309L45.561 49.298C42.5211 57.8766 33.5723 62.9694 24.5157 61.2749L20.2243 60.4719C13.4488 59.2042 6.77788 63.109 4.66395 69.5801C2.1427 77.2981 7.05352 85.4507 15.1346 86.9627L36.3232 90.9271C50.0147 93.4889 63.4668 85.4914 67.5564 72.3585L74.0099 51.6344Z" fill="#3DACFC"/>
<path fill-rule="evenodd" clip-rule="evenodd" d="M68.2107 70.2639L64.1722 69.5083C50.4807 66.9465 37.0287 74.944 32.9391 88.0769L32.2867 90.1719L36.3251 90.9276C50.0166 93.4893 63.4687 85.4918 67.5583 72.3589L68.2107 70.2639Z" fill="#003FB1"/>
<path d="M128.185 89.7761C125.783 89.7761 123.631 89.2165 121.728 88.0973C119.825 86.9471 118.313 85.3927 117.19 83.4341C116.098 81.4756 115.552 79.2683 115.552 76.8124C115.552 74.3253 116.113 72.1025 117.236 70.144C118.391 68.1854 119.95 66.6466 121.915 65.5274C123.88 64.3772 126.095 63.802 128.559 63.802C131.024 63.802 133.223 64.3772 135.157 65.5274C137.122 66.6466 138.666 68.1854 139.789 70.144C140.943 72.1025 141.536 74.3253 141.567 76.8124L140.116 77.9315C140.116 80.1699 139.586 82.1906 138.525 83.9937C137.496 85.7657 136.077 87.1802 134.268 88.2372C132.49 89.2631 130.462 89.7761 128.185 89.7761ZM128.559 86.5118C130.369 86.5118 131.975 86.0922 133.379 85.2528C134.814 84.4134 135.936 83.2631 136.747 81.802C137.59 80.3098 138.011 78.6466 138.011 76.8124C138.011 74.9471 137.59 73.2839 136.747 71.8227C135.936 70.3616 134.814 69.2114 133.379 68.372C131.975 67.5015 130.369 67.0663 128.559 67.0663C126.781 67.0663 125.175 67.5015 123.74 68.372C122.305 69.2114 121.167 70.3616 120.324 71.8227C119.482 73.2839 119.061 74.9471 119.061 76.8124C119.061 78.6466 119.482 80.3098 120.324 81.802C121.167 83.2631 122.305 84.4134 123.74 85.2528C125.175 86.0922 126.781 86.5118 128.559 86.5118ZM139.742 89.5429C139.212 89.5429 138.775 89.3875 138.432 89.0766C138.089 88.7346 137.917 88.2994 137.917 87.7709V79.7968L138.806 76.1129L141.567 76.8124V87.7709C141.567 88.2994 141.395 88.7346 141.052 89.0766C140.709 89.3875 140.272 89.5429 139.742 89.5429Z" fill="#003FB1"/>
<path d="M154.971 89.5429C154.223 89.5429 153.661 89.1388 153.287 88.3305L142.9 66.3668C142.712 65.9627 142.697 65.5585 142.853 65.1544C143.009 64.7502 143.321 64.4393 143.789 64.2217C144.225 64.0041 144.646 63.973 145.052 64.1285C145.457 64.2839 145.769 64.5637 145.988 64.9678L155.954 86.4652H154.035L163.861 64.9678C164.048 64.5326 164.36 64.2528 164.797 64.1285C165.265 63.973 165.717 63.9886 166.154 64.1751C166.59 64.3927 166.887 64.7191 167.043 65.1544C167.199 65.5585 167.183 65.9471 166.996 66.3202L156.749 88.3305C156.375 89.1388 155.782 89.5429 154.971 89.5429Z" fill="#003FB1"/>
<path d="M181.51 89.7761C179.108 89.7761 176.956 89.2165 175.053 88.0973C173.15 86.9471 171.638 85.3927 170.515 83.4341C169.423 81.4756 168.877 79.2683 168.877 76.8124C168.877 74.3253 169.439 72.1025 170.561 70.144C171.716 68.1854 173.275 66.6466 175.24 65.5274C177.206 64.3772 179.42 63.802 181.884 63.802C184.349 63.802 186.548 64.3772 188.482 65.5274C190.447 66.6466 191.991 68.1854 193.114 70.144C194.268 72.1025 194.861 74.3253 194.892 76.8124L193.441 77.9315C193.441 80.1699 192.911 82.1906 191.851 83.9937C190.821 85.7657 189.402 87.1802 187.593 88.2372C185.815 89.2631 183.787 89.7761 181.51 89.7761ZM181.884 86.5118C183.694 86.5118 185.3 86.0922 186.704 85.2528C188.139 84.4134 189.262 83.2631 190.073 81.802C190.915 80.3098 191.336 78.6466 191.336 76.8124C191.336 74.9471 190.915 73.2839 190.073 71.8227C189.262 70.3616 188.139 69.2114 186.704 68.372C185.3 67.5015 183.694 67.0663 181.884 67.0663C180.106 67.0663 178.5 67.5015 177.065 68.372C175.63 69.2114 174.492 70.3616 173.65 71.8227C172.807 73.2839 172.386 74.9471 172.386 76.8124C172.386 78.6466 172.807 80.3098 173.65 81.802C174.492 83.2631 175.63 84.4134 177.065 85.2528C178.5 86.0922 180.106 86.5118 181.884 86.5118ZM193.067 89.5429C192.537 89.5429 192.1 89.3875 191.757 89.0766C191.414 88.7346 191.242 88.2994 191.242 87.7709V79.7968L192.131 76.1129L194.892 76.8124V87.7709C194.892 88.2994 194.72 88.7346 194.377 89.0766C194.034 89.3875 193.597 89.5429 193.067 89.5429Z" fill="#003FB1"/>
<path d="M222.907 89.5429C222.377 89.5429 221.94 89.3719 221.597 89.03C221.254 88.688 221.082 88.2683 221.082 87.7709V75.6466C221.082 73.7191 220.708 72.1336 219.959 70.8901C219.242 69.6466 218.244 68.7139 216.965 68.0922C215.717 67.4704 214.298 67.1595 212.707 67.1595C211.179 67.1595 209.791 67.4549 208.543 68.0456C207.326 68.6362 206.359 69.4445 205.642 70.4704C204.925 71.4963 204.566 72.6621 204.566 73.9678H201.992C202.055 72.0093 202.585 70.2683 203.583 68.745C204.581 67.1906 205.907 65.9782 207.56 65.1077C209.214 64.2062 211.054 63.7554 213.081 63.7554C215.296 63.7554 217.277 64.2217 219.024 65.1544C220.771 66.0559 222.143 67.3927 223.141 69.1647C224.171 70.9367 224.685 73.0974 224.685 75.6466V87.7709C224.685 88.2683 224.514 88.688 224.171 89.03C223.827 89.3719 223.406 89.5429 222.907 89.5429ZM202.788 89.5429C202.226 89.5429 201.774 89.3875 201.431 89.0766C201.119 88.7346 200.963 88.2994 200.963 87.7709V65.8538C200.963 65.2943 201.119 64.859 201.431 64.5481C201.774 64.2062 202.226 64.0352 202.788 64.0352C203.318 64.0352 203.739 64.2062 204.051 64.5481C204.394 64.859 204.566 65.2943 204.566 65.8538V87.7709C204.566 88.2994 204.394 88.7346 204.051 89.0766C203.739 89.3875 203.318 89.5429 202.788 89.5429Z" fill="#003FB1"/>
<path d="M240.629 89.7761C238.789 89.7761 236.964 89.4652 235.155 88.8434C233.345 88.2217 231.879 87.289 230.756 86.0455C230.413 85.6725 230.273 85.2528 230.335 84.7865C230.398 84.3201 230.632 83.916 231.037 83.574C231.474 83.2631 231.926 83.1388 232.394 83.201C232.862 83.2631 233.252 83.4652 233.564 83.8072C234.312 84.6777 235.295 85.346 236.512 85.8124C237.759 86.2787 239.132 86.5118 240.629 86.5118C242.937 86.5118 244.606 86.1232 245.635 85.346C246.665 84.5378 247.195 83.574 247.226 82.4549C247.226 81.3357 246.696 80.4186 245.635 79.7036C244.575 78.9575 242.828 78.3823 240.395 77.9782C237.245 77.4808 234.936 76.6103 233.47 75.3668C232.004 74.1233 231.271 72.6466 231.271 70.9367C231.271 69.3512 231.692 68.03 232.534 66.973C233.377 65.916 234.5 65.1233 235.903 64.5948C237.307 64.0663 238.851 63.802 240.535 63.802C242.625 63.802 244.419 64.1595 245.916 64.8746C247.445 65.5896 248.677 66.5533 249.613 67.7658C249.924 68.1699 250.049 68.5896 249.987 69.0248C249.924 69.4601 249.675 69.8176 249.238 70.0974C248.864 70.315 248.427 70.3927 247.928 70.3305C247.46 70.2373 247.055 70.0041 246.712 69.631C245.932 68.7295 245.027 68.0766 243.998 67.6725C242.968 67.2373 241.783 67.0196 240.442 67.0196C238.726 67.0196 237.354 67.3772 236.324 68.0922C235.295 68.7761 234.78 69.6466 234.78 70.7036C234.78 71.4186 234.967 72.0404 235.342 72.5689C235.747 73.0974 236.418 73.5637 237.354 73.9678C238.321 74.372 239.662 74.7139 241.378 74.9937C243.717 75.3668 245.557 75.9264 246.899 76.6725C248.271 77.3875 249.238 78.2424 249.8 79.2372C250.392 80.201 250.689 81.258 250.689 82.4082C250.689 83.8694 250.252 85.1595 249.379 86.2787C248.536 87.3668 247.351 88.2217 245.823 88.8434C244.325 89.4652 242.594 89.7761 240.629 89.7761Z" fill="#003FB1"/>
<path d="M268.939 89.7761C266.506 89.7761 264.307 89.2165 262.342 88.0973C260.408 86.9782 258.864 85.4549 257.71 83.5274C256.587 81.5689 256.01 79.3771 255.979 76.9523V54.9419C255.979 54.3824 256.135 53.9471 256.447 53.6362C256.79 53.2943 257.242 53.1233 257.804 53.1233C258.334 53.1233 258.755 53.2943 259.067 53.6362C259.41 53.9471 259.582 54.3824 259.582 54.9419V68.6518C260.611 67.1906 261.968 66.0248 263.652 65.1544C265.368 64.2528 267.271 63.802 269.36 63.802C271.762 63.802 273.915 64.3772 275.817 65.5274C277.72 66.6466 279.217 68.1854 280.309 70.144C281.432 72.1025 281.994 74.3098 281.994 76.7657C281.994 79.2528 281.416 81.4756 280.262 83.4341C279.139 85.3927 277.595 86.9471 275.63 88.0973C273.665 89.2165 271.435 89.7761 268.939 89.7761ZM268.939 86.5118C270.749 86.5118 272.371 86.0922 273.805 85.2528C275.24 84.3823 276.363 83.2165 277.174 81.7554C278.016 80.2942 278.438 78.631 278.438 76.7657C278.438 74.9316 278.016 73.2839 277.174 71.8227C276.363 70.3305 275.24 69.1647 273.805 68.3253C272.371 67.486 270.749 67.0663 268.939 67.0663C267.161 67.0663 265.555 67.486 264.12 68.3253C262.685 69.1647 261.562 70.3305 260.751 71.8227C259.94 73.2839 259.535 74.9316 259.535 76.7657C259.535 78.631 259.94 80.2942 260.751 81.7554C261.562 83.2165 262.685 84.3823 264.12 85.2528C265.555 86.0922 267.161 86.5118 268.939 86.5118Z" fill="#003FB1"/>
<path d="M299.775 89.7761C297.279 89.7761 295.049 89.2165 293.084 88.0973C291.119 86.9782 289.575 85.4393 288.452 83.4808C287.329 81.5222 286.768 79.2994 286.768 76.8124C286.768 74.2942 287.329 72.0559 288.452 70.0974C289.575 68.1388 291.119 66.6 293.084 65.4808C295.049 64.3616 297.279 63.802 299.775 63.802C302.27 63.802 304.485 64.3616 306.419 65.4808C308.384 66.6 309.928 68.1388 311.051 70.0974C312.174 72.0559 312.751 74.2942 312.782 76.8124C312.782 79.2994 312.205 81.5222 311.051 83.4808C309.928 85.4393 308.384 86.9782 306.419 88.0973C304.485 89.2165 302.27 89.7761 299.775 89.7761ZM299.775 86.5118C301.584 86.5118 303.206 86.0922 304.641 85.2528C306.076 84.4134 307.199 83.2631 308.01 81.802C308.821 80.3409 309.226 78.6777 309.226 76.8124C309.226 74.9471 308.821 73.2839 308.01 71.8227C307.199 70.3305 306.076 69.1647 304.641 68.3253C303.206 67.486 301.584 67.0663 299.775 67.0663C297.966 67.0663 296.344 67.486 294.909 68.3253C293.474 69.1647 292.335 70.3305 291.493 71.8227C290.682 73.2839 290.277 74.9471 290.277 76.8124C290.277 78.6777 290.682 80.3409 291.493 81.802C292.335 83.2631 293.474 84.4134 294.909 85.2528C296.344 86.0922 297.966 86.5118 299.775 86.5118Z" fill="#003FB1"/>
<path d="M334.397 89.5429C334.022 89.5429 333.71 89.4808 333.461 89.3564C333.243 89.232 333.009 89.0144 332.759 88.7036L324.665 78.4445L323.261 77.2321L315.12 66.9264C314.776 66.5222 314.605 66.1025 314.605 65.6673C314.636 65.2321 314.792 64.859 315.073 64.5481C315.353 64.2062 315.759 64.0352 316.289 64.0352C316.82 64.0352 317.272 64.2217 317.646 64.5948L325.507 74.6207L326.77 75.6466L335.473 86.745C335.878 87.2424 336.05 87.7087 335.988 88.144C335.925 88.5792 335.722 88.9212 335.379 89.1699C335.067 89.4186 334.74 89.5429 334.397 89.5429ZM315.868 89.5429C315.369 89.5429 314.964 89.3875 314.652 89.0766C314.371 88.7657 314.215 88.3927 314.184 87.9574C314.184 87.5222 314.355 87.1025 314.698 86.6984L323.308 75.973L325.32 78.631L317.131 88.9833C316.851 89.3564 316.43 89.5429 315.868 89.5429ZM326.817 77.4186L324.524 75.087L332.619 64.8746C332.837 64.5637 333.071 64.3461 333.321 64.2217C333.601 64.0974 333.882 64.0352 334.163 64.0352C334.693 64.0352 335.099 64.2062 335.379 64.5481C335.66 64.859 335.785 65.2476 335.754 65.7139C335.754 66.1492 335.598 66.5689 335.286 66.973L326.817 77.4186Z" fill="#003FB1"/>
<path d="M120.502 116.596C119.374 116.596 118.353 116.336 117.442 115.816C116.545 115.295 115.828 114.587 115.293 113.691C114.772 112.78 114.504 111.761 114.49 110.634V100.4C114.49 100.14 114.562 99.9375 114.707 99.793C114.866 99.634 115.076 99.5545 115.336 99.5545C115.582 99.5545 115.778 99.634 115.922 99.793C116.081 99.9375 116.161 100.14 116.161 100.4V106.774C116.639 106.095 117.268 105.553 118.05 105.148C118.845 104.729 119.728 104.52 120.698 104.52C121.812 104.52 122.811 104.787 123.693 105.322C124.576 105.842 125.271 106.558 125.777 107.468C126.298 108.379 126.559 109.405 126.559 110.547C126.559 111.703 126.291 112.737 125.755 113.648C125.234 114.558 124.518 115.281 123.606 115.816C122.695 116.336 121.66 116.596 120.502 116.596ZM120.502 115.079C121.342 115.079 122.094 114.883 122.76 114.493C123.426 114.088 123.947 113.546 124.323 112.867C124.713 112.188 124.909 111.414 124.909 110.547C124.909 109.694 124.713 108.928 124.323 108.249C123.947 107.555 123.426 107.013 122.76 106.623C122.094 106.232 121.342 106.037 120.502 106.037C119.678 106.037 118.932 106.232 118.267 106.623C117.601 107.013 117.08 107.555 116.704 108.249C116.327 108.928 116.139 109.694 116.139 110.547C116.139 111.414 116.327 112.188 116.704 112.867C117.08 113.546 117.601 114.088 118.267 114.493C118.932 114.883 119.678 115.079 120.502 115.079Z" fill="#3DACFC"/>
<path d="M130.786 121.648C130.67 121.648 130.54 121.619 130.395 121.561C129.903 121.345 129.766 120.998 129.983 120.521L136.994 105.083C137.211 104.621 137.559 104.491 138.036 104.693C138.528 104.895 138.666 105.235 138.449 105.712L131.416 121.149C131.271 121.482 131.061 121.648 130.786 121.648ZM133.196 116.119C132.978 116.22 132.776 116.242 132.588 116.184C132.4 116.112 132.248 115.967 132.132 115.751L127.291 105.734C127.19 105.517 127.176 105.315 127.248 105.127C127.32 104.939 127.465 104.794 127.682 104.693C127.899 104.592 128.102 104.577 128.29 104.65C128.478 104.707 128.623 104.845 128.724 105.062L133.478 115.079C133.593 115.295 133.63 115.498 133.586 115.686C133.543 115.874 133.413 116.018 133.196 116.119Z" fill="#3DACFC"/>
<path d="M153.965 116.705C152.793 116.705 151.693 116.481 150.666 116.033C149.653 115.584 148.755 114.963 147.974 114.168C147.207 113.358 146.606 112.433 146.172 111.393C145.738 110.337 145.521 109.21 145.521 108.01C145.521 106.825 145.731 105.712 146.151 104.671C146.585 103.616 147.185 102.691 147.952 101.896C148.734 101.101 149.631 100.48 150.644 100.031C151.671 99.5689 152.778 99.3376 153.965 99.3376C155.007 99.3376 155.955 99.4894 156.808 99.793C157.662 100.097 158.487 100.581 159.283 101.246C159.413 101.347 159.486 101.47 159.5 101.614C159.529 101.744 159.515 101.874 159.457 102.004C159.399 102.12 159.312 102.207 159.196 102.265C159.167 102.38 159.095 102.467 158.979 102.525C158.863 102.583 158.726 102.604 158.567 102.59C158.422 102.575 158.277 102.51 158.133 102.395C157.568 101.903 156.953 101.542 156.288 101.311C155.622 101.065 154.848 100.942 153.965 100.942C153.024 100.942 152.142 101.13 151.317 101.506C150.506 101.882 149.79 102.395 149.168 103.045C148.545 103.696 148.053 104.447 147.692 105.3C147.344 106.153 147.171 107.056 147.171 108.01C147.171 108.993 147.344 109.911 147.692 110.764C148.053 111.617 148.545 112.368 149.168 113.019C149.79 113.669 150.506 114.182 151.317 114.558C152.142 114.92 153.024 115.1 153.965 115.1C154.761 115.1 155.513 114.97 156.222 114.71C156.932 114.45 157.604 114.074 158.241 113.582C158.415 113.438 158.596 113.38 158.784 113.409C158.986 113.438 159.16 113.525 159.305 113.669C159.449 113.814 159.522 114.002 159.522 114.233C159.522 114.349 159.5 114.457 159.457 114.558C159.428 114.645 159.37 114.739 159.283 114.84C158.545 115.519 157.72 116.004 156.808 116.293C155.897 116.567 154.949 116.705 153.965 116.705Z" fill="#3DACFC"/>
<path d="M166.892 116.596C165.734 116.596 164.7 116.336 163.788 115.816C162.876 115.295 162.16 114.58 161.639 113.669C161.118 112.759 160.858 111.725 160.858 110.569C160.858 109.398 161.118 108.357 161.639 107.447C162.16 106.536 162.876 105.82 163.788 105.3C164.7 104.78 165.734 104.52 166.892 104.52C168.05 104.52 169.077 104.78 169.974 105.3C170.886 105.82 171.602 106.536 172.123 107.447C172.644 108.357 172.912 109.398 172.927 110.569C172.927 111.725 172.659 112.759 172.123 113.669C171.602 114.58 170.886 115.295 169.974 115.816C169.077 116.336 168.05 116.596 166.892 116.596ZM166.892 115.079C167.731 115.079 168.484 114.883 169.15 114.493C169.815 114.103 170.336 113.568 170.712 112.889C171.089 112.209 171.277 111.436 171.277 110.569C171.277 109.701 171.089 108.928 170.712 108.249C170.336 107.555 169.815 107.013 169.15 106.623C168.484 106.232 167.731 106.037 166.892 106.037C166.053 106.037 165.3 106.232 164.635 106.623C163.969 107.013 163.441 107.555 163.05 108.249C162.674 108.928 162.486 109.701 162.486 110.569C162.486 111.436 162.674 112.209 163.05 112.889C163.441 113.568 163.969 114.103 164.635 114.493C165.3 114.883 166.053 115.079 166.892 115.079Z" fill="#3DACFC"/>
<path d="M178.305 116.488C177.726 116.488 177.205 116.329 176.742 116.011C176.293 115.693 175.939 115.252 175.678 114.688C175.432 114.125 175.309 113.474 175.309 112.737V100.378C175.309 100.133 175.381 99.9375 175.526 99.793C175.685 99.634 175.888 99.5545 176.134 99.5545C176.38 99.5545 176.575 99.634 176.72 99.793C176.879 99.9375 176.959 100.133 176.959 100.378V112.737C176.959 113.358 177.082 113.864 177.328 114.255C177.588 114.645 177.914 114.84 178.305 114.84H178.847C179.064 114.84 179.238 114.92 179.368 115.079C179.498 115.223 179.564 115.418 179.564 115.664C179.564 115.91 179.469 116.112 179.281 116.271C179.108 116.416 178.876 116.488 178.587 116.488H178.305Z" fill="#3DACFC"/>
<path d="M186.161 116.596C184.989 116.596 183.947 116.343 183.036 115.837C182.138 115.317 181.429 114.602 180.908 113.691C180.402 112.78 180.149 111.74 180.149 110.569C180.149 109.383 180.387 108.343 180.865 107.447C181.357 106.536 182.03 105.82 182.884 105.3C183.737 104.78 184.721 104.52 185.836 104.52C186.936 104.52 187.891 104.773 188.701 105.278C189.526 105.77 190.163 106.456 190.611 107.338C191.06 108.22 191.284 109.224 191.284 110.352C191.284 110.583 191.212 110.771 191.067 110.916C190.922 111.046 190.734 111.111 190.503 111.111H181.277V109.723H190.676L189.743 110.395C189.757 109.557 189.605 108.805 189.287 108.14C188.969 107.475 188.513 106.955 187.92 106.579C187.341 106.203 186.646 106.016 185.836 106.016C185.011 106.016 184.287 106.211 183.665 106.601C183.043 106.991 182.558 107.533 182.211 108.227C181.878 108.906 181.711 109.687 181.711 110.569C181.711 111.45 181.9 112.231 182.276 112.91C182.667 113.59 183.195 114.125 183.86 114.515C184.526 114.905 185.293 115.1 186.161 115.1C186.682 115.1 187.203 115.013 187.724 114.84C188.26 114.652 188.687 114.421 189.005 114.146C189.164 114.016 189.345 113.951 189.548 113.951C189.75 113.937 189.924 113.987 190.069 114.103C190.257 114.276 190.351 114.464 190.351 114.667C190.365 114.869 190.286 115.042 190.112 115.187C189.634 115.592 189.027 115.931 188.289 116.206C187.551 116.466 186.841 116.596 186.161 116.596Z" fill="#3DACFC"/>
<path d="M209.719 116.488C209.473 116.488 209.27 116.416 209.111 116.271C208.952 116.112 208.872 115.91 208.872 115.664V109.42C208.872 108.393 208.604 107.584 208.069 106.991C207.534 106.384 206.846 106.081 206.007 106.081C205.11 106.081 204.372 106.384 203.793 106.991C203.228 107.584 202.953 108.379 202.968 109.376H201.47C201.485 108.408 201.694 107.555 202.1 106.818C202.505 106.081 203.062 105.51 203.771 105.105C204.48 104.7 205.283 104.498 206.181 104.498C207.034 104.498 207.787 104.7 208.438 105.105C209.104 105.51 209.617 106.081 209.979 106.818C210.355 107.555 210.544 108.422 210.544 109.42V115.664C210.544 115.91 210.464 116.112 210.305 116.271C210.16 116.416 209.965 116.488 209.719 116.488ZM194.524 116.488C194.264 116.488 194.054 116.416 193.895 116.271C193.75 116.112 193.677 115.91 193.677 115.664V105.474C193.677 105.228 193.75 105.025 193.895 104.866C194.054 104.707 194.264 104.628 194.524 104.628C194.77 104.628 194.965 104.707 195.11 104.866C195.269 105.025 195.349 105.228 195.349 105.474V115.664C195.349 115.91 195.269 116.112 195.11 116.271C194.965 116.416 194.77 116.488 194.524 116.488ZM202.143 116.488C201.897 116.488 201.694 116.416 201.535 116.271C201.376 116.112 201.297 115.91 201.297 115.664V109.42C201.297 108.393 201.029 107.584 200.493 106.991C199.958 106.384 199.271 106.081 198.431 106.081C197.534 106.081 196.796 106.377 196.217 106.97C195.638 107.548 195.349 108.307 195.349 109.246H194.155C194.184 108.321 194.387 107.504 194.763 106.796C195.154 106.073 195.682 105.51 196.347 105.105C197.013 104.7 197.766 104.498 198.605 104.498C199.459 104.498 200.211 104.7 200.862 105.105C201.528 105.51 202.042 106.081 202.404 106.818C202.78 107.555 202.968 108.422 202.968 109.42V115.664C202.968 115.91 202.888 116.112 202.729 116.271C202.584 116.416 202.389 116.488 202.143 116.488Z" fill="#3DACFC"/>
<path d="M219.037 116.596C217.922 116.596 216.924 116.336 216.041 115.816C215.158 115.281 214.457 114.558 213.936 113.648C213.429 112.737 213.176 111.711 213.176 110.569C213.176 109.412 213.436 108.379 213.957 107.468C214.493 106.558 215.216 105.842 216.128 105.322C217.04 104.787 218.067 104.52 219.21 104.52C220.354 104.52 221.374 104.787 222.271 105.322C223.183 105.842 223.899 106.558 224.42 107.468C224.955 108.379 225.23 109.412 225.245 110.569L224.572 111.089C224.572 112.13 224.326 113.069 223.834 113.908C223.356 114.732 222.698 115.389 221.859 115.881C221.034 116.358 220.093 116.596 219.037 116.596ZM219.21 115.079C220.05 115.079 220.795 114.883 221.446 114.493C222.112 114.103 222.633 113.568 223.009 112.889C223.4 112.195 223.595 111.422 223.595 110.569C223.595 109.701 223.4 108.928 223.009 108.249C222.633 107.569 222.112 107.035 221.446 106.644C220.795 106.24 220.05 106.037 219.21 106.037C218.385 106.037 217.64 106.24 216.974 106.644C216.309 107.035 215.781 107.569 215.39 108.249C214.999 108.928 214.804 109.701 214.804 110.569C214.804 111.422 214.999 112.195 215.39 112.889C215.781 113.568 216.309 114.103 216.974 114.493C217.64 114.883 218.385 115.079 219.21 115.079ZM224.398 116.488C224.152 116.488 223.95 116.416 223.79 116.271C223.631 116.112 223.552 115.91 223.552 115.664V111.956L223.964 110.244L225.245 110.569V115.664C225.245 115.91 225.165 116.112 225.006 116.271C224.847 116.416 224.644 116.488 224.398 116.488Z" fill="#3DACFC"/>
<path d="M238.242 116.488C237.996 116.488 237.793 116.408 237.634 116.249C237.475 116.09 237.395 115.895 237.395 115.664V110.027C237.395 109.131 237.222 108.393 236.874 107.815C236.541 107.237 236.078 106.803 235.485 106.514C234.906 106.225 234.248 106.081 233.51 106.081C232.801 106.081 232.157 106.218 231.578 106.493C231.013 106.767 230.565 107.143 230.232 107.62C229.899 108.097 229.733 108.639 229.733 109.246H228.539C228.568 108.336 228.814 107.526 229.277 106.818C229.74 106.095 230.355 105.531 231.122 105.127C231.889 104.707 232.743 104.498 233.683 104.498C234.711 104.498 235.63 104.715 236.44 105.148C237.251 105.568 237.887 106.189 238.35 107.013C238.828 107.837 239.067 108.841 239.067 110.027V115.664C239.067 115.895 238.987 116.09 238.828 116.249C238.669 116.408 238.473 116.488 238.242 116.488ZM228.908 116.488C228.647 116.488 228.438 116.416 228.278 116.271C228.134 116.112 228.061 115.91 228.061 115.664V105.474C228.061 105.213 228.134 105.011 228.278 104.866C228.438 104.707 228.647 104.628 228.908 104.628C229.154 104.628 229.349 104.707 229.494 104.866C229.653 105.011 229.733 105.213 229.733 105.474V115.664C229.733 115.91 229.653 116.112 229.494 116.271C229.349 116.416 229.154 116.488 228.908 116.488Z" fill="#3DACFC"/>
<path d="M256.079 116.705C254.907 116.705 253.807 116.481 252.779 116.033C251.766 115.584 250.869 114.963 250.088 114.168C249.321 113.358 248.72 112.433 248.286 111.393C247.852 110.337 247.635 109.21 247.635 108.01C247.635 106.825 247.845 105.712 248.264 104.671C248.698 103.616 249.299 102.691 250.066 101.896C250.847 101.101 251.745 100.48 252.758 100.031C253.785 99.5689 254.892 99.3376 256.079 99.3376C257.121 99.3376 258.069 99.4894 258.922 99.793C259.776 100.097 260.601 100.581 261.397 101.246C261.527 101.347 261.599 101.47 261.614 101.614C261.643 101.744 261.628 101.874 261.571 102.004C261.513 102.12 261.426 102.207 261.31 102.265C261.281 102.38 261.209 102.467 261.093 102.525C260.977 102.583 260.84 102.604 260.681 102.59C260.536 102.575 260.391 102.51 260.246 102.395C259.682 101.903 259.067 101.542 258.401 101.311C257.736 101.065 256.961 100.942 256.079 100.942C255.138 100.942 254.255 101.13 253.431 101.506C252.62 101.882 251.904 102.395 251.282 103.045C250.659 103.696 250.167 104.447 249.806 105.3C249.458 106.153 249.285 107.056 249.285 108.01C249.285 108.993 249.458 109.911 249.806 110.764C250.167 111.617 250.659 112.368 251.282 113.019C251.904 113.669 252.62 114.182 253.431 114.558C254.255 114.92 255.138 115.1 256.079 115.1C256.875 115.1 257.627 114.97 258.336 114.71C259.045 114.45 259.718 114.074 260.355 113.582C260.529 113.438 260.709 113.38 260.898 113.409C261.1 113.438 261.274 113.525 261.419 113.669C261.563 113.814 261.636 114.002 261.636 114.233C261.636 114.349 261.621 114.457 261.592 114.558C261.563 114.645 261.498 114.739 261.397 114.84C260.659 115.519 259.834 116.004 258.922 116.293C258.011 116.567 257.063 116.705 256.079 116.705ZM261.636 114.233L259.986 113.886V109.528H256.6C256.354 109.528 256.151 109.456 255.992 109.311C255.833 109.167 255.753 108.986 255.753 108.769C255.753 108.552 255.833 108.379 255.992 108.249C256.151 108.104 256.354 108.032 256.6 108.032H260.789C261.035 108.032 261.238 108.111 261.397 108.27C261.556 108.415 261.636 108.61 261.636 108.856V114.233Z" fill="#3DACFC"/>
<path d="M265.165 109.181C265.208 108.285 265.44 107.483 265.859 106.774C266.293 106.066 266.851 105.51 267.531 105.105C268.225 104.7 268.992 104.498 269.832 104.498C270.497 104.498 271.011 104.592 271.373 104.78C271.735 104.968 271.872 105.242 271.785 105.604C271.727 105.82 271.626 105.965 271.481 106.037C271.351 106.11 271.185 106.138 270.982 106.124C270.794 106.11 270.577 106.095 270.331 106.081C269.52 106.008 268.797 106.095 268.16 106.341C267.538 106.572 267.039 106.933 266.662 107.425C266.301 107.916 266.12 108.502 266.12 109.181H265.165ZM265.295 116.488C265.034 116.488 264.832 116.416 264.687 116.271C264.542 116.126 264.47 115.924 264.47 115.664V105.452C264.47 105.192 264.542 104.989 264.687 104.845C264.832 104.7 265.034 104.628 265.295 104.628C265.555 104.628 265.758 104.7 265.903 104.845C266.047 104.989 266.12 105.192 266.12 105.452V115.664C266.12 115.924 266.047 116.126 265.903 116.271C265.758 116.416 265.555 116.488 265.295 116.488Z" fill="#3DACFC"/>
<path d="M278.514 116.596C277.356 116.596 276.321 116.336 275.41 115.816C274.498 115.295 273.782 114.58 273.261 113.669C272.74 112.759 272.479 111.725 272.479 110.569C272.479 109.398 272.74 108.357 273.261 107.447C273.782 106.536 274.498 105.82 275.41 105.3C276.321 104.78 277.356 104.52 278.514 104.52C279.671 104.52 280.699 104.78 281.596 105.3C282.508 105.82 283.224 106.536 283.745 107.447C284.266 108.357 284.534 109.398 284.548 110.569C284.548 111.725 284.28 112.759 283.745 113.669C283.224 114.58 282.508 115.295 281.596 115.816C280.699 116.336 279.671 116.596 278.514 116.596ZM278.514 115.079C279.353 115.079 280.105 114.883 280.771 114.493C281.437 114.103 281.958 113.568 282.334 112.889C282.71 112.209 282.898 111.436 282.898 110.569C282.898 109.701 282.71 108.928 282.334 108.249C281.958 107.555 281.437 107.013 280.771 106.623C280.105 106.232 279.353 106.037 278.514 106.037C277.674 106.037 276.922 106.232 276.256 106.623C275.59 107.013 275.062 107.555 274.672 108.249C274.295 108.928 274.107 109.701 274.107 110.569C274.107 111.436 274.295 112.209 274.672 112.889C275.062 113.568 275.59 114.103 276.256 114.493C276.922 114.883 277.674 115.079 278.514 115.079Z" fill="#3DACFC"/>
<path d="M292.531 116.618C291.503 116.618 290.584 116.408 289.774 115.989C288.964 115.556 288.32 114.927 287.842 114.103C287.379 113.279 287.148 112.274 287.148 111.089V105.452C287.148 105.221 287.227 105.025 287.386 104.866C287.546 104.707 287.741 104.628 287.972 104.628C288.218 104.628 288.421 104.707 288.58 104.866C288.739 105.025 288.819 105.221 288.819 105.452V111.089C288.819 111.985 288.985 112.722 289.318 113.301C289.666 113.879 290.129 114.312 290.708 114.602C291.301 114.891 291.966 115.035 292.705 115.035C293.414 115.035 294.05 114.898 294.615 114.623C295.194 114.349 295.649 113.973 295.982 113.496C296.315 113.019 296.481 112.477 296.481 111.87H297.675C297.632 112.78 297.379 113.597 296.916 114.32C296.467 115.028 295.859 115.592 295.092 116.011C294.325 116.416 293.471 116.618 292.531 116.618ZM297.306 116.488C297.06 116.488 296.858 116.416 296.699 116.271C296.554 116.112 296.481 115.902 296.481 115.642V105.452C296.481 105.206 296.554 105.011 296.699 104.866C296.858 104.707 297.06 104.628 297.306 104.628C297.552 104.628 297.755 104.707 297.914 104.866C298.073 105.011 298.153 105.206 298.153 105.452V115.642C298.153 115.902 298.073 116.112 297.914 116.271C297.755 116.416 297.552 116.488 297.306 116.488Z" fill="#3DACFC"/>
<path d="M302.467 121.561C302.207 121.561 301.997 121.482 301.838 121.323C301.693 121.178 301.621 120.976 301.621 120.716V110.482C301.635 109.355 301.903 108.343 302.424 107.447C302.959 106.536 303.676 105.82 304.573 105.3C305.485 104.78 306.505 104.52 307.633 104.52C308.791 104.52 309.826 104.787 310.738 105.322C311.649 105.842 312.366 106.558 312.886 107.468C313.422 108.379 313.69 109.412 313.69 110.569C313.69 111.711 313.429 112.737 312.908 113.648C312.402 114.558 311.707 115.281 310.824 115.816C309.942 116.336 308.943 116.596 307.829 116.596C306.859 116.596 305.977 116.394 305.181 115.989C304.399 115.57 303.77 115.021 303.292 114.341V120.716C303.292 120.976 303.213 121.178 303.053 121.323C302.909 121.482 302.713 121.561 302.467 121.561ZM307.633 115.079C308.473 115.079 309.225 114.883 309.891 114.493C310.557 114.103 311.078 113.568 311.454 112.889C311.845 112.195 312.04 111.422 312.04 110.569C312.04 109.701 311.845 108.928 311.454 108.249C311.078 107.569 310.557 107.035 309.891 106.644C309.225 106.24 308.473 106.037 307.633 106.037C306.809 106.037 306.063 106.24 305.398 106.644C304.732 107.035 304.211 107.569 303.835 108.249C303.459 108.928 303.27 109.701 303.27 110.569C303.27 111.422 303.459 112.195 303.835 112.889C304.211 113.568 304.732 114.103 305.398 114.493C306.063 114.883 306.809 115.079 307.633 115.079Z" fill="#3DACFC"/>
</svg>
