<svg width="340" height="161" viewBox="0 0 340 161" fill="none" xmlns="http://www.w3.org/2000/svg">
<path fill-rule="evenodd" clip-rule="evenodd" d="M4 24.6396C2.89543 24.6396 2 25.5351 2 26.6397V134.576C2 135.681 2.89543 136.576 4 136.576H111.936C113.041 136.576 113.936 135.681 113.936 134.576V26.6396C113.936 25.5351 113.041 24.6396 111.936 24.6396H4ZM23.369 80.7185C23.369 55.8244 42.1944 35.277 66.5047 32.3744H105.396C105.948 32.3744 106.396 32.8222 106.396 33.3744V127.363C106.396 127.916 105.948 128.363 105.396 128.363H62.2429C40.0291 123.709 23.369 104.137 23.369 80.7185ZM19.8657 80.7185C19.8657 58.8612 33.3888 40.1526 52.5684 32.3744H11.4068C10.8545 32.3744 10.4068 32.8222 10.4068 33.3744V127.363C10.4068 127.916 10.8545 128.363 11.4068 128.363H50.9251C32.6209 120.204 19.8657 101.946 19.8657 80.7185ZM46.8386 51.6938C47.806 51.6938 48.5902 52.4781 48.5902 53.4455L48.5904 103.49H76.9665C76.9823 103.49 76.9981 103.49 77.0138 103.491H83.6954C85.8706 103.491 87.9366 102.398 89.501 100.577C91.068 98.7536 92.0331 96.3017 92.0331 93.8336V92.0785C92.0331 89.6104 91.068 87.1585 89.501 85.3346C87.9366 83.5137 85.8706 82.4216 83.6954 82.4216H74.8672C69.1864 82.4216 64.7078 77.6368 64.7078 71.8941V70.5778C64.7078 64.8351 69.1864 60.0504 74.8672 60.0504H85.377C86.3444 60.0504 87.1286 60.8346 87.1286 61.802C87.1286 62.7694 86.3444 63.5536 85.377 63.5536H74.8672C71.2611 63.5536 68.2111 66.6269 68.2111 70.5778V71.8941C68.2111 75.845 71.2611 78.9183 74.8672 78.9183H83.6954C87.0923 78.9183 90.0711 80.6223 92.1582 83.0517C94.2429 85.4781 95.5364 88.7304 95.5364 92.0785V93.8336C95.5364 97.1816 94.2429 100.434 92.1582 102.86C90.0711 105.29 87.0923 106.994 83.6954 106.994H66.8798C66.864 106.994 66.8483 106.994 66.8326 106.993H47.5394C46.1851 106.993 45.0872 105.895 45.0872 104.541L45.087 53.4455C45.087 52.4781 45.8712 51.6938 46.8386 51.6938Z" fill="#151515"/>
<path fill-rule="evenodd" clip-rule="evenodd" d="M143.97 116.01C143.97 111.82 147.944 109.072 151.959 109.072H160.527V113.295H151.959C149.524 113.295 148.226 114.849 148.226 116.01V116.734C148.226 117.894 149.524 119.449 151.959 119.449H158.113C163.012 119.449 167.274 123.316 167.274 127.834V128.8C167.274 133.318 163.012 137.185 158.113 137.185H143.999V132.963H158.113C160.975 132.963 163.018 130.685 163.018 128.8V127.834C163.018 125.949 160.975 123.671 158.113 123.671H151.959C147.944 123.671 143.97 120.923 143.97 116.734V116.01Z" fill="#151515"/>
<path fill-rule="evenodd" clip-rule="evenodd" d="M313.501 116.01C313.501 111.82 317.475 109.072 321.49 109.072H330.059V113.295H321.49C319.055 113.295 317.758 114.849 317.758 116.01V116.734C317.758 117.894 319.055 119.449 321.49 119.449H327.644C332.543 119.449 336.806 123.316 336.806 127.834V128.8C336.806 133.318 332.543 137.185 327.644 137.185H313.53V132.963H327.644C330.507 132.963 332.549 130.685 332.549 128.8V127.834C332.549 125.949 330.507 123.671 327.644 123.671H321.49C317.475 123.671 313.501 120.923 313.501 116.734V116.01Z" fill="#151515"/>
<path fill-rule="evenodd" clip-rule="evenodd" d="M192.922 132.915V137.185H173.971C172.452 137.185 171.221 135.954 171.221 134.435V111.822C171.221 110.303 172.452 109.072 173.971 109.072H192.551V113.342H175.709V120.672H190.58V124.943H175.709V132.915H192.922Z" fill="#151515"/>
<path fill-rule="evenodd" clip-rule="evenodd" d="M310.26 132.915V137.185H291.309C289.79 137.185 288.559 135.954 288.559 134.435V111.822C288.559 110.303 289.79 109.072 291.309 109.072H309.888V113.342H293.047V120.672H307.918V124.943H293.047V132.915H310.26Z" fill="#151515"/>
<path fill-rule="evenodd" clip-rule="evenodd" d="M215.205 137.185L206.387 127.55H201.501V137.185H196.873V111.822C196.873 110.303 198.104 109.072 199.623 109.072H208.14C211.756 109.072 214.671 109.821 216.77 111.434C218.927 113.072 219.984 115.41 219.984 118.33C219.984 120.891 219.157 123.013 217.45 124.604C216.098 125.884 214.297 126.729 212.103 127.182L221.23 137.185H215.205ZM201.501 123.279H208.024C210.673 123.279 212.512 122.809 213.668 121.995C214.772 121.219 215.356 120.058 215.356 118.367C215.356 116.653 214.76 115.465 213.628 114.663C212.44 113.821 210.624 113.342 208.063 113.342H201.501V123.279Z" fill="#151515"/>
<path fill-rule="evenodd" clip-rule="evenodd" d="M220.471 109.072H225.384L234.978 130.862L244.571 109.072H249.484L237.338 136.313C237.101 136.844 236.575 137.185 235.994 137.185H233.961C233.38 137.185 232.854 136.844 232.617 136.313L220.471 109.072Z" fill="#151515"/>
<path fill-rule="evenodd" clip-rule="evenodd" d="M256.646 137.185H252.177V109.072H256.646V137.185Z" fill="#151515"/>
<path fill-rule="evenodd" clip-rule="evenodd" d="M150.414 51.0268C148.169 49.7454 146.389 48.0034 145.087 45.8083L145.083 45.8017C143.803 43.5975 143.168 41.1429 143.168 38.4576C143.168 35.7722 143.803 33.3177 145.083 31.1134C146.359 28.9161 148.115 27.1835 150.339 25.9253C152.593 24.6389 155.088 24 157.806 24C159.544 24 161.175 24.2332 162.694 24.707L163.278 24.8892V29.6094L162.121 29.1167C160.94 28.6141 159.534 28.3504 157.883 28.3504C156.002 28.3504 154.306 28.7949 152.778 29.676C151.272 30.5593 150.086 31.7633 149.212 33.3001C148.366 34.8337 147.938 36.5346 147.938 38.4197C147.938 40.3839 148.38 42.12 149.248 43.6487C150.121 45.1861 151.307 46.3906 152.812 47.2745C154.342 48.1325 156.027 48.5647 157.883 48.5647C160.942 48.5647 163.475 47.5244 165.537 45.4424L166.116 44.8586L169.212 47.8535L168.653 48.4507C167.318 49.8758 165.724 50.9767 163.881 51.7523C162.032 52.5306 160.029 52.9151 157.883 52.9151C155.168 52.9151 152.674 52.2901 150.421 51.0305L150.414 51.0268Z" fill="#151515"/>
<path fill-rule="evenodd" clip-rule="evenodd" d="M267.019 135.459C264.774 134.178 262.994 132.435 261.692 130.24L261.688 130.234C260.408 128.03 259.773 125.575 259.773 122.89C259.773 120.204 260.408 117.75 261.688 115.546C262.964 113.348 264.72 111.616 266.944 110.357C269.198 109.071 271.693 108.432 274.411 108.432C276.149 108.432 277.78 108.665 279.299 109.139L279.883 109.321V114.041L278.726 113.549C277.546 113.046 276.139 112.783 274.488 112.783C272.607 112.783 270.912 113.227 269.383 114.108C267.877 114.991 266.691 116.195 265.817 117.732C264.971 119.266 264.543 120.967 264.543 122.852C264.543 124.816 264.985 126.552 265.853 128.081C266.727 129.618 267.912 130.823 269.418 131.707C270.948 132.565 272.632 132.997 274.488 132.997C277.547 132.997 280.08 131.957 282.143 129.875L282.721 129.291L285.817 132.286L285.258 132.883C283.923 134.308 282.329 135.409 280.486 136.184C278.637 136.963 276.635 137.347 274.488 137.347C271.773 137.347 269.28 136.722 267.026 135.463L267.019 135.459Z" fill="#151515"/>
<path fill-rule="evenodd" clip-rule="evenodd" d="M221.811 52.7532H205.103C203.231 52.7532 201.713 51.2355 201.713 49.3632V24.6396H206.285V48.4829H221.811V52.7532Z" fill="#151515"/>
<path fill-rule="evenodd" clip-rule="evenodd" d="M245.792 48.4829V52.7532H226.841C225.322 52.7532 224.09 51.5218 224.09 50.0028V27.3901C224.09 25.8711 225.322 24.6396 226.841 24.6396H245.42V28.91H228.579V36.2401H243.449V40.5104H228.579V48.4829H245.792Z" fill="#151515"/>
<path fill-rule="evenodd" clip-rule="evenodd" d="M176.683 51.0654L176.677 51.0624C174.497 49.8022 172.777 48.0677 171.528 45.8707C170.274 43.665 169.655 41.187 169.655 38.4576C169.655 35.7281 170.274 33.2501 171.528 31.0444C172.778 28.8463 174.499 27.123 176.683 25.8875C178.896 24.6242 181.379 24 184.113 24C186.845 24 189.316 24.6234 191.506 25.8875C193.713 27.1221 195.447 28.845 196.698 31.0444C197.951 33.2501 198.571 35.7281 198.571 38.4576C198.571 41.187 197.951 43.665 196.698 45.8707C195.447 48.0703 193.713 49.805 191.507 51.0646L191.501 51.0684C189.288 52.3048 186.806 52.9151 184.075 52.9151C181.368 52.9151 178.899 52.3041 176.688 51.0684L176.683 51.0654ZM189.141 29.6402L189.137 29.6377C187.674 28.785 186.007 28.3504 184.113 28.3504C182.219 28.3504 180.552 28.785 179.089 29.6377L179.085 29.6402L179.08 29.6426C177.618 30.4718 176.477 31.6434 175.648 33.1757C174.82 34.7056 174.397 36.4593 174.397 38.4576C174.397 40.4548 174.82 42.2077 175.646 43.7371C176.475 45.2438 177.617 46.4187 179.085 47.275C180.548 48.1038 182.217 48.5269 184.113 48.5269C186.009 48.5269 187.678 48.1038 189.141 47.2749C190.609 46.4186 191.751 45.2438 192.58 43.7369C193.406 42.2076 193.829 40.4547 193.829 38.4576C193.829 36.4593 193.406 34.7056 192.578 33.1757C191.749 31.6434 190.608 30.4718 189.146 29.6426L189.141 29.6402Z" fill="#151515"/>
<path fill-rule="evenodd" clip-rule="evenodd" d="M311.181 52.7532H306.21L303.451 46.6696H288.988L286.229 52.7532H281.335L293.837 25.4974C294.077 24.9747 294.6 24.6396 295.175 24.6396H297.303C297.877 24.6396 298.399 24.974 298.639 25.4959L311.181 52.7532ZM290.956 42.3615H301.487L296.236 30.8023L290.956 42.3615Z" fill="#151515"/>
<path fill-rule="evenodd" clip-rule="evenodd" d="M318.447 52.7532H313.894V26.1108C313.894 25.2983 314.553 24.6396 315.365 24.6396H316.932C317.38 24.6396 317.803 24.8439 318.083 25.1944L333.41 44.4415V24.6396H338V51.2821C338 52.0946 337.341 52.7532 336.529 52.7532H335.037C334.589 52.7532 334.166 52.5493 333.887 52.1993L318.447 32.8356V52.7532Z" fill="#151515"/>
<path fill-rule="evenodd" clip-rule="evenodd" d="M278.657 52.7532H274.026V33.7096L265.649 46.9667C265.38 47.3934 264.91 47.6521 264.406 47.6521H264.031C263.527 47.6521 263.058 47.3943 262.788 46.9689L254.373 33.7004V52.7532H249.742V26.1108C249.742 25.2983 250.4 24.6396 251.213 24.6396H252.954C253.463 24.6396 253.936 24.9031 254.204 25.336L264.217 41.4987L274.194 25.338C274.461 24.9039 274.935 24.6396 275.445 24.6396H277.186C277.998 24.6396 278.657 25.2983 278.657 26.1108V52.7532Z" fill="#151515"/>
<path fill-rule="evenodd" clip-rule="evenodd" d="M164.068 94.3294H147.36C145.488 94.3294 143.97 92.8116 143.97 90.9393V66.2158H148.542V90.0591H164.068V94.3294Z" fill="#151515"/>
<path fill-rule="evenodd" clip-rule="evenodd" d="M269.038 94.3294H253.132C251.259 94.3294 249.742 92.8116 249.742 90.9393V66.2158H254.187V90.0591H269.038V94.3294Z" fill="#151515"/>
<path fill-rule="evenodd" clip-rule="evenodd" d="M188.88 90.0591V94.3294H169.93C168.41 94.3294 167.179 93.098 167.179 91.579V68.9663C167.179 67.4472 168.41 66.2158 169.93 66.2158H188.509V70.4861H171.668V77.8163H186.538V82.0866H171.668V90.0591H188.88Z" fill="#151515"/>
<path fill-rule="evenodd" clip-rule="evenodd" d="M247.056 94.3294H242.085L239.325 88.2458H224.862L222.103 94.3294H217.209L229.712 67.0736C229.952 66.5509 230.474 66.2158 231.049 66.2158H233.177C233.752 66.2158 234.273 66.5502 234.514 67.072L247.056 94.3294ZM226.83 83.9377H237.361L232.111 72.3785L226.83 83.9377Z" fill="#151515"/>
<path fill-rule="evenodd" clip-rule="evenodd" d="M198.138 92.5312C195.983 91.3086 194.287 89.6363 193.062 87.5224L193.06 87.5185C191.833 85.3734 191.227 82.9633 191.227 80.3094C191.227 77.6585 191.819 75.2509 193.02 73.1068L193.021 73.1039C194.243 70.9416 195.928 69.2521 198.066 68.0499C200.23 66.8221 202.659 66.2158 205.331 66.2158C207.288 66.2158 209.129 66.5642 210.847 67.2678C212.565 67.9466 214.099 68.9512 215.446 70.2749L216.05 70.8682L213.041 73.8225L212.459 73.2726C210.489 71.4119 208.152 70.4872 205.404 70.4872C203.557 70.4872 201.916 70.9085 200.463 71.7372L200.46 71.7393C199.034 72.5428 197.908 73.6784 197.076 75.1639C196.273 76.6421 195.86 78.3499 195.86 80.3094C195.86 82.271 196.274 83.9657 197.076 85.4176C197.881 86.8729 199.003 88.0104 200.457 88.841C201.932 89.6459 203.623 90.058 205.551 90.058C208.041 90.058 210.132 89.3437 211.869 87.932V79.2941H216.135V89.9157L215.886 90.1601C214.534 91.4889 212.949 92.5159 211.14 93.2411C209.327 93.9676 207.413 94.3294 205.404 94.3294C202.735 94.3294 200.308 93.7365 198.144 92.5349L198.138 92.5312Z" fill="#151515"/>
</svg>
