<svg width="474" height="161" viewBox="0 0 474 161" fill="none" xmlns="http://www.w3.org/2000/svg">
<path d="M0 105.131V55.6761H29.5101V60.9886H5.9597V77.6989H27.2992V83.0114H5.9597V105.131H0Z" fill="#151515"/>
<path d="M35.5899 105.131H29.3419L47.4132 55.6761H53.5652L71.6365 105.131H65.3884L50.6814 63.5H50.2969L35.5899 105.131ZM37.8969 85.8125H63.0814V91.125H37.8969V85.8125Z" fill="#151515"/>
<path d="M118.329 55.6761V105.131H112.561L85.7427 66.3011H85.2621V105.131H79.3024V55.6761H85.0698L111.985 94.6023H112.465V55.6761H118.329Z" fill="#151515"/>
<path d="M169.857 71.1307H163.898C163.545 69.4081 162.928 67.8949 162.047 66.5909C161.182 65.2869 160.125 64.1922 158.875 63.3068C157.642 62.4053 156.272 61.7292 154.766 61.2784C153.26 60.8277 151.69 60.6023 150.056 60.6023C147.076 60.6023 144.376 61.3589 141.957 62.8722C139.554 64.3854 137.64 66.6151 136.214 69.5611C134.804 72.5071 134.099 76.1212 134.099 80.4034C134.099 84.6856 134.804 88.2997 136.214 91.2457C137.64 94.1918 139.554 96.4214 141.957 97.9347C144.376 99.4479 147.076 100.205 150.056 100.205C151.69 100.205 153.26 99.9792 154.766 99.5284C156.272 99.0777 157.642 98.4096 158.875 97.5242C160.125 96.6226 161.182 95.5199 162.047 94.2159C162.928 92.8958 163.545 91.3826 163.898 89.6761H169.857C169.409 92.2036 168.592 94.4654 167.406 96.4617C166.221 98.4579 164.747 100.156 162.984 101.557C161.222 102.941 159.244 103.996 157.049 104.72C154.87 105.445 152.539 105.807 150.056 105.807C145.858 105.807 142.126 104.777 138.857 102.716C135.589 100.655 133.018 97.7254 131.143 93.9261C129.269 90.1269 128.332 85.6193 128.332 80.4034C128.332 75.1875 129.269 70.6799 131.143 66.8807C133.018 63.0814 135.589 60.1515 138.857 58.0909C142.126 56.0303 145.858 55 150.056 55C152.539 55 154.87 55.3622 157.049 56.0866C159.244 56.8111 161.222 57.8736 162.984 59.2741C164.747 60.6586 166.221 62.349 167.406 64.3452C168.592 66.3253 169.409 68.5871 169.857 71.1307Z" fill="#151515"/>
<path d="M185.447 55.6761V105.131H179.488V55.6761H185.447Z" fill="#151515"/>
<path d="M216.429 55.6761H223.543L240.268 96.7273H240.845L257.571 55.6761H264.684V105.131H259.109V67.5568H258.628L243.248 105.131H237.865L222.485 67.5568H222.005V105.131H216.429V55.6761Z" fill="#151515"/>
<path d="M278.652 105.131H272.404L290.475 55.6761H296.627L314.698 105.131H308.45L293.743 63.5H293.359L278.652 105.131ZM280.959 85.8125H306.143V91.125H280.959V85.8125Z" fill="#151515"/>
<path d="M328.324 55.6761V105.131H322.364V55.6761H328.324Z" fill="#151515"/>
<path d="M367.188 68.0398C366.9 65.5928 365.73 63.6932 363.68 62.3409C361.629 60.9886 359.114 60.3125 356.134 60.3125C353.955 60.3125 352.049 60.6667 350.414 61.375C348.796 62.0833 347.531 63.0573 346.618 64.2969C345.72 65.5365 345.272 66.9451 345.272 68.5227C345.272 69.8428 345.584 70.9777 346.209 71.9276C346.85 72.8613 347.667 73.642 348.66 74.2699C349.653 74.8816 350.695 75.3887 351.784 75.7912C352.874 76.1776 353.875 76.4915 354.788 76.733L359.787 78.0852C361.068 78.4233 362.494 78.8902 364.064 79.4858C365.65 80.0814 367.164 80.8944 368.606 81.9247C370.064 82.9389 371.265 84.2429 372.211 85.8366C373.156 87.4304 373.628 89.3864 373.628 91.7045C373.628 94.3769 372.932 96.7917 371.538 98.9489C370.16 101.106 368.141 102.821 365.482 104.092C362.838 105.364 359.626 106 355.845 106C352.321 106 349.269 105.429 346.69 104.286C344.126 103.143 342.108 101.549 340.634 99.5043C339.176 97.4598 338.351 95.0852 338.159 92.3807H344.311C344.471 94.2481 345.096 95.7936 346.185 97.017C347.29 98.2244 348.684 99.126 350.366 99.7216C352.065 100.301 353.891 100.591 355.845 100.591C358.12 100.591 360.163 100.221 361.973 99.4801C363.784 98.7235 365.218 97.6771 366.275 96.3409C367.332 94.9886 367.861 93.411 367.861 91.608C367.861 89.9659 367.404 88.6297 366.491 87.5994C365.578 86.5691 364.376 85.732 362.887 85.0881C361.397 84.4441 359.787 83.8807 358.056 83.3977L352 81.6591C348.156 80.5483 345.112 78.9626 342.869 76.902C340.626 74.8414 339.504 72.1449 339.504 68.8125C339.504 66.0436 340.249 63.6288 341.739 61.5682C343.245 59.4915 345.264 57.8816 347.795 56.7386C350.342 55.5795 353.186 55 356.326 55C359.498 55 362.318 55.5715 364.785 56.7145C367.252 57.8414 369.207 59.3868 370.649 61.3509C372.106 63.3149 372.875 65.5445 372.956 68.0398H367.188Z" fill="#151515"/>
<path d="M424.953 80.4034C424.953 85.6193 424.015 90.1269 422.141 93.9261C420.267 97.7254 417.695 100.655 414.427 102.716C411.159 104.777 407.426 105.807 403.229 105.807C399.031 105.807 395.298 104.777 392.03 102.716C388.762 100.655 386.191 97.7254 384.316 93.9261C382.442 90.1269 381.505 85.6193 381.505 80.4034C381.505 75.1875 382.442 70.6799 384.316 66.8807C386.191 63.0814 388.762 60.1515 392.03 58.0909C395.298 56.0303 399.031 55 403.229 55C407.426 55 411.159 56.0303 414.427 58.0909C417.695 60.1515 420.267 63.0814 422.141 66.8807C424.015 70.6799 424.953 75.1875 424.953 80.4034ZM419.185 80.4034C419.185 76.1212 418.472 72.5071 417.046 69.5611C415.637 66.6151 413.722 64.3854 411.303 62.8722C408.9 61.3589 406.208 60.6023 403.229 60.6023C400.249 60.6023 397.549 61.3589 395.13 62.8722C392.727 64.3854 390.813 66.6151 389.387 69.5611C387.977 72.5071 387.272 76.1212 387.272 80.4034C387.272 84.6856 387.977 88.2997 389.387 91.2457C390.813 94.1918 392.727 96.4214 395.13 97.9347C397.549 99.4479 400.249 100.205 403.229 100.205C406.208 100.205 408.9 99.4479 411.303 97.9347C413.722 96.4214 415.637 94.1918 417.046 91.2457C418.472 88.2997 419.185 84.6856 419.185 80.4034Z" fill="#151515"/>
<path d="M474 55.6761V105.131H468.233L441.414 66.3011H440.933V105.131H434.974V55.6761H440.741L467.656 94.6023H468.136V55.6761H474Z" fill="#151515"/>
</svg>
