<svg width="285" height="162" viewBox="0 0 285 162" fill="none" xmlns="http://www.w3.org/2000/svg">
<path d="M56.7592 97.9787C57.9529 99.4116 59.535 100.128 61.5055 100.128V100.575H49.7745V100.128C51.2662 100.128 51.4157 99.4116 50.222 97.9787L26.7606 68.607L18.7905 78.9939V97.9787C18.7905 99.4116 19.6865 100.128 21.4772 100.128V100.575H11.0001V100.128C12.7307 100.128 13.5968 99.4116 13.5968 97.9787V40.4883C13.5968 39.0555 12.7307 38.339 11.0001 38.339V37.8916H21.4772V38.339C19.6865 38.339 18.7905 39.0555 18.7905 40.4883V77.83L47.3568 40.4883C48.4313 39.0555 48.2213 38.339 46.7299 38.339V37.8916H52.819V38.339C50.8489 38.339 49.2958 39.0555 48.1628 40.4883L29.8049 64.5775L56.7592 97.9787Z" fill="black"/>
<path d="M72.88 78.3674H96.8784L83.8941 45.1452L72.88 78.3674ZM109.684 97.9787C110.28 99.4116 111.504 100.128 113.356 100.128V100.575H102.878V100.128C103.654 100.128 104.19 99.9639 104.49 99.6349C104.788 99.3082 104.818 98.8743 104.58 98.3369L97.1474 79.2629H72.5216L66.1634 98.247C65.9844 98.8451 66.0586 99.3082 66.3875 99.6349C66.7148 99.9639 67.2678 100.128 68.0441 100.128V100.575H61.9548V100.128C63.8047 100.128 64.9688 99.4116 65.4474 97.9787L85.4167 37.8916H86.3121L109.684 97.9787Z" fill="black"/>
<path d="M149.98 37.8955H156.069V38.3429C154.337 38.3429 153.472 39.0593 153.472 40.4922V83.2072C153.472 88.8188 151.86 93.2674 148.637 96.5497C145.413 99.8337 141.084 101.475 135.652 101.475C131.591 101.475 128.07 100.833 125.085 99.5496C122.099 98.2667 119.697 96.2365 117.877 93.4607C116.055 90.6841 115.146 87.2676 115.146 83.2072V40.4922C115.146 39.0593 114.279 38.3429 112.548 38.3429V37.8955H123.026V38.3429C121.235 38.3429 120.339 39.0593 120.339 40.4922V83.2072C120.339 88.5213 121.667 92.7442 124.325 95.8775C126.98 99.0123 130.756 100.579 135.652 100.579C140.846 100.579 144.965 98.9981 148.01 95.8333C151.054 92.6701 152.577 88.4614 152.577 83.2072V40.4922C152.577 39.0593 151.71 38.3429 149.98 38.3429V37.8955Z" fill="black"/>
<path d="M179.444 71.831C185.174 71.831 189.576 70.3532 192.652 67.3983C195.726 64.4425 197.264 60.3995 197.264 55.2637C197.264 49.8321 195.755 45.7267 192.741 42.9509C189.726 40.1751 185.293 38.7872 179.444 38.7872H170.668V71.831H179.444ZM202.368 97.9787C203.143 99.4116 204.486 100.128 206.398 100.128V100.575H195.92V100.128C197.532 100.128 197.949 99.4116 197.174 97.9787L183.562 72.4575C182.189 72.6366 180.816 72.7258 179.444 72.7258H170.668V97.9787C170.668 99.4116 171.563 100.128 173.354 100.128V100.575H162.877V100.128C164.607 100.128 165.474 99.4116 165.474 97.9787V40.4883C165.474 39.0555 164.607 38.339 162.877 38.339V37.8916H179.444C186.965 37.8916 192.755 39.4145 196.816 42.4586C200.875 45.5034 202.905 49.7721 202.905 55.2637C202.905 59.6823 201.352 63.3837 198.248 66.3686C195.144 69.3543 190.935 71.2929 185.622 72.1885L188.936 72.7258L202.368 97.9787Z" fill="black"/>
<path d="M223.247 38.339C221.456 38.339 220.561 39.0555 220.561 40.4883V97.9787C220.561 99.4116 221.456 100.128 223.247 100.128V100.575H212.77V100.128C214.5 100.128 215.366 99.4116 215.366 97.9787V40.4883C215.366 39.0555 214.5 38.339 212.77 38.339V37.8916H223.247V38.339Z" fill="black"/>
<path d="M235.612 49.8951C235.67 51.9253 236.341 53.7614 237.626 55.4025C238.909 57.0453 240.581 58.4474 242.641 59.6112C244.7 60.7751 246.969 61.8947 249.447 62.9693C251.923 64.0432 254.402 65.2078 256.879 66.4616C259.356 67.7154 261.609 69.0891 263.64 70.5804C265.669 72.074 267.326 73.9692 268.61 76.2669C269.893 78.5661 270.535 81.1478 270.535 84.0128C270.535 86.8202 269.833 89.3719 268.431 91.6688C267.028 93.968 265.222 95.8041 263.013 97.177C260.804 98.5507 258.431 99.6096 255.894 100.355C253.356 101.102 250.804 101.475 248.238 101.475C241.132 101.475 235.253 99.6838 230.597 96.1016L229.433 87.2368C230.566 90.6998 232.776 93.7889 236.059 96.5047C239.341 99.2222 243.403 100.579 248.238 100.579C252.894 100.579 256.803 99.2064 259.968 96.4598C263.132 93.7147 264.714 90.0726 264.714 85.5356C264.714 82.9689 264.102 80.6855 262.879 78.6853C261.654 76.6851 260.087 75.0289 258.178 73.7152C256.266 72.4022 254.133 71.1784 251.775 70.043C249.416 68.91 247.058 67.7911 244.7 66.6857C242.341 65.5818 240.179 64.4172 238.208 63.1926C236.238 61.9704 234.596 60.4034 233.283 58.4916C231.969 56.5813 231.253 54.4328 231.134 52.0444C230.895 47.0293 232.446 43.2688 235.791 40.7613C239.133 38.2537 243.551 37 249.044 37C255.192 37 260.565 38.8802 265.162 42.6423L265.968 50.5216C264.594 46.7019 262.521 43.642 259.745 41.3428C256.969 39.0459 253.401 37.8955 249.044 37.8955C244.865 37.8955 241.581 39.0151 239.194 41.2536C236.805 43.4929 235.612 46.3729 235.612 49.8951Z" fill="black"/>
<path d="M83.8833 97.4253C84.2455 95.3383 85.2622 93.3705 86.2334 91.4736C86.5571 90.9781 86.3762 90.4818 86.3804 89.9863L86.2916 88.4982C85.5273 75.9502 84.7888 57.6526 83.895 45.1575C82.9349 57.6053 82.263 75.9542 81.4745 88.4982L81.3858 89.9863C81.3901 90.4818 81.2089 90.9781 81.5328 91.4736C82.504 93.3713 83.5208 95.3367 83.8833 97.4253Z" fill="#CBB76B"/>
<path d="M72.3489 95.3574C72.4984 95.5049 72.5928 95.7069 72.8377 95.759C73.6952 96.0351 74.5872 96.3192 75.3198 96.8352C74.8042 96.103 74.5196 95.2106 74.2432 94.3529C74.1917 94.1083 73.9893 94.0136 73.8423 93.8645L73.371 93.4463C69.3907 89.9225 65.0917 86.0657 61.0889 82.5971C64.5237 86.6062 68.4161 90.9001 71.9307 94.8863L72.3489 95.3574Z" fill="#CBB76B"/>
<path d="M95.8663 95.3574L96.2845 94.8863C99.7997 90.9001 103.692 86.6062 107.127 82.5971C103.123 86.0657 98.8244 89.9225 94.8445 93.4463L94.3727 93.8645C94.2259 94.0136 94.0239 94.1083 93.9719 94.3529C93.6957 95.2106 93.4117 96.103 92.8956 96.8352C93.6279 96.3192 94.5203 96.0351 95.3779 95.759C95.6225 95.7069 95.7164 95.5049 95.8663 95.3574Z" fill="#CBB76B"/>
<path d="M72.3489 115.534L71.9307 116.005C68.4161 119.991 64.5237 124.286 61.0889 128.294C65.0917 124.826 69.3907 120.969 73.371 117.446L73.8423 117.028C73.9893 116.878 74.1917 116.784 74.2432 116.538C74.5196 115.681 74.8042 114.789 75.3198 114.056C74.5872 114.572 73.6952 114.856 72.8377 115.133C72.5928 115.184 72.4984 115.387 72.3489 115.534Z" fill="#CBB76B"/>
<path d="M95.8663 115.534C95.7164 115.387 95.6225 115.184 95.3779 115.133C94.5203 114.856 93.6279 114.572 92.8956 114.056C93.4117 114.789 93.6957 115.681 93.9719 116.538C94.0239 116.784 94.2259 116.878 94.3727 117.028L94.8445 117.446C98.8244 120.969 103.123 124.826 107.127 128.294C103.692 124.286 99.7997 119.991 96.2845 116.005L95.8663 115.534Z" fill="#CBB76B"/>
<path d="M83.883 113.477C83.5208 115.564 82.504 117.531 81.5328 119.427C81.2089 119.924 81.3901 120.419 81.3858 120.916L81.4745 122.403C82.2389 134.952 82.9774 148.592 83.8712 161.086C84.8313 148.638 85.5032 134.947 86.2916 122.403L86.3804 120.916C86.3762 120.419 86.5571 119.924 86.2334 119.427C85.2619 117.531 84.2455 115.564 83.883 113.477Z" fill="#CBB76B"/>
<path d="M83.8857 104.522L83.8888 104.529C83.8823 104.521 91.1346 94.7832 91.1046 94.7801L83.8857 100.795L76.6667 94.7801C76.6374 94.7832 83.8894 104.521 83.883 104.529L83.8857 104.522Z" fill="#CBB76B"/>
<path d="M83.8857 106.67L83.883 106.664C83.8894 106.67 76.6374 116.409 76.6667 116.413L83.8857 110.397L91.1046 116.413C91.1346 116.409 83.8823 106.67 83.8888 106.664L83.8857 106.67Z" fill="#CBB76B"/>
<path d="M68.4188 107.941C68.9148 107.936 69.4107 108.117 69.9066 107.794C71.8037 106.822 73.7695 105.806 75.8576 105.444C73.7704 105.081 71.8031 104.064 69.9066 103.093C69.4107 102.77 68.9148 102.95 68.4188 102.946C68.4188 102.946 66.9311 103.035 66.9308 103.035C54.3828 103.799 40.743 104.538 28.2479 105.432C40.6961 106.391 54.3868 107.063 66.9311 107.852L68.4188 107.941Z" fill="#CBB76B"/>
<path d="M99.3451 107.941L100.833 107.851C113.381 107.087 127.021 106.348 139.516 105.455C127.068 104.495 113.377 103.823 100.833 103.034L99.3451 102.946C98.8495 102.95 98.3532 102.769 97.8569 103.093C95.9601 104.064 93.9938 105.081 91.9061 105.443C93.9931 105.805 95.9609 106.822 97.8569 107.794C98.3532 108.117 98.8495 107.936 99.3451 107.941Z" fill="#CBB76B"/>
<path d="M73.2153 98.2253L79.231 105.445L73.2153 112.664C73.2189 112.693 82.9576 105.441 82.9637 105.447L82.9582 105.445L82.9637 105.442C82.9576 105.448 73.2189 98.1961 73.2153 98.2253Z" fill="#CBB76B"/>
<path d="M94.8528 112.664L88.8375 105.445L94.8528 98.2253C94.8488 98.1961 85.1109 105.448 85.1044 105.442L85.1103 105.445L85.1044 105.447C85.1109 105.441 94.8488 112.693 94.8528 112.664Z" fill="#CBB76B"/>
</svg>
