<svg width="340" height="161" viewBox="0 0 340 161" fill="none" xmlns="http://www.w3.org/2000/svg">
<path d="M184.668 55.8625H142.078V104.748H142.177H184.668C191.844 104.748 197.661 99.0352 197.661 91.9879V68.623C197.661 61.5757 191.844 55.8625 184.668 55.8625ZM186.908 95.049H152.829V65.5633H186.908V95.049Z" fill="black"/>
<path d="M85.6532 66.4777V94.1332C85.6532 99.9952 90.4931 104.748 96.4622 104.748H135.094V95.049H96.4048V85.1082H135.094V75.4088H96.4048V65.5619H135.094V55.8625H96.4622C90.4918 55.8625 85.6532 60.6157 85.6532 66.4777Z" fill="black"/>
<path d="M204.155 66.4777V94.1332C204.155 99.9952 208.995 104.748 214.964 104.748H253.596V95.049H214.906V85.1082H253.596V75.4088H214.906V65.5619H253.596V55.8625H214.964C208.993 55.8625 204.155 60.6157 204.155 66.4777Z" fill="black"/>
<path d="M66.3097 55.8625H63.3047C57.7207 55.8625 52.9831 59.8877 52.1803 65.3139L47.78 95.0476H44.233L39.8326 65.3152C39.0299 59.8877 34.2923 55.8625 28.7083 55.8625H25.2418C19.0325 55.8625 14 60.8048 14 66.9028V104.748H24.753V65.5633H30.1814L34.5817 95.297C35.3845 100.723 40.4238 104.748 46.0078 104.748C51.5919 104.748 56.6312 100.723 57.434 95.297L61.8343 65.5633H66.8012V104.748H77.5529V66.9028C77.5515 60.8048 72.5177 55.8625 66.3097 55.8625Z" fill="black"/>
<path d="M326 93.9254L316.954 89.7917V67.7957C316.954 61.2057 311.514 55.8625 304.803 55.8625H272.68C265.97 55.8625 260.529 61.2057 260.529 67.7957V92.8152C260.529 99.4053 265.97 104.748 272.68 104.748H304.803C308.922 104.748 312.56 102.733 314.757 99.6546L326 104.791V93.9254V93.9254ZM271.282 95.049V65.5633H306.202V84.8803L289.158 77.0929V87.9588L304.676 95.049H271.282Z" fill="black"/>
</svg>
