<svg width="285" height="161" viewBox="0 0 285 161" fill="none" xmlns="http://www.w3.org/2000/svg">
<path d="M34.9685 133.282C34.9685 132.024 34.9113 130.384 34.7969 128.363C34.7206 126.342 34.6062 124.111 34.4537 121.671C34.3012 119.23 34.1296 116.637 33.9389 113.891C33.7482 111.146 33.5385 108.419 33.3097 105.712C33.0809 103.005 32.8521 100.392 32.6233 97.8756C32.4327 95.3207 32.242 93.0137 32.0513 90.9545C31.7463 88.0183 31.3268 85.8638 30.793 84.491C30.2591 83.1182 29.382 82.4318 28.1618 82.4318C27.0178 82.4318 26.2551 82.756 25.8738 83.4042C25.5306 84.0525 25.3209 84.8533 25.2446 85.8066C25.2065 86.7599 25.1874 87.8086 25.1874 88.9526C25.2256 90.0584 25.054 91.088 24.6726 92.0413C24.3294 92.9946 23.6621 93.7954 22.6707 94.4437C21.6792 95.0919 20.1539 95.4161 18.0947 95.4161C16.6457 95.4161 15.4064 94.825 14.3768 93.6429C13.3472 92.4226 12.8324 90.6685 12.8324 88.3806C12.8324 85.1774 13.7857 82.2793 15.6924 79.6863C17.5609 77.0551 20.2111 74.8243 23.6431 72.994C27.075 71.1255 31.2124 69.6764 36.0553 68.6468C40.8981 67.6172 46.2749 67.1024 52.1855 67.1024C56.4182 67.1024 60.3268 67.5791 63.9113 68.5324C67.4958 69.4476 70.5845 70.7441 73.1776 72.422C75.8087 74.0617 77.8679 76.0255 79.3551 78.3135C80.8423 80.5633 81.5859 83.0229 81.5859 85.6922C81.5859 88.7047 80.7088 91.5837 78.9547 94.3293C77.2006 97.0749 74.7792 99.5916 71.6904 101.88C68.6398 104.168 65.0362 106.17 60.8797 107.886C56.7233 109.563 52.2617 110.879 47.4951 111.832C46.1605 112.061 45.4932 112.881 45.4932 114.292C45.4932 115.245 45.5504 116.446 45.6648 117.895C45.8173 119.306 45.9507 120.793 46.0651 122.357C46.2177 123.92 46.3511 125.465 46.4655 126.99C46.6181 128.515 46.6943 129.869 46.6943 131.051C46.6943 133.187 46.1986 134.712 45.2072 135.627C44.2157 136.542 42.7476 137 40.8028 137C38.9724 137 37.5425 136.676 36.5129 136.028C35.4833 135.417 34.9685 134.502 34.9685 133.282ZM69.7456 87.351C69.7456 86.0545 69.1927 84.8151 68.0868 83.633C66.981 82.4509 65.4938 81.4023 63.6253 80.4871C61.7568 79.5719 59.5832 78.8474 57.1046 78.3135C54.6641 77.7796 52.0901 77.5127 49.3827 77.5127C48.0481 77.5127 46.9231 77.5699 46.0079 77.6843C45.1309 77.7606 44.4254 77.9131 43.8916 78.1419C43.3577 78.3707 42.9764 78.6758 42.7476 79.0571C42.5569 79.4003 42.4616 79.8579 42.4616 80.4299C42.4616 80.8112 42.5188 81.7073 42.6332 83.1182C42.7476 84.491 42.9001 86.0926 43.0908 87.923C43.2815 89.7533 43.4721 91.6791 43.6628 93.7001C43.8916 95.683 44.1204 97.4753 44.3492 99.0768C44.4636 100.259 44.6161 101.041 44.8068 101.422C45.0356 101.803 45.3788 101.994 45.8363 101.994C47.1329 101.994 48.62 101.784 50.2979 101.365C51.9757 100.907 53.6917 100.316 55.4458 99.5916C57.2381 98.829 58.9731 97.971 60.6509 97.0177C62.3669 96.0262 63.8922 94.9966 65.2269 93.9289C66.5997 92.823 67.6865 91.7172 68.4872 90.6113C69.3262 89.4674 69.7456 88.3806 69.7456 87.351Z" fill="#FE9922"/>
<path d="M93.8265 68.3608C92.7206 68.3608 91.672 68.2083 90.6805 67.9032C89.7272 67.56 88.8883 67.1024 88.1638 66.5305C87.4774 65.9203 86.9245 65.2149 86.505 64.4141C86.0855 63.6133 85.8758 62.7362 85.8758 61.7829C85.8758 60.1813 86.505 58.8848 87.7634 57.8934C89.0599 56.9019 90.7759 56.4062 92.9113 56.4062C93.9028 56.4062 94.8561 56.5968 95.7713 56.9782C96.6865 57.3214 97.4873 57.798 98.1736 58.4082C98.8982 59.0183 99.4702 59.7428 99.8896 60.5817C100.309 61.3825 100.519 62.2214 100.519 63.0985C100.519 64.7382 99.9087 66.0347 98.6884 66.988C97.5063 67.9032 95.8857 68.3608 93.8265 68.3608ZM85.9902 85.8066C85.9902 84.472 86.5622 83.3852 87.7062 82.5462C88.8883 81.6692 90.4327 81.2307 92.3393 81.2307C95.7713 81.2307 97.6016 82.4128 97.8304 84.777C97.983 86.4167 98.1355 88.2662 98.288 90.3253C98.4787 92.3845 98.6503 94.5772 98.8028 96.9033C98.9935 99.1912 99.146 101.575 99.2604 104.053C99.413 106.494 99.5464 108.915 99.6608 111.317C99.7752 113.682 99.8706 115.97 99.9468 118.181C100.023 120.393 100.061 122.414 100.061 124.244C100.061 126.151 99.3748 127.581 98.002 128.534C96.6674 129.488 94.7036 129.964 92.1105 129.964C90.9284 129.964 89.9941 129.678 89.3078 129.106C88.6595 128.573 88.3354 127.772 88.3354 126.704C88.3354 121.442 88.2019 116.523 87.935 111.947C87.7062 107.333 87.4393 103.233 87.1342 99.6488C86.8673 96.0643 86.6003 93.09 86.3334 90.7257C86.1046 88.3234 85.9902 86.6837 85.9902 85.8066Z" fill="#FE9922"/>
<path d="M111.615 80.5443C111.615 79.9723 111.863 79.4193 112.359 78.8855C112.855 78.3135 113.503 77.8178 114.304 77.3983C115.105 76.9407 116.001 76.5785 116.992 76.3115C118.022 76.0065 119.051 75.8539 120.081 75.8539C120.653 75.8539 121.13 76.0065 121.511 76.3115C121.93 76.6166 122.293 77.2076 122.598 78.0847C122.903 78.9236 123.17 80.1248 123.398 81.6883C123.665 83.2136 123.913 85.2155 124.142 87.6942C124.295 88.4568 124.428 89.0479 124.542 89.4674C124.695 89.8487 124.886 90.0393 125.114 90.0393C125.458 90.0393 125.801 89.4483 126.144 88.2662C128.928 80.2201 132.951 76.1971 138.213 76.1971C140.654 76.1971 142.865 76.9598 144.848 78.4851C146.869 80.0104 148.738 82.5081 150.454 85.9782C152.208 89.4102 153.867 93.948 155.43 99.5916C156.994 105.197 158.557 112.118 160.12 120.355C160.197 120.774 160.254 121.156 160.292 121.499C160.33 121.842 160.349 122.166 160.349 122.471C160.349 123.348 160.139 124.111 159.72 124.759C159.339 125.369 158.824 125.884 158.176 126.304C157.527 126.685 156.803 126.971 156.002 127.162C155.201 127.39 154.4 127.505 153.6 127.505C151.998 127.505 150.835 127.333 150.111 126.99C149.424 126.647 148.986 125.999 148.795 125.045C147.689 119.249 146.602 114.101 145.535 109.601C144.505 105.102 143.475 101.327 142.446 98.276C141.454 95.1873 140.463 92.8421 139.471 91.2405C138.48 89.639 137.489 88.8382 136.497 88.8382C135.506 88.8382 134.571 89.4674 133.694 90.7257C132.855 91.946 132.036 93.8717 131.235 96.5029C130.434 99.134 129.652 102.471 128.89 106.513C128.165 110.555 127.46 115.379 126.773 120.984C126.583 122.509 125.82 123.73 124.485 124.645C123.151 125.56 121.454 126.018 119.395 126.018C118.022 126.018 116.973 125.732 116.249 125.16C115.524 124.588 115.124 123.806 115.047 122.815C114.704 114.883 114.323 108.362 113.903 103.252C113.522 98.1044 113.16 93.9861 112.817 90.8973C112.473 87.7704 112.187 85.4443 111.959 83.919C111.73 82.3937 111.615 81.2688 111.615 80.5443Z" fill="#FE9922"/>
<path d="M167.099 107.714C167.099 107.066 167.175 106.341 167.327 105.54C167.48 104.74 167.556 103.862 167.556 102.909C167.556 102.261 167.27 101.765 166.698 101.422C166.164 101.079 165.554 100.697 164.868 100.278C164.182 99.8586 163.552 99.3247 162.98 98.6764C162.447 98.0282 162.18 97.0939 162.18 95.8737C162.18 94.9966 162.408 94.1196 162.866 93.2425C163.362 92.3654 164.067 91.5647 164.982 90.8401C167.232 89.1623 169.558 87.656 171.961 86.3214C174.401 84.9867 176.823 83.8618 179.225 82.9466C181.665 82.0315 184.068 81.326 186.432 80.8303C188.796 80.3345 191.065 80.0867 193.239 80.0867C196.9 80.0867 200.331 80.7731 203.535 82.1458C206.776 83.4805 209.579 85.3299 211.943 87.6942C214.345 90.0203 216.233 92.7658 217.606 95.9309C219.017 99.0578 219.722 102.413 219.722 105.998C219.722 109.506 218.978 112.843 217.491 116.008C216.042 119.135 214.078 121.88 211.6 124.244C209.121 126.609 206.204 128.477 202.848 129.85C199.531 131.261 196.022 131.966 192.324 131.966C188.701 131.966 185.345 131.356 182.257 130.136C179.168 128.916 176.498 127.238 174.249 125.102C171.999 122.929 170.245 120.374 168.986 117.438C167.728 114.463 167.099 111.222 167.099 107.714ZM193.582 121.671C195.184 121.671 196.842 121.346 198.558 120.698C200.274 120.05 201.838 119.116 203.249 117.895C204.698 116.637 205.88 115.112 206.795 113.319C207.748 111.527 208.225 109.506 208.225 107.256C208.225 104.968 207.805 102.833 206.967 100.85C206.128 98.8671 204.965 97.1511 203.477 95.7021C202.028 94.2149 200.293 93.0518 198.272 92.2129C196.289 91.374 194.135 90.9545 191.809 90.9545C187.576 90.9545 184.335 92.0604 182.085 94.2721C179.835 96.4457 178.71 99.8013 178.71 104.339C178.71 106.818 179.072 109.125 179.797 111.26C180.56 113.358 181.608 115.188 182.943 116.751C184.278 118.277 185.841 119.478 187.633 120.355C189.464 121.232 191.447 121.671 193.582 121.671Z" fill="#FE9922"/>
<path d="M224.126 61.5541C224.126 59.5712 224.698 58.1603 225.842 57.3214C226.986 56.4824 228.874 56.063 231.505 56.063C232.42 56.063 233.221 56.1583 233.907 56.349C234.594 56.5396 235.166 56.8638 235.623 57.3214C236.081 57.7408 236.443 58.3319 236.71 59.0945C237.015 59.8191 237.263 60.7533 237.454 61.8973C237.949 65.2911 238.445 68.8566 238.941 72.5936C239.475 76.2925 239.971 79.9913 240.428 83.6902C240.924 87.351 241.381 90.9355 241.801 94.4437C242.22 97.9138 242.583 101.155 242.888 104.168C243.231 107.142 243.479 109.792 243.631 112.118C243.822 114.406 243.917 116.218 243.917 117.552C243.917 118.925 243.784 120.088 243.517 121.041C243.288 121.995 242.869 122.757 242.258 123.329C241.686 123.901 240.924 124.321 239.971 124.588C239.055 124.816 237.911 124.931 236.539 124.931C235.204 124.931 234.136 124.588 233.335 123.901C232.573 123.215 232.191 122.166 232.191 120.755C232.191 119.306 232.077 117.381 231.848 114.978C231.619 112.538 231.314 109.83 230.933 106.856C230.552 103.882 230.113 100.717 229.617 97.3609C229.16 94.0052 228.664 90.6876 228.13 87.4082C227.635 84.1288 227.139 80.9828 226.643 77.9703C226.186 74.9197 225.766 72.2313 225.385 69.9052C225.003 67.541 224.698 65.6153 224.47 64.1281C224.241 62.6028 224.126 61.7448 224.126 61.5541Z" fill="#FE9922"/>
<path d="M261.649 68.3608C260.543 68.3608 259.495 68.2083 258.503 67.9032C257.55 67.56 256.711 67.1024 255.986 66.5305C255.3 65.9203 254.747 65.2149 254.328 64.4141C253.908 63.6133 253.698 62.7362 253.698 61.7829C253.698 60.1813 254.328 58.8848 255.586 57.8934C256.882 56.9019 258.598 56.4062 260.734 56.4062C261.725 56.4062 262.679 56.5968 263.594 56.9782C264.509 57.3214 265.31 57.798 265.996 58.4082C266.721 59.0183 267.293 59.7428 267.712 60.5817C268.132 61.3825 268.341 62.2214 268.341 63.0985C268.341 64.7382 267.731 66.0347 266.511 66.988C265.329 67.9032 263.708 68.3608 261.649 68.3608ZM253.813 85.8066C253.813 84.472 254.385 83.3852 255.529 82.5462C256.711 81.6692 258.255 81.2307 260.162 81.2307C263.594 81.2307 265.424 82.4128 265.653 84.777C265.805 86.4167 265.958 88.2662 266.111 90.3253C266.301 92.3845 266.473 94.5772 266.625 96.9033C266.816 99.1912 266.969 101.575 267.083 104.053C267.235 106.494 267.369 108.915 267.483 111.317C267.598 113.682 267.693 115.97 267.769 118.181C267.846 120.393 267.884 122.414 267.884 124.244C267.884 126.151 267.197 127.581 265.825 128.534C264.49 129.488 262.526 129.964 259.933 129.964C258.751 129.964 257.817 129.678 257.13 129.106C256.482 128.573 256.158 127.772 256.158 126.704C256.158 121.442 256.024 116.523 255.758 111.947C255.529 107.333 255.262 103.233 254.957 99.6488C254.69 96.0643 254.423 93.09 254.156 90.7257C253.927 88.3234 253.813 86.6837 253.813 85.8066Z" fill="#FE9922"/>
<path d="M208.186 31.2958C207.822 32.1097 207.499 32.9457 207.083 33.7318C206.177 35.4398 204.783 36.3174 202.775 36.2703C194.364 36.0793 185.954 35.927 177.546 35.7637C173.552 35.6862 169.558 35.6115 165.563 35.5284C158.431 35.3789 151.298 35.2184 144.165 35.0689C140.785 34.9997 137.404 34.9526 134.021 34.8834C129.921 34.8004 125.822 34.709 121.722 34.6204C120.419 34.5928 119.111 34.626 117.82 34.4986C117 34.4184 116.209 34.0889 115.403 33.8758C114.975 33.7623 114.55 33.5934 114.114 33.5519C113.097 33.459 112.104 33.4994 111.129 33.6395C109.547 33.8668 108.013 34.3568 106.506 34.9665C106.195 35.0938 105.92 35.3263 105.654 35.5395C103.89 36.9402 102.001 38.0807 99.5375 38.4101C99.8652 39.4787 100.126 40.4641 100.465 41.422C102.012 45.7874 103.476 50.1778 103.995 54.8035C104.237 56.9544 104.426 59.1247 104.415 61.2839C104.401 63.6701 103.834 65.9428 102.159 67.8197C101.885 68.1297 101.748 68.6723 101.76 69.1014C101.823 71.6398 101.39 74.1118 100.851 76.57C100.679 77.3534 99.7263 77.8905 98.8347 77.7687C97.9931 77.6552 97.3404 76.9908 97.3932 76.1686C97.4459 75.3575 97.632 74.5575 97.7376 73.7492C97.9015 72.4675 98.0431 71.1858 98.2098 69.7934C97.8515 69.7934 97.5959 69.7851 97.3432 69.7962C94.2267 69.9263 91.2908 69.3477 88.7826 67.3989C86.0245 65.2563 84.4218 61.5192 86.0051 58.1032C87.8383 54.1502 92.2407 53.4859 95.5572 55.742C97.8209 57.2838 99.5069 59.3019 100.432 61.9068C100.49 62.0729 100.607 62.2168 100.696 62.3691C100.785 62.3635 100.873 62.358 100.965 62.3497C100.965 61.1344 100.973 59.9192 100.962 58.7039C100.935 55.2575 100.043 51.9467 99.1819 48.6525C98.5792 46.3411 97.632 44.1182 96.8543 41.851C95.5766 38.1333 94.3128 34.4101 93.0435 30.6868C92.4963 29.084 91.9657 27.4757 91.3936 25.8812C90.452 23.2597 89.4798 20.6465 88.5215 18.0305C88.1188 16.9315 88.4771 15.9737 89.4437 15.564C90.327 15.1903 91.5352 15.7024 91.913 16.6935C92.4018 17.9779 92.849 19.279 93.2434 20.5966C93.4406 21.261 93.7934 21.4576 94.4572 21.4326C95.6822 21.3884 96.9071 21.3939 98.132 21.4243C100.401 21.4797 102.654 21.6901 104.693 22.7891C105.665 23.3123 106.556 23.9905 107.481 24.5967C108.63 25.3489 109.855 25.8488 111.129 26.1695C112.298 26.4638 113.508 26.6073 114.739 26.6563C115.27 26.6784 115.806 26.1801 116.364 26.0971C117.383 25.9421 118.422 25.8701 119.456 25.848C124.647 25.7428 129.838 25.6708 135.029 25.5794C138.676 25.5158 142.323 25.4521 145.97 25.3746C156.406 25.1504 166.841 24.9095 177.274 24.6964C185.234 24.533 193.198 24.4029 201.158 24.2535C201.797 24.2424 202.433 24.1815 203.072 24.1621C204.927 24.104 206.186 25.0645 207.049 26.5815C207.499 27.3705 207.813 28.2342 208.188 29.0646C208.186 29.812 208.186 30.5539 208.186 31.2958ZM97.9681 66.1947C97.6098 65.0155 97.3515 63.9082 96.9432 62.8618C96.1849 60.9241 95.0433 59.2216 93.1073 58.2887C91.2991 57.4167 90.0131 57.9399 89.1132 59.5925C88.3604 60.9711 89.2104 63.086 90.2436 64.0826C92.3574 66.12 94.9572 66.538 97.9681 66.1947Z" fill="#3B8C62"/>
<path d="M67.8069 26.1336C66.6273 26.1136 65.6302 26.3161 64.9224 27.2163V28.3665C65.7622 29.2841 66.9081 29.3266 68.1243 29.3116C71.1942 29.2766 74.2641 29.2891 77.3341 29.3041L78.8761 29.3116L76.8734 26.0986C76.5617 26.1186 76.3061 26.1486 76.0477 26.1486C73.3008 26.1511 70.5538 26.1786 67.8069 26.1336Z" fill="#3B8C62"/>
<path d="M69.8629 24.1858C71.6661 24.2008 73.4721 24.1833 75.2753 24.2083H76.3954L76.8734 23.5038C76.5982 22.706 75.7966 21.1078 74.7922 21.0978C72.9272 21.0978 71.183 21.0803 69.4388 21.1103C68.9135 21.1179 68.3602 21.1929 67.8771 21.3654C67.2311 21.5954 66.8941 22.343 67.0963 23.0231C67.2592 23.5657 67.5906 24.0308 68.3378 24.0733C68.8461 24.1033 69.3545 24.1808 69.8629 24.1858Z" fill="#3B8C62"/>
<path d="M81.9291 38.8703C77.7807 38.8453 73.635 38.8528 69.4865 38.8528C69.0568 38.8528 68.6242 38.8578 68.1945 38.8403C67.0008 38.7952 66.102 38.1301 66.1217 37.32C66.147 36.3499 66.9559 35.7298 68.2675 35.7248C71.5004 35.7148 74.7304 35.7223 77.9632 35.7223H81.564C81.1567 35.3573 80.8337 35.1048 80.4124 34.2747C80.3366 34.1222 79.8479 34.0822 79.5502 34.0797C75.5646 34.0647 71.579 34.0697 67.5935 34.0622C66.4981 34.0597 65.8464 33.6496 65.6526 32.8745C65.3802 31.7968 66.1526 30.9917 67.5036 30.9867C70.7617 30.9767 74.0226 30.9817 77.2807 30.9817H79.2384L79.5502 34.0797C79.8479 34.0822 80.3366 34.1222 80.4124 34.2747C80.8337 35.1048 81.1567 35.3573 81.564 35.7223L81.9291 38.8703Z" fill="#3B8C62"/>
<path d="M89.8391 46.9986C89.2808 46.9432 88.7059 46.6857 88.4587 45.9605C87.8643 44.211 87.2782 42.4559 86.6782 40.7092C85.7311 37.9409 84.7923 35.17 83.8201 32.41C82.4285 28.4653 81.0064 24.5317 79.6093 20.587C79.2732 19.6402 78.976 18.6824 78.6955 17.7191C78.401 16.7198 78.851 15.8367 79.7593 15.5488C80.6814 15.2581 81.6508 15.762 81.9869 16.7142C83.6451 21.3925 85.32 26.0625 86.9477 30.7519C87.9615 33.6668 88.8725 36.615 89.8836 39.5327C90.453 41.1742 91.1168 42.7826 91.7529 44.3992C92.3028 45.8027 91.4862 47.0207 89.8391 46.9986Z" fill="#FE9922"/>
<path d="M96.7585 45.2404C96.7779 46.0958 96.1169 46.8543 95.2753 46.9955C94.4503 47.1311 93.5865 46.583 93.2976 45.7304C92.7588 44.1331 92.2533 42.522 91.6894 40.9358C91.0922 39.2528 90.4034 37.6029 89.8229 35.9143C88.1786 31.1419 86.5759 26.3584 84.9427 21.586C84.4677 20.1963 83.9539 18.8178 83.4317 17.442C83.14 16.6752 84.3483 15.388 85.3204 15.4599C86.1148 15.5208 86.7787 16.0883 87.0481 16.8994C87.8119 19.2081 88.5841 21.514 89.3562 23.8227C89.8173 25.1985 90.2506 26.5854 90.7478 27.9474C91.5339 30.101 92.3949 32.227 93.1643 34.3862C93.8115 36.2022 94.3726 38.0458 94.9753 39.8756C95.528 41.5532 96.0891 43.2307 96.6474 44.9055C96.6863 45.0328 96.7307 45.1574 96.7585 45.2404Z" fill="#FE9922"/>
<mask id="path-6-inside-1_309_1470" fill="white">
<path fill-rule="evenodd" clip-rule="evenodd" d="M110.821 33.687V26.0888C112.101 26.4381 113.432 26.6031 114.787 26.6564C115.082 26.6685 115.378 26.5241 115.679 26.3776C115.927 26.2569 116.177 26.1347 116.433 26.0972C117.465 25.9422 118.517 25.8702 119.563 25.8481C122.884 25.7816 126.204 25.7285 129.524 25.6753C131.461 25.6442 133.398 25.6132 135.334 25.5796C139.028 25.5159 142.721 25.4522 146.414 25.3747C150.382 25.2905 154.35 25.204 158.319 25.1174C159.024 25.102 159.729 25.0867 160.435 25.0713V35.4061C158.763 35.3705 157.092 35.3346 155.42 35.2988C151.809 35.2213 148.197 35.1438 144.585 35.069C142.872 35.0344 141.159 35.0053 139.445 34.9762C137.735 34.9471 136.024 34.9181 134.313 34.8835C131.199 34.8212 128.085 34.7543 124.971 34.6873C123.934 34.665 122.896 34.6427 121.859 34.6206C121.496 34.6129 121.133 34.6099 120.769 34.6069C119.812 34.599 118.855 34.5911 117.907 34.4988C117.341 34.4441 116.789 34.2737 116.237 34.1033C115.978 34.0236 115.719 33.9438 115.46 33.8759C115.329 33.8418 115.199 33.8026 115.069 33.7635C114.767 33.6724 114.463 33.5811 114.154 33.552C113.017 33.4494 111.908 33.5094 110.821 33.687Z"/>
</mask>
<path fill-rule="evenodd" clip-rule="evenodd" d="M110.821 33.687V26.0888C112.101 26.4381 113.432 26.6031 114.787 26.6564C115.082 26.6685 115.378 26.5241 115.679 26.3776C115.927 26.2569 116.177 26.1347 116.433 26.0972C117.465 25.9422 118.517 25.8702 119.563 25.8481C122.884 25.7816 126.204 25.7285 129.524 25.6753C131.461 25.6442 133.398 25.6132 135.334 25.5796C139.028 25.5159 142.721 25.4522 146.414 25.3747C150.382 25.2905 154.35 25.204 158.319 25.1174C159.024 25.102 159.729 25.0867 160.435 25.0713V35.4061C158.763 35.3705 157.092 35.3346 155.42 35.2988C151.809 35.2213 148.197 35.1438 144.585 35.069C142.872 35.0344 141.159 35.0053 139.445 34.9762C137.735 34.9471 136.024 34.9181 134.313 34.8835C131.199 34.8212 128.085 34.7543 124.971 34.6873C123.934 34.665 122.896 34.6427 121.859 34.6206C121.496 34.6129 121.133 34.6099 120.769 34.6069C119.812 34.599 118.855 34.5911 117.907 34.4988C117.341 34.4441 116.789 34.2737 116.237 34.1033C115.978 34.0236 115.719 33.9438 115.46 33.8759C115.329 33.8418 115.199 33.8026 115.069 33.7635C114.767 33.6724 114.463 33.5811 114.154 33.552C113.017 33.4494 111.908 33.5094 110.821 33.687Z" fill="white"/>
<path d="M110.821 33.687H110.321V34.2753L110.902 34.1804L110.821 33.687ZM110.821 26.0888L110.953 25.6064L110.321 25.4339V26.0888H110.821ZM114.787 26.6564L114.808 26.1568L114.807 26.1568L114.787 26.6564ZM115.679 26.3776L115.46 25.9281L115.679 26.3776ZM116.433 26.0972L116.505 26.5919L116.507 26.5917L116.433 26.0972ZM119.563 25.8481L119.553 25.3482L119.553 25.3482L119.563 25.8481ZM129.524 25.6753L129.532 26.1752L129.524 25.6753ZM135.334 25.5796L135.326 25.0796L135.326 25.0796L135.334 25.5796ZM146.414 25.3747L146.424 25.8746L146.424 25.8746L146.414 25.3747ZM158.319 25.1174L158.308 24.6175L158.319 25.1174ZM160.435 25.0713H160.935V24.5603L160.424 24.5714L160.435 25.0713ZM160.435 35.4061L160.424 35.906L160.935 35.9169V35.4061H160.435ZM155.42 35.2988L155.409 35.7987L155.42 35.2988ZM144.585 35.069L144.596 34.5691L144.596 34.5691L144.585 35.069ZM139.445 34.9762L139.453 34.4762L139.445 34.9762ZM134.313 34.8835L134.323 34.3836L134.323 34.3836L134.313 34.8835ZM124.971 34.6873L124.961 35.1872L124.971 34.6873ZM121.859 34.6206L121.869 34.1207L121.869 34.1207L121.859 34.6206ZM120.769 34.6069L120.774 34.107L120.769 34.6069ZM117.907 34.4988L117.955 34.0011L117.955 34.0011L117.907 34.4988ZM116.237 34.1033L116.384 33.6255H116.384L116.237 34.1033ZM115.46 33.8759L115.333 34.3596L115.333 34.3597L115.46 33.8759ZM115.069 33.7635L114.925 34.2422L114.925 34.2423L115.069 33.7635ZM114.154 33.552L114.201 33.0542L114.199 33.054L114.154 33.552ZM111.321 33.687V26.0888H110.321V33.687H111.321ZM110.69 26.5711C112.015 26.9329 113.385 27.1016 114.768 27.156L114.807 26.1568C113.478 26.1045 112.186 25.9432 110.953 25.6064L110.69 26.5711ZM114.767 27.156C115.212 27.1743 115.629 26.958 115.898 26.827L115.46 25.9281C115.127 26.0903 114.952 26.1627 114.808 26.1568L114.767 27.156ZM115.898 26.827C116.162 26.6984 116.341 26.6161 116.505 26.5919L116.36 25.6025C116.014 25.6534 115.692 25.8153 115.46 25.9281L115.898 26.827ZM116.507 26.5917C117.513 26.4406 118.543 26.3698 119.574 26.348L119.553 25.3482C118.491 25.3707 117.417 25.4438 116.358 25.6028L116.507 26.5917ZM119.573 26.348C122.892 26.2816 126.212 26.2284 129.532 26.1752L129.516 25.1753C126.196 25.2285 122.875 25.2817 119.553 25.3482L119.573 26.348ZM129.532 26.1752C131.469 26.1442 133.406 26.1131 135.343 26.0795L135.326 25.0796C133.389 25.1133 131.453 25.1443 129.516 25.1753L129.532 26.1752ZM135.343 26.0795C139.036 26.0158 142.73 25.9521 146.424 25.8746L146.403 24.8748C142.711 24.9523 139.019 25.016 135.326 25.0796L135.343 26.0795ZM146.424 25.8746C150.393 25.7904 154.361 25.7038 158.33 25.6173L158.308 24.6175C154.34 24.7041 150.371 24.7906 146.403 24.8748L146.424 25.8746ZM158.33 25.6173C159.035 25.6019 159.74 25.5865 160.445 25.5712L160.424 24.5714C159.718 24.5868 159.013 24.6022 158.308 24.6175L158.33 25.6173ZM159.935 25.0713V35.4061H160.935V25.0713H159.935ZM160.445 34.9062C158.774 34.8706 157.102 34.8348 155.431 34.7989L155.409 35.7987C157.081 35.8345 158.752 35.8704 160.424 35.906L160.445 34.9062ZM155.431 34.7989C151.819 34.7214 148.208 34.6439 144.596 34.5691L144.575 35.5689C148.186 35.6436 151.798 35.7211 155.409 35.7987L155.431 34.7989ZM144.596 34.5691C142.881 34.5345 141.167 34.5053 139.453 34.4762L139.436 35.4761C141.15 35.5052 142.863 35.5343 144.575 35.5689L144.596 34.5691ZM139.453 34.4762C137.743 34.4472 136.034 34.4182 134.323 34.3836L134.303 35.3834C136.015 35.418 137.726 35.4471 139.436 35.4761L139.453 34.4762ZM134.323 34.3836C131.21 34.3214 128.096 34.2544 124.982 34.1874L124.961 35.1872C128.075 35.2542 131.189 35.3211 134.303 35.3834L134.323 34.3836ZM124.982 34.1874C123.945 34.1651 122.907 34.1428 121.869 34.1207L121.848 35.1204C122.885 35.1426 123.923 35.1649 124.961 35.1872L124.982 34.1874ZM121.869 34.1207C121.503 34.113 121.136 34.11 120.774 34.107L120.765 35.1069C121.129 35.1099 121.489 35.1129 121.848 35.1205L121.869 34.1207ZM120.774 34.107C119.812 34.099 118.878 34.0909 117.955 34.0011L117.858 34.9964C118.832 35.0912 119.812 35.099 120.765 35.1069L120.774 34.107ZM117.955 34.0011C117.449 33.9521 116.945 33.7987 116.384 33.6255L116.089 34.5811C116.633 34.7488 117.234 34.936 117.858 34.9964L117.955 34.0011ZM116.384 33.6255C116.127 33.5463 115.858 33.4633 115.586 33.3922L115.333 34.3597C115.581 34.4244 115.829 34.5008 116.089 34.5811L116.384 33.6255ZM115.586 33.3922C115.466 33.3608 115.345 33.3243 115.213 33.2847L114.925 34.2423C115.054 34.281 115.192 34.3228 115.333 34.3596L115.586 33.3922ZM115.213 33.2847C114.92 33.1963 114.568 33.0887 114.201 33.0542L114.108 34.0498C114.358 34.0734 114.614 34.1485 114.925 34.2422L115.213 33.2847ZM114.199 33.054C113.015 32.9472 111.863 33.0101 110.741 33.1935L110.902 34.1804C111.952 34.0088 113.019 33.9516 114.109 34.05L114.199 33.054Z" fill="#C2B8B8" mask="url(#path-6-inside-1_309_1470)"/>
<path fill-rule="evenodd" clip-rule="evenodd" d="M159.813 35.4082V25.0735C165.634 24.9451 171.455 24.8175 177.274 24.6986C182.3 24.5955 187.327 24.5056 192.353 24.4158L192.353 24.4158C195.289 24.3633 198.224 24.3108 201.159 24.2557C201.507 24.2497 201.855 24.2288 202.202 24.208C202.492 24.1906 202.782 24.1732 203.073 24.1644C204.928 24.1062 206.186 25.0668 207.05 26.5838C207.361 27.1286 207.607 27.7091 207.853 28.2896C207.962 28.5476 208.071 28.8057 208.186 29.0606V31.2982C208.075 31.5475 207.967 31.799 207.859 32.0504C207.616 32.6196 207.372 33.1888 207.083 33.7341C206.178 35.4421 204.784 36.3196 202.775 36.2726C196.241 36.1241 189.706 35.9991 183.172 35.8741L183.165 35.874C181.292 35.8382 179.419 35.8023 177.547 35.766C176.548 35.7466 175.549 35.7274 174.55 35.7082H174.55C171.555 35.6506 168.559 35.5929 165.564 35.5307C163.647 35.4905 161.73 35.4495 159.813 35.4082Z" fill="#CE2B37"/>
<path d="M75.3663 22.6976C75.6773 23.2235 75.8551 23.827 76.1218 24.4914L77.3967 28.3309C77.7883 29.2333 78.0772 30.1801 78.4605 31.2708L79.6215 34.9165C80.0381 35.8355 80.3576 36.8017 80.7603 37.8923L81.9686 41.8204C82.3852 42.7893 82.6963 43.8025 83.0435 44.799C83.3407 45.6572 83.7129 46.4904 84.5906 46.8835C85.2461 47.1742 85.91 46.9887 86.4516 46.5236C87.1154 45.9534 87.0821 45.2115 86.821 44.4835C85.6655 41.2696 84.4712 38.0695 83.3185 34.8528C82.5991 32.8431 81.9269 30.814 81.2408 28.7932C79.8659 24.7405 78.5021 20.6823 77.1161 16.6324C76.8189 15.7549 75.7329 15.2455 74.8691 15.5085C73.9302 15.7936 73.4997 16.5853 73.7247 17.6428C73.8108 18.0442 73.9275 18.4373 74.0636 18.9549L75.3663 22.6976Z" fill="#FE9922"/>
<path d="M100.466 41.422C100.127 40.4641 99.8662 39.4787 99.5384 38.4101L93.2444 20.5966C92.85 19.279 92.4028 17.9779 91.9139 16.6935C91.5362 15.7024 90.3279 15.1903 89.4447 15.564C88.4781 15.9737 88.1198 16.9315 88.5225 18.0305C89.4808 20.6465 90.4529 23.2597 91.3945 25.8812C91.9667 27.4757 92.4972 29.084 93.0444 30.6868C94.3138 34.4101 95.5776 38.1333 96.8553 41.851C97.633 44.1182 98.5801 46.3411 99.1829 48.6525C100.044 51.9467 100.936 55.2575 100.963 58.7039C100.974 59.9192 100.966 61.1344 100.966 62.3497C100.874 62.358 100.786 62.3635 100.697 62.3691C100.608 62.2168 100.491 62.0729 100.433 61.9068C99.5078 59.3019 97.8219 57.2838 95.5581 55.7419C92.2417 53.4859 87.8392 54.1502 86.006 58.1032C84.4228 61.5192 86.0255 65.2563 88.7836 67.3989C91.2918 69.3477 94.2277 69.9263 97.3441 69.7962C97.5969 69.7851 97.8524 69.7934 98.2107 69.7934C98.0441 71.1858 97.9024 72.4675 97.7385 73.7492C97.633 74.5575 97.4469 75.3575 97.3941 76.1686C97.3413 76.9908 97.9941 77.6552 98.8357 77.7687C99.7273 77.8905 100.68 77.3534 100.852 76.57C101.391 74.1118 101.824 71.6398 101.76 69.1014C101.749 68.6723 101.885 68.1297 102.16 67.8197C103.835 65.9428 104.402 63.6701 104.416 61.2839C104.427 59.1247 104.238 56.9544 103.996 54.8035C103.477 50.1778 102.013 45.7874 100.466 41.422Z" fill="#FE9922"/>
</svg>
