<svg width="340" height="161" viewBox="0 0 340 161" fill="none" xmlns="http://www.w3.org/2000/svg">
<path d="M35.8936 74.3064C31.8813 74.3064 28.5269 73.623 25.8305 72.2562C23.1556 70.8895 21.1818 69.1214 19.9091 66.952C18.6364 64.7826 18 62.4721 18 60.0207H26.057C26.057 61.4091 26.4453 62.6674 27.2218 63.7955C27.9984 64.9236 29.1309 65.8239 30.6194 66.4964C32.1078 67.1473 33.8551 67.4727 35.8612 67.4727C42.3974 67.4727 45.6655 65.2707 45.6655 60.8668C45.6655 59.5434 45.2556 58.4587 44.4359 57.6126C43.6378 56.7449 42.5161 56.0506 41.0708 55.53C39.6255 54.9876 37.7811 54.4995 35.5377 54.0656C32.4529 53.4148 29.7457 52.6338 27.416 51.7226C25.0863 50.8115 23.1232 49.4556 21.5269 47.655C19.9307 45.8544 19.1325 43.5331 19.1325 40.6911C19.1325 38.218 19.7257 36.0377 20.9122 34.1503C22.0986 32.2412 23.9214 30.7443 26.3805 29.6596C28.8397 28.5532 31.9136 28 35.6024 28C39.1833 28 42.2141 28.5532 44.6948 29.6596C47.1755 30.7443 49.0414 32.2846 50.2926 34.2805C51.5437 36.2764 52.1693 38.6085 52.1693 41.2769H44.1123C44.1123 39.4546 43.3897 37.9685 41.9444 36.8187C40.4991 35.6689 38.3527 35.094 35.5053 35.094C32.4637 35.094 30.3173 35.6255 29.0662 36.6885C27.8151 37.7516 27.1895 39.0966 27.1895 40.7237C27.1895 41.9385 27.5885 42.969 28.3867 43.8151C29.1848 44.6395 30.3821 45.3337 31.9784 45.8977C33.5747 46.4401 35.6563 46.9174 38.2233 47.3296C42.9475 48.1973 46.7225 49.6617 49.5484 51.7226C52.3958 53.7836 53.8195 56.8425 53.8195 60.8993C53.8195 63.7196 53.0861 66.1385 51.6192 68.156C50.1524 70.1736 48.0707 71.703 45.3743 72.7444C42.6778 73.7857 39.5176 74.3064 35.8936 74.3064Z" fill="#151515"/>
<path d="M61.0999 29.0413H69.1569V47.3946H91.354V29.0413H99.4434V73.2976H91.354V54.6188H69.1569V73.2976H61.0999V29.0413Z" fill="#151515"/>
<path d="M140.764 73.2976L137.269 64.7392H117.013L113.519 73.2976H105.009L123.323 29.0088H130.959L149.274 73.2976H140.764ZM119.764 57.9706H134.519L127.4 40.5284L127.206 39.4546H127.109L126.85 40.5284L119.764 57.9706Z" fill="#151515"/>
<path d="M173.865 29.0413C176.799 29.0413 179.42 29.6488 181.728 30.8636C184.058 32.0568 185.87 33.749 187.164 35.9401C188.48 38.1095 189.138 40.6152 189.138 43.4571C189.138 46.5377 188.329 49.217 186.711 51.4949C185.093 53.7728 182.914 55.389 180.175 56.3435L190.141 73.2976H180.887L172.183 57.5801C171.794 57.6018 171.223 57.6126 170.468 57.6126H162.928V73.2976H154.871V29.0413H173.865ZM173.574 50.7789C174.998 50.7789 176.27 50.4644 177.392 49.8353C178.535 49.2061 179.431 48.3383 180.078 47.2319C180.746 46.1255 181.081 44.8673 181.081 43.4571C181.081 42.1338 180.746 40.9298 180.078 39.8451C179.431 38.7386 178.525 37.8709 177.36 37.2417C176.216 36.5909 174.944 36.2655 173.542 36.2655H162.928V50.7789H173.574Z" fill="#151515"/>
<path d="M196.807 29.0413H204.863V73.2976H196.807V29.0413Z" fill="#151515"/>
<path d="M215.315 29.0413H222.239L246.216 60.0207V29.0413H254.241V73.2976H247.349L223.372 42.3507V73.2976H215.315V29.0413Z" fill="#151515"/>
<path d="M284.883 74.2413C280.677 74.2413 276.794 73.2108 273.234 71.1498C269.697 69.0672 266.882 66.2578 264.789 62.7216C262.718 59.1855 261.683 55.3239 261.683 51.1369C261.683 46.9065 262.718 43.0233 264.789 39.4871C266.882 35.9509 269.708 33.1524 273.267 31.0914C276.848 29.0305 280.763 28 285.013 28C288.184 28 291.29 28.6291 294.331 29.8874C297.373 31.124 299.983 32.9354 302.162 35.3218C304.362 37.6865 305.797 40.4633 306.465 43.6524H298.279C297.136 41.0491 295.378 39.0315 293.005 37.5997C290.653 36.1462 287.925 35.4194 284.818 35.4194C282.057 35.4194 279.523 36.0811 277.214 37.4045C274.906 38.7061 273.073 40.561 271.714 42.969C270.376 45.3554 269.708 48.078 269.708 51.1369C269.708 54.2609 270.376 57.0052 271.714 59.3699C273.073 61.7345 274.895 63.5677 277.182 64.8694C279.49 66.1493 282.036 66.7893 284.818 66.7893C287.385 66.7893 289.64 66.3446 291.581 65.4551C293.522 64.5656 295.097 63.3291 296.305 61.7454C297.513 60.1617 298.322 58.3285 298.732 56.2459H284.495V49.4773H307.469C307.512 54.3368 306.638 58.6323 304.848 62.3637C303.079 66.0951 300.479 69.013 297.049 71.1173C293.641 73.1999 289.586 74.2413 284.883 74.2413Z" fill="#151515"/>
<path d="M318.373 74.1111C317.488 74.1111 316.701 73.9159 316.011 73.5254C315.321 73.1349 314.781 72.6142 314.393 71.9634C314.005 71.2909 313.811 70.5641 313.811 69.7831C313.811 69.0021 313.994 68.2862 314.361 67.6354C314.749 66.9628 315.288 66.4313 315.978 66.0408C316.69 65.6503 317.499 65.4551 318.405 65.4551C319.29 65.4551 320.077 65.6503 320.767 66.0408C321.479 66.4313 322.029 66.9628 322.418 67.6354C322.806 68.2862 323 69.0021 323 69.7831C323 71.0197 322.569 72.0501 321.706 72.8745C320.843 73.6989 319.732 74.1111 318.373 74.1111Z" fill="#151515"/>
<path d="M70.5483 86.8001C75.1862 86.8001 79.274 87.7221 82.8117 89.5661C86.3494 91.4101 89.089 94.0025 91.0304 97.3435C92.9719 100.684 93.9426 104.535 93.9426 108.896C93.9426 113.278 92.9719 117.15 91.0304 120.513C89.089 123.854 86.3602 126.446 82.844 128.29C79.3279 130.134 75.2617 131.056 70.6453 131.056H53.593V86.8001H70.5483ZM70.3865 123.832C73.5791 123.832 76.3294 123.236 78.6376 122.042C80.9673 120.849 82.747 119.135 83.9766 116.901C85.2061 114.666 85.8209 112.041 85.8209 109.026C85.8209 106.01 85.2061 103.374 83.9766 101.118C82.7685 98.8404 80.9997 97.0831 78.67 95.8466C76.3402 94.61 73.5575 93.9917 70.3218 93.9917H61.5206V123.832H70.3865Z" fill="#151515"/>
<path d="M101.352 86.8001H109.409V131.056H101.352V86.8001Z" fill="#151515"/>
<path d="M139.987 132C135.781 132 131.898 130.97 128.338 128.909C124.801 126.826 121.986 124.017 119.893 120.48C117.822 116.944 116.787 113.083 116.787 108.896C116.787 104.665 117.822 100.782 119.893 97.2458C121.986 93.7097 124.811 90.9111 128.371 88.8502C131.952 86.7892 135.867 85.7587 140.116 85.7587C143.288 85.7587 146.394 86.3879 149.435 87.6461C152.477 88.8827 155.087 90.6942 157.266 93.0805C159.466 95.4452 160.901 98.2221 161.569 101.411H153.383C152.24 98.8078 150.482 96.7903 148.109 95.3584C145.757 93.9049 143.029 93.1782 139.922 93.1782C137.161 93.1782 134.627 93.8398 132.318 95.1632C130.01 96.4648 128.177 98.3197 126.818 100.728C125.48 103.114 124.811 105.837 124.811 108.896C124.811 112.02 125.48 114.764 126.818 117.129C128.177 119.493 129.999 121.326 132.286 122.628C134.594 123.908 137.14 124.548 139.922 124.548C142.489 124.548 144.744 124.103 146.685 123.214C148.626 122.324 150.201 121.088 151.409 119.504C152.617 117.92 153.426 116.087 153.836 114.005H139.599V107.236H162.572C162.616 112.096 161.742 116.391 159.952 120.122C158.183 123.854 155.583 126.772 152.153 128.876C148.745 130.959 144.69 132 139.987 132Z" fill="#151515"/>
<path d="M170.015 86.8001H178.072V131.056H170.015V86.8001Z" fill="#151515"/>
<path d="M197.777 94.0242H184.673V86.8001H218.907V94.0242H205.802V131.056H197.777V94.0242Z" fill="#151515"/>
<path d="M251.296 131.056L247.802 122.498H227.546L224.051 131.056H215.541L233.856 86.7675H241.492L259.806 131.056H251.296ZM230.296 115.729H245.051L237.933 98.2872L237.738 97.2133H237.641L237.383 98.2872L230.296 115.729Z" fill="#151515"/>
<path d="M265.404 86.8001H273.461V123.8H293.328V131.056H265.404V86.8001Z" fill="#151515"/>
</svg>
