<svg width="267" height="161" viewBox="0 0 267 161" fill="none" xmlns="http://www.w3.org/2000/svg">
<path d="M35.064 87.3498C33.901 85.5634 32.8314 83.718 31.8597 81.8208L29.3884 86.9937C31.0509 89.9349 32.949 92.7365 35.064 95.3711C41.2004 87.5592 45.3262 78.6164 49.3473 69.5061C52.0596 64.0039 53.7621 58.0595 54.3737 51.9557C54.3947 51.6279 54.3947 51.2991 54.3737 50.9713C54.1685 48.7217 53.1137 46.6348 51.424 45.1355C49.7343 43.6362 47.5367 42.8373 45.2786 42.9013C43.0205 42.9654 40.8718 43.8876 39.2698 45.4803C37.6677 47.073 36.7329 49.2163 36.6557 51.474C36.8401 54.3353 37.5924 57.1312 38.869 59.6986C40.1455 62.266 41.9205 64.5534 44.0905 66.4275L46.0592 61.5896C43.44 58.8313 41.8372 55.2639 41.5145 51.474C41.5527 50.4388 41.9952 49.4599 42.747 48.7473C43.4988 48.0347 44.4999 47.6451 45.5356 47.6623C46.4956 47.6562 47.4258 47.9956 48.1564 48.6184C48.8869 49.2413 49.3691 50.1062 49.5148 51.0551C49.5358 51.3829 49.5358 51.7116 49.5148 52.0394C48.894 57.4679 47.3349 62.7472 44.9073 67.6422C42.1141 74.4439 38.8241 81.0309 35.064 87.3498ZM26.0584 66.4065C28.2255 64.5314 29.9972 62.2433 31.2702 59.6759C32.5431 57.1084 33.2917 54.313 33.4723 51.453C33.4469 49.1641 32.5366 46.9739 30.9321 45.3414C29.3276 43.7089 27.1534 42.7608 24.8654 42.6958C22.5773 42.6308 20.3528 43.454 18.6582 44.9928C16.9637 46.5316 15.9305 48.6666 15.7752 50.9504C15.7752 51.2855 15.7752 51.5996 15.7752 51.9347C16.4009 58.0384 18.1101 63.9816 20.8226 69.4852C22.1629 72.6895 23.7546 75.9985 25.2835 79.1819L27.9433 73.9042C26.9589 71.8099 25.9955 69.7155 25.1159 67.6212C22.7428 62.7274 21.2201 57.4653 20.6131 52.0604C20.5922 51.7256 20.5922 51.3899 20.6131 51.0551C20.7575 50.055 21.273 49.146 22.0572 48.5088C22.8414 47.8716 23.8367 47.553 24.8451 47.6164C25.8536 47.6797 26.8012 48.1204 27.4994 48.8507C28.1977 49.581 28.5954 50.5475 28.6135 51.5577C28.2999 55.3542 26.6875 58.9267 24.0478 61.6733L26.0584 66.4065ZM44.0905 94.4496C41.9241 96.3266 40.1514 98.6148 38.8753 101.182C37.5991 103.748 36.8446 106.543 36.6557 109.403C36.5918 111.753 37.4639 114.031 39.0801 115.738C40.6963 117.444 42.9243 118.439 45.2738 118.503C47.6234 118.567 49.9021 117.695 51.6086 116.078C53.3152 114.462 54.3098 112.234 54.3737 109.885C54.3946 109.564 54.3946 109.242 54.3737 108.921C53.7425 102.875 52.0405 96.9887 49.3473 91.5384C47.986 88.4598 46.4362 85.2555 44.8654 81.9464L42.1219 87.2241C43.1062 89.3185 44.0487 91.5175 44.9283 93.5071C47.3528 98.3958 48.9117 103.668 49.5358 109.089C49.5567 109.41 49.5567 109.731 49.5358 110.052C49.3923 111.051 48.8785 111.959 48.0964 112.597C47.3143 113.235 46.3211 113.555 45.3139 113.494C44.3067 113.434 43.359 112.996 42.6591 112.27C41.9592 111.543 41.5581 110.579 41.5355 109.571C41.8463 105.784 43.4511 102.219 46.0801 99.4759L44.0905 94.4496ZM26.0584 94.4496C28.2219 96.3277 29.9912 98.6165 31.2639 101.183C32.5365 103.75 33.2871 106.544 33.4723 109.403C33.4423 111.691 32.5286 113.878 30.9224 115.507C29.3162 117.136 27.142 118.081 24.8551 118.143C22.5682 118.205 20.3459 117.38 18.6534 115.841C16.9609 114.302 15.9296 112.167 15.7752 109.885C15.7752 109.55 15.7752 109.235 15.7752 108.921C16.4207 102.878 18.122 96.994 20.8016 91.5384C24.8227 82.4909 28.9485 73.4853 35.064 65.6735C37.1928 68.3024 39.0983 71.1046 40.7606 74.0508L38.2683 79.1819C37.3122 77.2695 36.2421 75.4162 35.064 73.6319C31.3057 79.9913 28.0091 86.6125 25.1997 93.4443C22.7899 98.3373 21.2385 103.608 20.6131 109.026C20.5924 109.347 20.5924 109.669 20.6131 109.989C20.7566 110.988 21.2704 111.897 22.0525 112.534C22.8346 113.172 23.8278 113.492 24.835 113.431C25.8423 113.371 26.7899 112.934 27.4898 112.207C28.1897 111.48 28.5908 110.517 28.6135 109.508C28.3037 105.716 26.6903 102.149 24.0478 99.4131L26.0584 94.4496ZM7 125.048V82.3234C11.6973 84.2722 16.1191 86.8281 20.1524 89.9258L18.2256 94.4496C16.2211 92.8847 14.1229 91.444 11.9426 90.1352V120.189H58.2901V90.1352C56.1131 91.4491 54.0151 92.8897 52.0071 94.4496L50.0803 89.9258C54.1209 86.8278 58.5496 84.2719 63.2536 82.3234V125.048H7ZM63.1489 36.0178V78.763C58.453 76.7982 54.0263 74.2435 49.9756 71.1606L51.9024 66.6159C53.9105 68.1822 56.0084 69.6297 58.1854 70.9512V40.8767H11.8588V70.9512C14.0391 69.6348 16.1373 68.187 18.1418 66.6159L20.0686 71.1606C16.0514 74.2372 11.6601 76.7917 7 78.763L7 36.0178H63.1489Z" fill="black"/>
<path d="M147.97 85.381V125.048H115.466V85.381H120.325V120.189H129.288V85.4857H134.147V120.189H143.111V85.381H147.97Z" fill="black"/>
<path d="M171.741 75.6842H158.881V80.543H171.741V75.6842Z" fill="black"/>
<path d="M176.598 125.048H154.021V85.381H176.598V90.2398H158.88V102.785H175.383V107.644H158.88V120.189H176.598V125.048Z" fill="black"/>
<path d="M235.511 85.4856H230.653V125.026H235.511V85.4856Z" fill="black"/>
<path d="M260.958 85.4856L244.287 105.277L260.958 125.047H254.654L237.984 105.277L254.654 85.4856H260.958Z" fill="black"/>
<path d="M81.768 92.1873V113.759L102.083 90.6166V125.047H97.2451V103.476L76.9092 126.618V92.1873H81.768Z" fill="black"/>
<path d="M207.072 68.6683C204.465 71.7673 200.998 74.0238 197.109 75.1529C193.22 76.2819 189.083 76.2328 185.222 75.0117C181.361 73.7906 177.948 71.4523 175.416 68.2924C172.883 65.1324 171.344 61.2926 170.993 57.2582C170.642 53.2238 171.495 49.1758 173.443 45.6259C175.392 42.076 178.349 39.1834 181.942 37.3137C185.534 35.444 189.6 34.6811 193.625 35.1215C197.651 35.5618 201.456 37.1855 204.559 39.7876L201.438 43.5155C199.068 41.5252 196.162 40.2826 193.085 39.9447C190.009 39.6068 186.902 40.1888 184.156 41.6172C181.411 43.0455 179.151 45.256 177.662 47.9691C176.173 50.6821 175.522 53.7758 175.792 56.8587C176.062 59.9417 177.24 62.8754 179.177 65.2888C181.114 67.7022 183.723 69.4869 186.675 70.417C189.627 71.3472 192.788 71.381 195.759 70.5143C198.73 69.6475 201.377 67.9192 203.365 65.5478L207.072 68.6683Z" fill="black"/>
<path d="M109.413 36.0178V75.6844H76.9092V36.0178H81.768V70.8255H90.7317V36.1435H95.5906V70.8255H104.554V36.0178H109.413Z" fill="black"/>
<path d="M138.022 75.6844H115.466V36.0178H138.022V40.8767H120.325V53.4217H136.807V58.2805H120.325V70.8255H138.022V75.6844Z" fill="black"/>
<path d="M154.629 40.8138H147.969V58.0292H154.629C156.912 58.0292 159.102 57.1223 160.716 55.5081C162.33 53.8938 163.237 51.7044 163.237 49.4215C163.237 47.1386 162.33 44.9492 160.716 43.335C159.102 41.7207 156.912 40.8138 154.629 40.8138ZM143.131 75.6844V36.0178H154.692C158.264 36.0178 161.689 37.4366 164.214 39.9621C166.74 42.4875 168.159 45.9128 168.159 49.4843C168.159 53.0559 166.74 56.4812 164.214 59.0066C161.689 61.5321 158.264 62.9509 154.692 62.9509H147.969V75.6844H143.131Z" fill="black"/>
<path d="M232.349 40.8767H222.15V75.5797H217.312V40.8767H207.112V36.0178H232.349V40.8767Z" fill="black"/>
<path d="M247.492 70.8254H240.832V53.5472H247.492C248.622 53.5472 249.741 53.7698 250.786 54.2024C251.83 54.635 252.779 55.269 253.578 56.0683C254.377 56.8676 255.011 57.8165 255.444 58.8608C255.877 59.9052 256.099 61.0245 256.099 62.1549C256.099 63.2852 255.877 64.4045 255.444 65.4489C255.011 66.4932 254.377 67.4421 253.578 68.2414C252.779 69.0407 251.83 69.6748 250.786 70.1073C249.741 70.5399 248.622 70.7625 247.492 70.7625V70.8254ZM235.973 35.9548V75.6214H247.533C251.105 75.6214 254.53 74.2026 257.056 71.6771C259.581 69.1517 261 65.7264 261 62.1549C261 58.5833 259.581 55.1581 257.056 52.6326C254.53 50.1071 251.105 48.6883 247.533 48.6883H240.873V35.9548H235.973Z" fill="black"/>
<path fill-rule="evenodd" clip-rule="evenodd" d="M180.997 125.047H186.568L203.553 95.2661L220.517 125.047H226.088L203.553 85.4856L180.997 125.047Z" fill="black"/>
</svg>
