<svg width="403" height="161" viewBox="0 0 403 161" fill="none" xmlns="http://www.w3.org/2000/svg">
<path d="M88.6863 63.7862H96.88V74.9126H103.084V81.2956H96.88V100.62H88.6863V81.2956H84.7064V74.9126H88.6863V63.7862Z" fill="#0E0E10"/>
<path d="M120.089 101.323C117.709 101.323 115.544 100.855 113.593 99.9176C111.681 98.9416 110.159 97.4581 109.028 95.4671C107.896 93.476 107.33 90.9384 107.33 87.8543C107.33 84.9653 107.916 82.4668 109.086 80.3586C110.257 78.2505 111.798 76.6303 113.71 75.4982C115.622 74.327 117.651 73.7414 119.797 73.7414C122.333 73.7414 124.245 74.1708 125.532 75.0297C126.859 75.8495 127.951 76.767 128.81 77.782L128.459 78.7775L129.219 75.0297H136.828V100.62H128.634V95.0571L129.278 96.8139C129.2 96.8139 128.966 97.0482 128.576 97.5167C128.185 97.9461 127.6 98.4731 126.82 99.0978C126.078 99.6834 125.142 100.191 124.011 100.62C122.918 101.089 121.611 101.323 120.089 101.323ZM122.43 94.6472C123.406 94.6472 124.284 94.5106 125.064 94.2373C125.844 93.925 126.527 93.4956 127.112 92.949C127.698 92.3634 128.205 91.6412 128.634 90.7823V84.5164C128.322 83.6575 127.854 82.9353 127.229 82.3497C126.605 81.725 125.864 81.2565 125.005 80.9442C124.147 80.5929 123.191 80.4172 122.138 80.4172C120.967 80.4172 119.875 80.7295 118.86 81.3541C117.885 81.9397 117.104 82.7596 116.519 83.8137C115.934 84.8677 115.641 86.078 115.641 87.4444C115.641 88.8108 115.953 90.0405 116.578 91.1336C117.202 92.2268 118.021 93.0856 119.036 93.7103C120.089 94.3349 121.221 94.6472 122.43 94.6472Z" fill="#0E0E10"/>
<path d="M152.704 75.0297L153.348 79.5388L153.231 79.1874C154.245 77.4697 155.513 76.1423 157.035 75.2054C158.557 74.2294 160.39 73.7414 162.536 73.7414C163.941 73.7414 165.17 73.9366 166.224 74.327C167.316 74.7174 168.233 75.303 168.974 76.0838C169.716 76.8255 170.223 77.8015 170.496 79.0118L170.203 79.0703C171.296 77.4697 172.603 76.1814 174.125 75.2054C175.685 74.2294 177.305 73.7414 178.982 73.7414C181.519 73.7414 183.528 74.4636 185.011 75.9081C186.532 77.3135 187.313 79.1484 187.352 81.4127V100.62H179.217V84.8092C179.178 83.677 179.002 82.7596 178.69 82.0569C178.378 81.3151 177.656 80.9052 176.524 80.8271C175.198 80.8271 174.066 81.2956 173.13 82.2325C172.232 83.1305 171.55 84.3017 171.081 85.7461C170.652 87.1516 170.438 88.6156 170.438 90.1381V100.62H162.244V84.8092C162.205 83.677 161.99 82.7596 161.6 82.0569C161.249 81.3151 160.507 80.9052 159.376 80.8271C158.088 80.8271 156.996 81.2956 156.098 82.2325C155.24 83.1305 154.577 84.2821 154.108 85.6876C153.679 87.093 153.465 88.5375 153.465 90.021V100.62H145.271V75.0297H152.704Z" fill="#0E0E10"/>
<path d="M212.593 101.323C210.447 101.323 208.633 100.972 207.15 100.269C205.707 99.5272 204.439 98.5707 203.346 97.3995L203.99 95.6427V100.62H195.796V54.4166H203.931V79.4217V76.7865C204.946 75.9276 206.292 75.2054 207.97 74.6198C209.648 74.0342 211.559 73.7414 213.705 73.7414C215.929 73.7414 217.958 74.2684 219.792 75.3225C221.626 76.3766 223.089 77.9186 224.182 79.9487C225.313 81.9397 225.879 84.3797 225.879 87.2687C225.879 90.1576 225.255 92.6562 224.006 94.7644C222.797 96.8725 221.177 98.4927 219.148 99.6248C217.12 100.757 214.934 101.323 212.593 101.323ZM210.779 94.413C211.989 94.413 213.101 94.1007 214.115 93.476C215.169 92.8514 216.007 91.9925 216.632 90.8994C217.256 89.8063 217.568 88.5765 217.568 87.2101C217.568 85.8437 217.256 84.6335 216.632 83.5794C216.007 82.5253 215.169 81.7055 214.115 81.1199C213.101 80.4953 211.989 80.183 210.779 80.183C209.726 80.183 208.731 80.3586 207.794 80.71C206.897 81.0223 206.116 81.4908 205.453 82.1154C204.829 82.701 204.341 83.4233 203.99 84.2821V90.548C204.458 91.4069 205.004 92.1292 205.629 92.7148C206.292 93.2613 207.053 93.6908 207.911 94.0031C208.77 94.2764 209.726 94.413 210.779 94.413Z" fill="#0E0E10"/>
<path d="M243.087 101.323C240.707 101.323 238.542 100.855 236.591 99.9176C234.679 98.9416 233.157 97.4581 232.026 95.4671C230.894 93.476 230.328 90.9384 230.328 87.8543C230.328 84.9653 230.914 82.4668 232.084 80.3586C233.255 78.2505 234.796 76.6303 236.708 75.4982C238.62 74.327 240.649 73.7414 242.795 73.7414C245.331 73.7414 247.243 74.1708 248.53 75.0297C249.857 75.8495 250.949 76.767 251.808 77.782L251.457 78.7775L252.218 75.0297H259.826V100.62H251.632V95.0571L252.276 96.8139C252.198 96.8139 251.964 97.0482 251.574 97.5167C251.184 97.9461 250.598 98.4731 249.818 99.0978C249.077 99.6834 248.14 100.191 247.009 100.62C245.916 101.089 244.609 101.323 243.087 101.323ZM245.428 94.6472C246.404 94.6472 247.282 94.5106 248.062 94.2373C248.843 93.925 249.525 93.4956 250.111 92.949C250.696 92.3634 251.203 91.6412 251.632 90.7823V84.5164C251.32 83.6575 250.852 82.9353 250.228 82.3497C249.603 81.725 248.862 81.2565 248.004 80.9442C247.145 80.5929 246.189 80.4172 245.136 80.4172C243.965 80.4172 242.873 80.7295 241.858 81.3541C240.883 81.9397 240.102 82.7596 239.517 83.8137C238.932 84.8677 238.639 86.078 238.639 87.4444C238.639 88.8108 238.951 90.0405 239.576 91.1336C240.2 92.2268 241.019 93.0856 242.034 93.7103C243.087 94.3349 244.219 94.6472 245.428 94.6472Z" fill="#0E0E10"/>
<path d="M278.687 101.323C276.307 101.323 274.18 100.776 272.307 99.6834C270.435 98.5512 268.952 96.9311 267.859 94.8229C266.806 92.7148 266.279 90.2162 266.279 87.3273C266.279 84.4383 266.864 81.9788 268.035 79.9487C269.205 77.9186 270.805 76.3766 272.834 75.3225C274.863 74.2684 277.165 73.7414 279.74 73.7414C281.379 73.7414 282.94 73.9951 284.423 74.5026C285.944 75.0102 287.212 75.791 288.227 76.845V79.4217V54.4166H296.362V100.62H288.168V95.6427L288.812 97.3995C287.485 98.4927 286.003 99.4296 284.364 100.21C282.725 100.952 280.833 101.323 278.687 101.323ZM281.379 94.413C282.472 94.413 283.428 94.2764 284.247 94.0031C285.105 93.6908 285.847 93.2613 286.471 92.7148C287.134 92.1292 287.7 91.4069 288.168 90.548V84.2821C287.856 83.4233 287.368 82.701 286.705 82.1154C286.081 81.4908 285.3 81.0223 284.364 80.71C283.467 80.3586 282.472 80.183 281.379 80.183C280.17 80.183 279.038 80.4953 277.985 81.1199C276.97 81.7055 276.151 82.5253 275.526 83.5794C274.902 84.6335 274.59 85.8437 274.59 87.2101C274.59 88.5765 274.902 89.8063 275.526 90.8994C276.151 91.9925 276.97 92.8514 277.985 93.476C279.038 94.1007 280.17 94.413 281.379 94.413Z" fill="#0E0E10"/>
<path d="M315.56 101.323C313.18 101.323 311.015 100.855 309.064 99.9176C307.152 98.9416 305.63 97.4581 304.499 95.4671C303.367 93.476 302.801 90.9384 302.801 87.8543C302.801 84.9653 303.387 82.4668 304.557 80.3586C305.728 78.2505 307.269 76.6303 309.181 75.4982C311.093 74.327 313.122 73.7414 315.268 73.7414C317.804 73.7414 319.716 74.1708 321.003 75.0297C322.33 75.8495 323.422 76.767 324.281 77.782L323.93 78.7775L324.69 75.0297H332.299V100.62H324.105V95.0571L324.749 96.8139C324.671 96.8139 324.437 97.0482 324.047 97.5167C323.656 97.9461 323.071 98.4731 322.291 99.0978C321.55 99.6834 320.613 100.191 319.482 100.62C318.389 101.089 317.082 101.323 315.56 101.323ZM317.901 94.6472C318.877 94.6472 319.755 94.5106 320.535 94.2373C321.315 93.925 321.998 93.4956 322.583 92.949C323.169 92.3634 323.676 91.6412 324.105 90.7823V84.5164C323.793 83.6575 323.325 82.9353 322.701 82.3497C322.076 81.725 321.335 81.2565 320.477 80.9442C319.618 80.5929 318.662 80.4172 317.609 80.4172C316.438 80.4172 315.346 80.7295 314.331 81.3541C313.356 81.9397 312.575 82.7596 311.99 83.8137C311.405 84.8677 311.112 86.078 311.112 87.4444C311.112 88.8108 311.424 90.0405 312.049 91.1336C312.673 92.2268 313.492 93.0856 314.507 93.7103C315.56 94.3349 316.692 94.6472 317.901 94.6472Z" fill="#0E0E10"/>
<path d="M348.175 75.0297L348.819 79.5974L348.702 79.1874C349.599 77.5868 350.867 76.2985 352.506 75.3225C354.145 74.3074 356.154 73.7999 358.534 73.7999C360.953 73.7999 362.963 74.5222 364.562 75.9666C366.201 77.3721 367.04 79.207 367.079 81.4713V100.62H358.885V84.5164C358.846 83.3842 358.534 82.4863 357.949 81.8226C357.403 81.1199 356.466 80.7685 355.14 80.7685C353.891 80.7685 352.799 81.1785 351.862 81.9983C350.926 82.8181 350.204 83.9308 349.697 85.3362C349.189 86.7417 348.936 88.3618 348.936 90.1967V100.62H340.742V75.0297H348.175Z" fill="#0E0E10"/>
<path d="M386.261 101.323C383.881 101.323 381.716 100.855 379.765 99.9176C377.853 98.9416 376.331 97.4581 375.2 95.4671C374.068 93.476 373.502 90.9384 373.502 87.8543C373.502 84.9653 374.088 82.4668 375.258 80.3586C376.429 78.2505 377.97 76.6303 379.882 75.4982C381.794 74.327 383.823 73.7414 385.969 73.7414C388.505 73.7414 390.417 74.1708 391.704 75.0297C393.031 75.8495 394.123 76.767 394.982 77.782L394.631 78.7775L395.392 75.0297H403V100.62H394.806V95.0571L395.45 96.8139C395.372 96.8139 395.138 97.0482 394.748 97.5167C394.358 97.9461 393.772 98.4731 392.992 99.0978C392.251 99.6834 391.314 100.191 390.183 100.62C389.09 101.089 387.783 101.323 386.261 101.323ZM388.602 94.6472C389.578 94.6472 390.456 94.5106 391.236 94.2373C392.016 93.925 392.699 93.4956 393.285 92.949C393.87 92.3634 394.377 91.6412 394.806 90.7823V84.5164C394.494 83.6575 394.026 82.9353 393.402 82.3497C392.777 81.725 392.036 81.2565 391.178 80.9442C390.319 80.5929 389.363 80.4172 388.31 80.4172C387.139 80.4172 386.047 80.7295 385.032 81.3541C384.057 81.9397 383.276 82.7596 382.691 83.8137C382.106 84.8677 381.813 86.078 381.813 87.4444C381.813 88.8108 382.125 90.0405 382.75 91.1336C383.374 92.2268 384.193 93.0856 385.208 93.7103C386.261 94.3349 387.393 94.6472 388.602 94.6472Z" fill="#0E0E10"/>
<path d="M63.0987 81.1255C63.0987 88.544 59.0658 95.3761 52.5707 98.9606L43.3879 104.028V96.1118L49.2216 92.8922C53.5067 90.5273 56.1675 86.0199 56.1675 81.1255V69.8795L43.4071 77.4291C39.3186 79.848 36.8108 84.2456 36.8108 88.9961V110.333L13.086 96.456C6.83934 92.8023 3 86.1088 3 78.8721V50.0245L9.93121 53.4056V78.8721C9.93121 83.6465 12.4642 88.0626 16.5855 90.4731L29.8796 98.2489V88.9961C29.8796 81.7957 33.6807 75.1301 39.8778 71.4637L63.0987 57.7253V81.1255Z" fill="#0E0E10" stroke="#0E0E10"/>
<path d="M5.4408 65.6075L18.2012 73.1571V65.1036L5.4408 57.5541V65.6075Z" fill="#0E0E10" stroke="#0E0E10"/>
<path d="M29.5955 50.0245L36.4827 53.452V103.26H29.5955V50.0245Z" fill="#0E0E10" stroke="#0E0E10"/>
</svg>
