<svg width="385" height="244" viewBox="0 0 385 244" fill="none" xmlns="http://www.w3.org/2000/svg">
<path fill-rule="evenodd" clip-rule="evenodd" d="M1.56998 236.5C-0.354524 239.833 2.05109 244 5.90009 244H108.9H130.724L192.5 137L254.277 244H276.1H379.1C382.949 244 385.355 239.833 383.43 236.5L248.33 2.5C246.406 -0.833335 241.594 -0.833346 239.67 2.49999L192.5 84.2006L145.33 2.5C143.406 -0.833335 138.594 -0.833346 136.67 2.49999L1.56998 236.5ZM115.828 217L176.912 111.201L141 49L44.0052 217H115.828ZM269.172 217L208.089 111.201L244 49L340.995 217H269.172Z" fill="white"/>
</svg>
