<svg width="97" height="96" viewBox="0 0 97 96" fill="none" xmlns="http://www.w3.org/2000/svg">
<path d="M68.67 86C73.3095 86 77.9682 84.3469 81.5039 80.8508L84.8535 77.0506C87.7155 74.2258 87.7155 69.6403 84.8535 66.8155L76.4987 60.4819C73.6367 57.6571 68.9909 57.6571 66.1289 60.4819L59.2692 65.8718C45.9798 60.862 36.1747 51.5832 30.393 37.3706L35.8538 30.6C38.7158 27.7752 38.7158 23.1897 35.8538 20.3649L29.4369 12.1186C26.5749 9.2938 21.9291 9.2938 19.0671 12.1186L15.217 15.4247C11.6748 18.9145 10 23.5127 10 28.0919C10 53.4263 44.8375 86 68.67 86Z" fill="white"/>
</svg>
