<svg width="97" height="97" viewBox="0 0 97 97" fill="none" xmlns="http://www.w3.org/2000/svg">
<path fill-rule="evenodd" clip-rule="evenodd" d="M91.9451 18.2599C90.7437 30.9048 85.5241 61.6008 82.8743 75.7656C81.753 81.7648 79.537 83.7712 77.4011 83.9645C72.7489 84.3911 69.218 80.8915 64.7126 77.9453C57.6642 73.3325 53.6795 70.4596 46.838 65.9535C38.9285 60.7476 44.0546 57.8879 48.56 53.2152C49.7414 51.9887 70.2325 33.3712 70.633 31.6847C70.6797 31.4714 70.7331 30.6849 70.2592 30.2716C69.7853 29.8583 69.0979 29.9983 68.6039 30.1116C67.8964 30.2716 56.6363 37.7039 34.8169 52.4087C31.6198 54.6017 28.723 55.6682 26.1266 55.6149C23.2698 55.5549 17.7699 54.0018 13.6784 52.6686C8.66574 51.0422 4.67431 50.1756 5.02139 47.416C5.20161 45.9762 7.18397 44.503 10.9752 42.9966C34.323 32.8379 49.8949 26.1388 57.6842 22.8992C79.9308 13.6605 84.5496 12.054 87.5666 12.0007C91.3444 11.9473 92.2522 15.0603 91.9451 18.2599Z" fill="black"/>
</svg>
