<svg width="97" height="97" viewBox="0 0 97 97" fill="none" xmlns="http://www.w3.org/2000/svg">
<path fill-rule="evenodd" clip-rule="evenodd" d="M91.9448 18.2599C90.7433 30.9048 85.5238 61.6008 82.8739 75.7656C81.7526 81.7648 79.5366 83.7712 77.4007 83.9645C72.7485 84.3911 69.2176 80.8915 64.7123 77.9453C57.6639 73.3325 53.6791 70.4596 46.8376 65.9535C38.9282 60.7476 44.0543 57.8879 48.5597 53.2152C49.7411 51.9887 70.2322 33.3712 70.6327 31.6847C70.6794 31.4714 70.7328 30.6849 70.2589 30.2716C69.785 29.8583 69.0975 29.9983 68.6036 30.1116C67.8961 30.2716 56.636 37.7039 34.8166 52.4087C31.6194 54.6017 28.7227 55.6682 26.1262 55.6149C23.2695 55.5549 17.7696 54.0018 13.678 52.6686C8.66539 51.0422 4.67396 50.1756 5.02104 47.416C5.20126 45.9762 7.18362 44.503 10.9748 42.9966C34.3227 32.8379 49.8946 26.1388 57.6839 22.8992C79.9304 13.6605 84.5493 12.054 87.5662 12.0007C91.344 11.9473 92.2518 15.0603 91.9448 18.2599Z" fill="white"/>
</svg>
