<svg width="97" height="97" viewBox="0 0 97 97" fill="none" xmlns="http://www.w3.org/2000/svg">
<g clip-path="url(#clip0_54_18)">
<path fill-rule="evenodd" clip-rule="evenodd" d="M82.7046 14.0973C73.627 5.01167 61.5586 0.00404167 48.7021 0C22.209 0 0.646669 21.5582 0.634544 48.0635C0.630502 56.5348 2.84534 64.8041 7.05271 72.0952L0.230377 97L25.709 90.3151C32.7294 94.1466 40.6349 96.1634 48.6778 96.1674H48.698C75.1871 96.1674 96.7535 74.6051 96.7656 48.0999C96.7737 35.2595 91.7782 23.179 82.7046 14.0973ZM48.7021 88.0477H48.6859C41.516 88.0477 34.4875 86.1198 28.3523 82.4783L26.8932 81.6134L11.7734 85.5782L15.811 70.8342L14.8612 69.3227C10.86 62.9611 8.75021 55.6093 8.75425 48.0635C8.76234 26.0364 26.6871 8.11567 48.7223 8.11567C59.3923 8.11567 69.4237 12.2786 76.9655 19.8284C84.5072 27.3823 88.658 37.4177 88.654 48.0918C88.6418 70.127 70.7211 88.0477 48.7021 88.0477ZM70.616 58.1272C69.4156 57.525 63.5107 54.6191 62.4074 54.219C61.308 53.8188 60.5078 53.6167 59.7035 54.8171C58.8992 56.0175 56.6035 58.7254 55.9003 59.5297C55.2011 60.33 54.4978 60.431 53.2975 59.8288C52.0971 59.2266 48.2252 57.9615 43.6379 53.8673C40.0691 50.6825 37.6562 46.75 36.957 45.5455C36.2578 44.3411 36.8843 43.6945 37.4824 43.0963C38.024 42.5587 38.6828 41.6938 39.285 40.9906C39.8913 40.2954 40.0893 39.7942 40.4935 38.99C40.8936 38.1897 40.6955 37.4865 40.3924 36.8843C40.0893 36.2861 37.6885 30.3731 36.6903 27.9683C35.7162 25.6242 34.726 25.9435 33.9864 25.9071C33.2872 25.8707 32.4869 25.8667 31.6826 25.8667C30.8824 25.8667 29.581 26.1657 28.4816 27.3702C27.3823 28.5746 24.2783 31.4805 24.2783 37.3895C24.2783 43.3024 28.5827 49.0133 29.1808 49.8135C29.779 50.6138 37.6481 62.7469 49.6963 67.9485C52.5619 69.1852 54.801 69.9249 56.5429 70.4786C59.4206 71.392 62.0396 71.2627 64.1089 70.9555C66.4167 70.612 71.2142 68.0495 72.2165 65.2446C73.2188 62.4397 73.2188 60.0309 72.9157 59.5337C72.6166 59.0285 71.8164 58.7295 70.616 58.1272Z" fill="black"/>
</g>
<defs>
<clipPath id="clip0_54_18">
<rect width="97" height="97" fill="white"/>
</clipPath>
</defs>
</svg>
