<svg width="97" height="97" viewBox="0 0 97 97" fill="none" xmlns="http://www.w3.org/2000/svg">
<g clip-path="url(#clip0_400_5)">
<path fill-rule="evenodd" clip-rule="evenodd" d="M82.7047 14.0973C73.6271 5.01167 61.5587 0.00404167 48.7022 0C22.2091 0 0.64676 21.5582 0.634635 48.0635C0.630594 56.5348 2.84543 64.8041 7.0528 72.0952L0.230469 97L25.7091 90.3151C32.7295 94.1466 40.635 96.1634 48.6779 96.1674H48.6981C75.1872 96.1674 96.7535 74.6051 96.7657 48.0999C96.7738 35.2595 91.7783 23.179 82.7047 14.0973ZM48.7022 88.0477H48.686C41.5161 88.0477 34.4876 86.1198 28.3524 82.4783L26.8933 81.6134L11.7735 85.5782L15.8111 70.8342L14.8613 69.3227C10.8601 62.9611 8.7503 55.6093 8.75434 48.0635C8.76243 26.0364 26.6872 8.11567 48.7224 8.11567C59.3924 8.11567 69.4238 12.2786 76.9655 19.8284C84.5073 27.3823 88.6581 37.4177 88.654 48.0918C88.6419 70.127 70.7212 88.0477 48.7022 88.0477ZM70.6161 58.1272C69.4157 57.525 63.5108 54.6191 62.4075 54.219C61.3081 53.8188 60.5079 53.6167 59.7036 54.8171C58.8993 56.0175 56.6036 58.7254 55.9004 59.5297C55.2012 60.33 54.4979 60.431 53.2976 59.8288C52.0972 59.2266 48.2253 57.9615 43.638 53.8673C40.0692 50.6825 37.6563 46.75 36.9571 45.5455C36.2579 44.3411 36.8843 43.6945 37.4825 43.0963C38.0241 42.5587 38.6829 41.6938 39.2851 40.9906C39.8913 40.2954 40.0894 39.7942 40.4936 38.99C40.8937 38.1897 40.6956 37.4865 40.3925 36.8843C40.0894 36.2861 37.6886 30.3731 36.6903 27.9683C35.7163 25.6242 34.7261 25.9435 33.9865 25.9071C33.2873 25.8707 32.487 25.8667 31.6827 25.8667C30.8825 25.8667 29.5811 26.1657 28.4817 27.3702C27.3824 28.5746 24.2784 31.4805 24.2784 37.3895C24.2784 43.3024 28.5828 49.0133 29.1809 49.8135C29.7791 50.6138 37.6482 62.7469 49.6964 67.9485C52.562 69.1852 54.801 69.9249 56.543 70.4786C59.4207 71.392 62.0397 71.2627 64.109 70.9555C66.4168 70.612 71.2143 68.0495 72.2166 65.2446C73.2189 62.4397 73.2189 60.0309 72.9158 59.5337C72.6167 59.0285 71.8165 58.7295 70.6161 58.1272Z" fill="white"/>
</g>
<defs>
<clipPath id="clip0_400_5">
<rect width="97" height="97" fill="white"/>
</clipPath>
</defs>
</svg>
